{"glyphs":{"0":{"ha":658,"x_min":73,"x_max":587,"o":"m 281 0 q 190 23 229 0 q 125 84 151 45 q 86 173 99 122 q 73 279 73 223 q 82 381 73 329 q 109 481 92 433 q 153 573 127 530 q 213 648 179 616 q 289 699 247 680 q 379 718 330 718 q 476 696 435 718 q 539 638 517 675 q 574 553 562 602 q 587 450 587 505 q 577 347 587 400 q 552 244 567 294 q 510 150 538 194 q 448 72 483 105 q 371 19 413 39 q 281 0 329 0 m 292 123 q 328 140 310 123 q 361 184 345 157 q 390 248 376 212 q 412 322 403 284 q 427 399 422 361 q 433 469 433 437 q 429 518 433 495 q 419 558 426 541 q 402 585 412 575 q 376 595 391 595 q 338 578 356 595 q 305 534 320 562 q 278 472 290 507 q 257 399 266 437 q 244 325 249 361 q 240 256 240 288 q 243 204 240 228 q 253 162 246 180 q 269 134 259 144 q 292 123 279 123 z "},"1":{"ha":438,"x_min":5,"x_max":387,"o":"m 217 576 q 195 554 207 566 q 172 534 183 543 q 151 519 161 525 q 137 513 142 513 q 39 525 73 513 q 5 547 5 536 q 20 559 5 555 q 64 564 34 564 q 86 575 71 564 q 122 604 101 587 q 168 640 142 621 q 219 677 193 660 q 273 705 245 694 q 326 716 300 716 q 374 711 362 716 q 387 696 387 706 q 384 671 387 686 q 381 636 381 656 q 377 612 381 636 q 368 548 374 587 q 354 459 361 509 q 338 358 346 409 q 324 258 331 307 q 313 174 317 210 q 308 149 311 165 q 299 114 304 133 q 286 74 294 94 q 267 38 278 54 q 242 11 256 21 q 209 0 227 0 q 167 3 186 0 q 133 11 147 5 q 111 26 119 17 q 102 48 102 35 q 103 59 102 54 q 109 73 104 64 q 130 154 119 112 q 150 239 140 197 q 169 324 160 282 q 185 403 178 366 q 217 576 203 490 z "},"2":{"ha":658,"x_min":7,"x_max":615,"o":"m 511 1 q 471 6 491 1 q 431 22 451 12 q 391 44 411 32 q 351 71 371 57 q 268 23 312 41 q 174 1 224 4 q 109 13 139 1 q 55 46 78 26 q 20 94 33 67 q 7 150 7 121 q 14 196 7 172 q 38 238 22 219 q 78 270 54 258 q 138 282 103 282 q 233 267 192 282 q 309 229 274 251 q 347 282 329 254 q 378 340 365 310 q 400 400 392 370 q 408 459 408 430 q 398 540 408 509 q 373 589 389 572 q 340 613 358 607 q 304 620 321 620 q 263 612 282 620 q 228 592 243 605 q 204 560 213 578 q 195 519 195 542 q 215 494 195 507 q 277 468 234 481 q 278 461 278 464 q 262 444 278 453 q 223 427 247 435 q 172 414 200 419 q 120 409 144 409 q 110 415 115 414 q 100 416 104 416 q 59 466 72 439 q 46 521 46 492 q 67 603 46 559 q 126 677 89 648 q 213 726 163 707 q 319 744 262 744 q 358 741 334 744 q 412 728 383 738 q 470 702 441 719 q 524 659 500 686 q 563 585 548 631 q 578 486 578 539 q 569 415 578 456 q 540 330 559 375 q 494 238 522 285 q 432 150 467 191 q 480 131 455 138 q 534 124 505 124 q 551 135 542 124 q 568 158 560 145 q 584 181 576 171 q 594 192 591 192 q 609 184 604 192 q 615 158 615 177 q 604 85 615 129 q 595 57 601 72 q 578 30 589 42 q 550 9 567 17 q 511 1 534 1 m 165 130 q 234 158 194 130 q 203 174 218 168 q 177 180 189 180 q 134 175 146 180 q 121 161 121 170 q 125 150 121 155 q 135 140 129 144 q 149 132 141 135 q 165 130 157 130 z "},"3":{"ha":585,"x_min":35,"x_max":536,"o":"m 166 169 q 167 130 163 146 q 178 103 170 113 q 196 88 185 93 q 218 83 206 83 q 262 92 236 83 q 304 115 288 100 q 332 151 320 130 q 345 195 343 172 q 342 276 349 234 q 318 335 336 319 q 272 361 300 352 q 204 374 243 370 q 174 383 182 375 q 166 402 165 391 q 170 423 167 412 q 180 444 174 434 q 195 460 186 454 q 217 467 205 467 q 267 477 244 467 q 307 523 290 487 q 334 577 325 558 q 346 613 344 595 q 335 652 348 636 q 291 669 322 669 q 249 657 267 669 q 229 630 231 646 q 234 613 229 622 q 252 597 239 604 q 258 588 258 593 q 247 577 258 583 q 223 569 237 572 q 198 563 210 565 q 182 560 186 560 q 167 564 174 560 q 154 576 159 568 q 145 600 148 585 q 144 637 142 615 q 167 709 149 680 q 214 755 186 739 q 275 781 241 772 q 345 789 309 789 q 418 780 382 789 q 481 753 454 770 q 524 710 509 736 q 536 644 540 685 q 528 603 534 625 q 506 557 521 580 q 465 491 492 535 q 399 434 438 448 q 468 402 440 423 q 511 352 495 380 q 532 273 527 323 q 534 188 537 223 q 509 116 530 152 q 451 53 487 81 q 369 7 416 24 q 269 -11 322 -11 q 148 3 192 -11 q 78 41 104 16 q 42 101 52 66 q 36 178 32 136 q 48 221 39 204 q 71 249 57 239 q 102 264 85 260 q 138 269 120 269 q 173 265 154 269 q 209 255 193 261 q 236 241 225 249 q 246 227 247 234 q 234 218 245 222 q 207 209 222 215 q 180 194 192 203 q 166 169 168 185 z "},"4":{"ha":629,"x_min":58,"x_max":638,"o":"m 522 -26 q 463 -28 493 -26 q 405 -31 433 -31 q 367 -27 383 -31 q 339 -16 351 -24 q 322 8 328 -7 q 316 48 316 24 q 323 111 316 75 q 340 185 330 146 q 262 177 298 185 q 196 158 227 168 q 137 139 165 147 q 81 130 109 130 q 64 139 69 130 q 58 161 58 148 q 69 202 58 178 q 98 252 80 226 q 124 322 112 290 q 145 384 136 354 q 163 445 155 414 q 182 520 171 475 q 201 604 193 564 q 219 693 210 644 q 236 711 223 704 q 266 724 248 719 q 304 731 283 729 q 345 734 325 734 q 377 732 362 734 q 404 728 393 730 q 422 721 415 725 q 429 711 429 716 q 407 608 421 659 q 371 494 393 556 q 327 377 349 431 q 279 267 304 323 q 322 265 304 266 q 354 265 338 265 l 363 265 q 390 351 376 309 q 415 429 404 393 q 430 459 419 447 q 456 480 441 472 q 485 491 470 488 q 513 495 500 495 q 556 485 545 495 q 567 457 567 475 q 563 428 567 446 q 551 387 558 410 q 534 336 543 363 q 515 281 524 309 q 576 291 549 286 q 622 296 603 296 q 634 289 631 296 q 638 269 638 281 q 633 222 638 240 q 621 195 628 205 q 608 182 614 185 q 597 179 601 179 q 544 180 572 179 q 485 182 515 181 q 475 140 479 161 q 470 101 471 119 l 470 88 q 480 60 470 76 q 501 30 490 45 q 523 1 513 14 q 532 -19 532 -12 q 531 -24 532 -22 q 522 -26 529 -26 z "},"5":{"ha":564,"x_min":31,"x_max":542,"o":"m 324 574 q 276 581 296 577 q 243 588 257 585 q 218 593 229 591 q 195 595 207 595 q 186 594 191 595 q 176 593 181 594 q 181 559 181 562 q 187 523 185 538 q 195 433 190 495 q 271 437 235 437 q 381 426 336 437 q 457 394 427 414 q 504 350 487 375 q 529 299 521 325 q 540 247 538 273 q 542 201 542 222 q 522 125 542 163 q 465 57 501 87 q 378 8 429 26 q 269 -11 328 -11 q 160 3 205 -11 q 86 41 115 16 q 44 101 58 66 q 31 178 31 136 q 39 221 31 204 q 60 249 47 239 q 90 264 73 260 q 125 269 106 269 q 160 265 140 269 q 197 255 180 261 q 225 241 214 249 q 237 227 237 234 q 225 218 237 222 q 199 209 214 215 q 174 194 185 203 q 162 169 162 185 q 167 130 162 146 q 180 103 172 113 q 200 88 189 93 q 223 83 211 83 q 269 93 245 83 q 310 119 292 102 q 341 159 329 136 q 353 209 353 182 q 343 265 353 242 q 314 302 334 288 q 266 323 295 316 q 197 334 236 331 q 143 339 177 338 q 100 345 109 341 q 85 358 91 349 q 76 384 79 367 q 72 453 73 401 q 70 547 71 505 q 67 584 68 567 q 66 617 66 602 q 74 695 66 669 q 91 732 81 722 q 111 742 101 742 q 169 742 140 742 q 209 738 189 742 q 249 730 229 734 q 291 722 269 726 q 334 718 312 718 q 347 719 340 718 q 360 720 353 719 q 404 732 391 727 q 421 740 416 736 q 427 744 426 743 q 435 746 428 746 q 472 722 460 746 q 483 659 483 698 q 483 655 483 659 q 479 645 483 652 q 466 630 475 639 q 439 612 457 622 q 394 593 422 602 q 324 574 366 583 z "},"6":{"ha":629,"x_min":24,"x_max":593,"o":"m 424 293 q 409 360 424 337 q 371 384 394 384 q 342 375 354 384 q 323 354 331 367 q 309 327 315 342 q 296 299 302 312 q 283 278 290 287 q 267 270 277 270 q 259 286 264 270 q 255 326 255 302 q 270 393 255 363 q 310 443 286 422 q 366 475 334 464 q 429 486 397 486 q 490 475 460 486 q 542 442 519 465 q 579 384 565 419 q 593 300 593 349 q 572 192 593 245 q 511 96 551 138 q 416 26 472 53 q 288 0 359 0 q 191 15 239 0 q 106 62 144 29 q 46 146 69 94 q 24 271 24 197 q 56 435 24 355 q 144 586 88 515 q 275 714 199 656 q 435 812 350 772 q 461 822 449 818 q 485 825 473 825 q 532 810 515 825 q 549 773 549 795 q 539 741 549 758 q 509 710 530 725 q 391 623 448 674 q 289 511 334 572 q 218 381 245 450 q 191 245 191 313 q 196 195 191 218 q 213 153 201 171 q 243 124 224 134 q 291 113 262 113 q 345 130 320 113 q 387 173 370 146 q 414 231 404 199 q 424 293 424 262 z "},"7":{"ha":412,"x_min":50,"x_max":602,"o":"m 184 -38 q 165 -36 178 -38 q 137 -25 151 -33 q 111 -4 122 -18 q 100 33 100 10 q 100 38 100 36 q 100 44 100 41 q 136 170 111 106 q 196 298 161 233 q 275 429 231 362 q 369 564 319 495 q 316 580 336 572 q 281 593 296 587 q 254 602 267 598 q 225 605 241 605 q 189 604 203 605 q 165 600 175 604 q 148 587 155 595 q 130 564 140 579 q 95 516 109 532 q 69 501 81 501 q 54 511 58 501 q 50 537 50 521 q 50 552 50 544 q 52 568 51 559 q 81 663 62 627 q 124 720 100 700 q 173 747 147 740 q 220 754 198 754 q 269 746 245 754 q 319 729 294 739 q 371 712 345 720 q 426 703 397 704 q 451 703 439 703 q 471 703 462 703 q 514 704 498 703 q 539 706 530 705 q 551 708 547 707 q 557 709 555 709 q 591 693 581 709 q 602 648 602 676 q 597 608 602 629 q 587 596 597 604 q 563 578 576 587 q 536 559 550 568 q 515 545 523 550 q 440 424 471 484 q 386 300 410 364 q 342 167 363 237 q 298 18 322 98 q 279 -13 293 -1 q 249 -29 266 -24 q 215 -36 233 -35 q 184 -38 197 -38 z "},"8":{"ha":543,"x_min":22,"x_max":565,"o":"m 100 561 q 124 667 100 630 q 186 729 149 705 q 272 766 224 754 q 367 779 320 779 q 442 770 406 779 q 505 746 478 762 q 549 705 532 730 q 565 648 565 681 q 548 536 565 589 q 503 450 531 483 q 438 394 475 418 q 362 350 401 370 q 420 303 392 328 q 469 252 448 279 q 504 194 491 225 q 517 126 517 163 q 497 40 517 79 q 444 -27 478 1 q 363 -71 410 -56 q 260 -87 316 -87 q 179 -79 221 -87 q 102 -49 137 -71 q 44 11 67 -27 q 22 110 22 50 q 38 201 22 161 q 79 272 54 241 q 138 328 105 304 q 206 374 172 353 q 126 459 151 410 q 100 561 100 509 m 338 695 q 301 689 319 695 q 270 670 283 682 q 249 641 256 658 q 241 582 241 623 q 244 545 241 564 q 256 505 248 525 q 274 467 263 486 q 298 433 284 448 q 343 470 321 448 q 381 516 364 492 q 408 575 398 541 q 418 629 418 609 q 412 658 418 646 q 394 679 405 671 q 368 691 382 687 q 338 695 353 695 m 343 161 q 327 221 343 195 q 286 271 310 247 q 237 244 260 258 q 198 212 214 230 q 172 173 181 195 q 163 123 163 151 q 169 85 163 101 q 186 57 176 68 q 208 40 196 46 q 232 35 220 35 q 272 42 252 35 q 308 66 292 50 q 334 105 324 82 q 343 161 343 129 z "},"9":{"ha":629,"x_min":36,"x_max":588,"o":"m 315 347 q 333 361 328 361 q 339 357 338 361 q 340 347 340 353 q 330 301 340 325 q 303 256 320 277 q 261 223 286 236 q 209 210 237 210 q 131 229 164 210 q 77 280 98 249 q 46 350 56 311 q 36 427 36 389 q 45 499 36 463 q 71 570 54 536 q 113 635 87 605 q 171 689 138 666 q 245 725 204 711 q 334 738 286 738 q 420 722 375 738 q 503 673 465 707 q 564 587 540 640 q 588 461 588 535 q 556 264 588 352 q 470 106 525 176 q 343 -15 416 37 q 187 -104 270 -67 q 161 -114 174 -110 q 138 -118 149 -118 q 90 -105 107 -118 q 73 -73 73 -92 q 83 -40 73 -57 q 114 -9 92 -24 q 238 67 182 25 q 334 164 294 110 q 395 287 374 219 q 417 439 417 355 q 413 503 417 473 q 397 557 408 534 q 369 594 387 581 q 323 608 351 608 q 273 591 296 608 q 233 547 250 574 q 207 487 216 520 q 198 422 198 454 q 204 378 198 397 q 220 346 210 359 q 243 326 231 333 q 270 319 256 319 q 293 326 281 319 q 315 347 305 333 z "}," ":{"ha":370,"x_min":0,"x_max":0,"o":""},"!":{"ha":803,"x_min":146,"x_max":660,"o":"m 262 347 q 282 491 269 417 q 313 640 296 566 q 351 787 331 714 q 391 926 371 859 q 428 1050 410 992 q 460 1156 446 1109 q 485 1208 469 1188 q 522 1239 502 1228 q 565 1255 543 1251 q 609 1259 588 1259 q 629 1256 620 1259 q 646 1246 639 1253 q 656 1226 652 1239 q 660 1194 660 1214 q 658 1165 660 1181 q 652 1128 656 1149 q 608 969 635 1049 q 543 798 581 890 q 457 597 505 707 q 349 347 408 488 q 341 333 347 340 q 328 322 336 327 q 310 316 319 318 q 292 313 300 313 q 270 319 279 313 q 260 337 260 324 q 262 347 260 340 m 380 125 q 377 113 378 123 q 373 88 376 102 q 362 58 369 74 q 342 30 355 43 q 309 7 329 16 q 258 -1 288 -1 q 212 5 233 -1 q 177 25 192 12 q 155 60 163 39 q 146 110 146 81 q 154 158 146 134 q 176 199 161 181 q 214 229 191 218 q 271 239 238 239 q 352 211 323 239 q 380 130 380 182 q 380 125 380 127 z "},"\"":{"ha":803,"x_min":144,"x_max":627,"o":"m 144 870 q 145 902 144 882 q 147 944 146 921 q 151 994 149 968 q 155 1045 153 1020 q 165 1172 159 1104 q 176 1208 165 1192 q 202 1235 186 1224 q 239 1253 218 1246 q 279 1259 259 1259 q 312 1254 296 1259 q 340 1241 328 1250 q 359 1218 352 1232 q 366 1185 366 1204 q 365 1168 366 1177 q 361 1150 363 1160 q 340 1079 351 1118 q 317 1001 329 1040 q 294 927 305 962 q 274 868 283 892 q 241 820 262 836 q 198 804 220 804 q 160 820 176 804 q 144 870 144 837 m 404 870 q 405 902 404 882 q 408 944 406 921 q 411 994 409 968 q 415 1045 413 1020 q 426 1172 420 1104 q 436 1208 426 1192 q 463 1235 446 1224 q 499 1253 479 1246 q 540 1259 519 1259 q 572 1254 557 1259 q 600 1241 588 1250 q 620 1218 612 1232 q 627 1185 627 1204 q 625 1168 627 1177 q 621 1150 624 1160 q 601 1079 612 1118 q 577 1001 589 1040 q 554 927 566 962 q 534 868 543 892 q 502 820 523 836 q 458 804 480 804 q 420 820 437 804 q 404 870 404 837 z "},"#":{"ha":950,"x_min":108,"x_max":1099,"o":"m 328 651 q 295 655 311 651 q 266 668 279 659 q 245 691 253 677 q 237 724 237 705 q 250 766 237 750 q 286 789 263 781 q 338 800 309 798 q 401 803 368 803 l 437 803 l 530 1010 q 550 1044 537 1027 q 581 1075 563 1061 q 621 1097 599 1088 q 669 1106 644 1106 q 692 1100 684 1106 q 703 1086 700 1095 q 707 1067 707 1078 q 708 1048 708 1057 q 705 1034 708 1044 q 696 1011 701 1023 q 686 987 691 999 q 677 966 681 975 q 644 891 661 932 q 606 803 626 850 q 696 803 650 803 q 789 804 742 804 q 831 921 811 867 q 865 1013 850 975 q 882 1047 871 1029 q 910 1078 893 1064 q 948 1100 926 1091 q 996 1109 970 1109 q 1018 1103 1010 1109 q 1031 1089 1027 1097 q 1037 1070 1036 1080 q 1040 1051 1038 1060 q 1037 1036 1040 1046 q 1030 1014 1034 1025 q 1023 990 1027 1002 q 1015 969 1019 978 q 988 893 1002 935 q 958 804 974 852 l 1044 804 q 1072 800 1061 804 q 1088 791 1082 797 q 1097 777 1095 785 q 1099 762 1099 770 q 1092 718 1099 738 q 1064 683 1084 698 q 1013 660 1045 668 q 932 651 981 651 l 908 651 q 877 556 893 605 q 842 456 860 508 l 901 456 q 928 451 918 455 q 945 441 939 447 q 954 428 951 435 q 956 413 956 420 q 948 370 956 390 q 921 335 940 350 q 869 312 901 321 q 789 304 837 304 l 787 304 q 738 173 764 239 q 683 37 711 106 q 665 6 675 18 q 644 -12 654 -5 q 622 -19 633 -18 q 600 -21 610 -21 q 574 -19 587 -21 q 551 -10 561 -16 q 534 9 541 -3 q 528 41 528 21 q 545 117 528 70 l 610 303 q 505 302 560 302 q 391 302 450 302 q 329 171 361 237 q 262 35 297 104 q 241 3 252 15 q 218 -14 230 -8 q 196 -22 207 -20 q 174 -24 184 -24 q 151 -22 163 -24 q 130 -15 139 -20 q 114 1 120 -9 q 108 29 108 12 q 113 65 108 44 q 131 114 119 87 l 215 303 q 209 303 212 303 q 203 304 206 304 q 171 308 187 304 q 142 321 155 312 q 121 343 129 330 q 113 377 113 357 q 119 408 113 395 q 137 428 126 420 q 160 442 147 437 q 186 452 173 448 q 216 455 195 455 q 256 456 237 456 l 282 456 l 370 651 l 328 651 m 543 651 q 502 555 523 604 q 458 454 481 507 l 459 454 q 561 454 510 454 q 665 454 612 454 q 699 552 682 503 q 734 651 717 602 l 543 651 z "},"$":{"ha":1169,"x_min":146,"x_max":1123,"o":"m 722 1270 q 731 1296 724 1282 q 750 1320 738 1310 q 780 1338 762 1331 q 820 1345 798 1345 q 841 1340 832 1345 q 854 1326 849 1334 q 863 1309 860 1318 q 865 1293 865 1299 q 865 1280 865 1287 q 863 1264 864 1272 q 861 1248 862 1256 q 859 1234 860 1240 l 849 1172 q 954 1140 904 1161 q 1041 1088 1003 1119 q 1101 1019 1078 1058 q 1123 932 1123 979 q 1117 887 1123 906 q 1099 857 1110 869 q 1075 838 1088 844 q 1046 832 1061 832 q 1015 839 1031 832 q 987 858 1000 845 q 968 889 975 871 q 960 932 960 908 q 925 993 960 966 q 826 1033 890 1021 l 761 655 q 854 596 809 627 q 936 528 900 565 q 993 445 971 490 q 1015 344 1015 399 q 988 209 1015 269 q 912 105 961 149 q 796 36 864 62 q 645 3 728 10 l 625 -107 q 612 -132 620 -123 q 596 -145 605 -140 q 576 -151 587 -150 q 557 -153 566 -153 q 544 -152 550 -153 q 533 -152 538 -152 q 513 -146 522 -152 q 497 -130 504 -140 q 487 -106 491 -120 q 484 -77 484 -93 q 484 -62 484 -70 q 486 -44 485 -54 q 489 -26 487 -39 q 494 3 491 -14 q 358 28 422 9 q 248 82 295 48 q 174 166 201 116 q 146 283 146 216 q 152 335 146 307 q 168 389 157 362 q 198 441 179 416 q 243 486 216 467 q 307 516 271 505 q 391 528 343 528 q 426 522 411 528 q 450 507 440 516 q 465 485 460 497 q 469 461 469 473 q 455 422 469 439 q 411 406 440 406 q 377 401 395 406 q 344 384 359 397 q 319 347 329 370 q 309 285 309 323 q 365 185 309 220 q 519 142 421 150 l 598 578 q 493 636 545 606 q 400 702 441 666 q 334 780 359 737 q 309 878 309 823 q 334 982 309 930 q 410 1078 359 1035 q 534 1149 460 1121 q 707 1182 609 1178 l 722 1270 m 852 344 q 843 390 852 368 q 819 431 834 412 q 782 468 803 450 q 734 503 760 486 l 673 152 q 746 180 713 162 q 803 222 779 197 q 839 277 826 246 q 852 344 852 308 m 492 898 q 503 851 492 873 q 531 808 513 829 q 573 770 549 788 q 627 733 597 751 q 656 893 642 816 q 682 1038 670 970 q 595 1019 631 1033 q 536 986 559 1006 q 503 944 513 967 q 492 898 492 921 z "},"%":{"ha":1535,"x_min":73,"x_max":1465,"o":"m 318 456 q 212 480 258 456 q 136 547 167 505 q 89 644 104 589 q 73 760 73 699 q 83 859 73 809 q 111 954 92 908 q 158 1039 130 1000 q 223 1108 186 1079 q 308 1155 261 1138 q 412 1172 355 1172 q 522 1149 476 1172 q 596 1088 567 1127 q 640 999 626 1050 q 654 890 654 947 q 643 789 654 840 q 612 690 632 738 q 562 599 591 642 q 495 524 532 556 q 413 474 458 492 q 318 456 369 456 m 330 586 q 390 614 361 586 q 440 688 418 643 q 475 786 463 732 q 488 891 488 840 q 483 949 488 922 q 467 997 478 977 q 438 1030 456 1018 q 395 1042 420 1042 q 331 1018 359 1042 q 284 956 303 994 q 256 870 266 918 q 247 774 247 822 q 252 703 247 736 q 268 643 257 669 q 294 601 278 616 q 330 586 309 586 m 940 1150 q 958 1174 947 1162 q 984 1195 968 1185 q 1022 1210 1000 1204 q 1073 1215 1044 1215 q 1097 1203 1090 1215 q 1103 1173 1103 1191 q 1101 1147 1103 1161 q 1095 1121 1099 1134 q 1088 1097 1092 1108 q 1081 1080 1084 1086 q 1020 952 1055 1028 q 943 788 985 877 q 857 601 902 699 q 766 408 812 503 q 677 224 721 312 q 595 65 633 136 q 568 32 585 45 q 532 13 551 20 q 496 3 514 5 q 465 0 478 0 q 435 5 448 0 q 416 19 423 10 q 406 40 409 28 q 403 65 403 52 q 410 115 403 89 q 427 161 417 140 q 460 225 437 182 q 513 329 482 269 q 580 459 543 388 q 657 607 617 531 q 736 761 696 684 q 814 910 777 839 q 884 1044 851 982 q 940 1150 916 1105 m 1141 43 q 1036 66 1081 43 q 960 129 991 90 q 915 219 930 168 q 899 327 899 271 q 908 431 899 378 q 936 531 918 483 q 983 621 955 579 q 1048 693 1010 663 q 1132 742 1085 724 q 1236 760 1179 760 q 1339 735 1295 760 q 1410 669 1382 711 q 1452 573 1438 628 q 1465 457 1465 518 q 1454 361 1465 410 q 1424 267 1444 313 q 1376 180 1404 220 q 1312 109 1348 140 q 1233 61 1276 79 q 1141 43 1190 43 m 1154 174 q 1208 199 1182 174 q 1255 263 1235 224 q 1286 351 1274 303 q 1298 445 1298 399 q 1294 515 1298 482 q 1280 574 1289 549 q 1255 614 1270 600 q 1218 629 1240 629 q 1155 604 1182 629 q 1109 537 1128 578 q 1082 442 1091 495 q 1073 335 1073 389 q 1078 275 1073 304 q 1092 223 1082 245 q 1117 187 1102 201 q 1154 174 1133 174 z "},"&":{"ha":1023,"x_min":73,"x_max":905,"o":"m 349 581 q 322 637 336 605 q 297 704 309 669 q 277 775 285 739 q 269 842 269 810 q 293 947 269 897 q 357 1036 317 998 q 449 1098 397 1075 q 560 1120 502 1120 q 651 1105 610 1120 q 723 1063 693 1090 q 769 999 753 1036 q 786 919 786 962 q 773 839 786 881 q 731 754 760 798 q 656 669 702 711 q 544 586 610 626 q 571 539 552 570 q 615 470 591 508 q 665 390 639 432 q 713 310 691 349 q 736 331 728 320 q 749 353 745 342 q 754 375 753 363 q 755 397 755 386 q 749 441 755 423 q 731 477 743 460 q 705 515 720 495 q 671 564 689 535 q 674 568 671 565 q 682 576 677 572 q 690 583 686 580 q 696 586 694 586 q 725 577 706 586 q 766 554 744 569 q 812 517 789 538 q 855 469 836 496 q 886 412 874 443 q 899 348 899 381 q 876 262 899 307 q 799 174 853 218 q 813 164 801 174 q 841 143 825 155 q 872 119 857 131 q 895 100 887 106 q 905 72 905 90 q 896 38 905 56 q 873 5 887 20 q 841 -20 859 -10 q 808 -31 824 -31 q 780 -20 792 -31 q 754 4 771 -13 q 722 40 738 22 q 693 72 705 58 q 681 87 681 86 q 608 43 649 62 q 522 14 572 27 q 408 0 472 0 q 263 18 326 0 q 158 68 200 37 q 95 143 116 100 q 73 234 73 185 q 91 322 73 277 q 142 413 108 368 q 229 501 177 458 q 349 581 280 544 m 414 137 q 500 152 458 137 q 578 191 542 168 q 527 255 549 226 q 483 315 505 283 q 439 385 462 347 q 386 477 416 423 q 328 426 353 453 q 284 370 302 398 q 257 313 267 341 q 248 258 248 285 q 258 211 248 233 q 288 172 268 189 q 340 146 309 156 q 414 137 371 137 m 568 977 q 536 967 554 977 q 504 942 519 958 q 478 904 488 926 q 468 856 468 882 q 474 802 468 833 q 489 742 481 771 q 504 693 497 713 q 512 673 511 673 q 573 732 545 704 q 619 788 600 760 q 649 844 638 816 q 659 903 659 873 q 655 934 659 920 q 640 957 650 947 q 612 971 630 966 q 568 977 595 977 z "},"'":{"ha":413,"x_min":109,"x_max":331,"o":"m 109 870 q 110 902 109 882 q 112 944 111 921 q 115 994 113 968 q 119 1045 117 1020 q 130 1172 124 1104 q 140 1208 130 1192 q 167 1235 151 1224 q 203 1253 183 1246 q 244 1259 224 1259 q 277 1254 261 1259 q 304 1241 292 1250 q 324 1218 317 1232 q 331 1185 331 1204 q 330 1168 331 1177 q 326 1150 328 1160 q 305 1079 316 1118 q 282 1001 294 1040 q 259 927 270 962 q 239 868 248 892 q 206 820 227 836 q 163 804 184 804 q 125 820 141 804 q 109 870 109 837 z "},"(":{"ha":950,"x_min":219,"x_max":1088,"o":"m 436 -260 q 339 -233 380 -260 q 271 -156 298 -205 q 232 -39 245 -107 q 219 109 219 28 q 231 275 219 187 q 266 452 243 363 q 321 630 289 542 q 393 798 353 718 q 480 946 433 878 q 579 1065 527 1015 q 689 1143 632 1115 q 805 1172 745 1172 q 895 1157 848 1172 q 982 1118 942 1142 q 1050 1062 1021 1093 q 1087 998 1079 1031 q 1087 996 1087 997 q 1088 993 1088 994 q 1078 966 1088 981 q 1054 938 1068 951 q 1022 916 1039 925 q 993 907 1006 907 q 979 911 983 907 q 945 942 962 924 q 908 978 928 960 q 863 1007 888 995 q 805 1020 838 1020 q 724 994 764 1020 q 647 923 684 968 q 577 817 610 878 q 516 685 544 755 q 465 538 488 614 q 426 387 442 463 q 401 240 410 311 q 393 109 393 169 q 397 21 393 61 q 412 -48 401 -19 q 438 -93 422 -77 q 479 -109 455 -109 q 517 -105 497 -109 q 564 -90 538 -102 q 622 -51 590 -77 q 696 22 654 -24 q 715 35 705 31 q 734 39 725 39 q 759 31 747 39 q 779 11 770 23 q 792 -18 787 -2 q 798 -48 798 -33 q 794 -70 798 -60 q 784 -87 791 -80 q 606 -220 694 -180 q 436 -260 517 -260 z "},")":{"ha":877,"x_min":41,"x_max":780,"o":"m 519 1172 q 637 1134 587 1172 q 718 1029 686 1095 q 765 875 749 963 q 780 688 780 787 q 765 481 780 587 q 723 275 751 376 q 655 85 695 175 q 565 -71 615 -4 q 453 -177 514 -138 q 324 -216 393 -216 q 234 -205 280 -216 q 148 -177 187 -195 q 79 -135 108 -159 q 42 -87 50 -112 q 42 -84 42 -85 q 41 -81 41 -83 q 51 -55 41 -70 q 76 -27 61 -40 q 107 -5 90 -14 q 136 4 123 4 q 151 0 146 4 q 184 -19 167 -7 q 221 -40 201 -30 q 267 -57 241 -50 q 324 -64 292 -64 q 402 -28 365 -64 q 470 68 439 7 q 527 208 502 128 q 571 374 553 287 q 598 551 589 461 q 608 720 608 640 q 602 839 608 784 q 582 933 595 893 q 546 997 568 974 q 494 1020 524 1020 q 453 1017 477 1020 q 401 1001 430 1014 q 336 962 372 988 q 259 890 300 936 q 240 876 250 880 q 222 872 231 872 q 197 880 208 872 q 177 901 185 888 q 163 929 168 913 q 158 960 158 945 q 172 999 158 985 q 350 1132 262 1092 q 519 1172 438 1172 z "},"*":{"ha":730,"x_min":22,"x_max":673,"o":"m 467 1158 q 451 1112 460 1137 q 433 1061 442 1086 q 414 1011 423 1036 q 397 969 405 987 q 448 997 419 981 q 503 1027 477 1013 q 566 1062 534 1044 q 578 1067 572 1066 q 592 1069 585 1069 q 622 1061 607 1069 q 648 1042 637 1054 q 666 1015 659 1029 q 673 985 673 1000 q 662 954 673 968 q 623 932 650 940 q 578 924 602 928 q 529 915 553 919 q 480 906 504 910 q 435 899 456 902 q 476 881 454 891 q 522 860 498 871 q 567 839 545 849 q 608 819 589 828 q 636 795 628 808 q 645 768 645 782 q 637 741 645 754 q 617 716 629 727 q 589 700 604 706 q 558 693 573 693 q 519 709 534 693 q 463 761 490 735 q 416 806 440 783 q 375 846 391 829 q 374 789 374 823 q 373 724 374 755 q 372 649 372 688 q 364 623 372 634 q 345 603 357 611 q 317 590 332 595 q 288 586 302 586 q 264 589 275 586 q 244 599 253 592 q 230 615 235 606 q 224 640 224 625 q 225 651 224 645 q 228 665 226 658 q 244 710 235 686 q 262 760 253 735 q 280 809 271 785 q 297 851 290 833 q 247 823 275 839 q 192 793 218 808 q 130 760 161 777 q 104 753 118 753 q 74 761 88 753 q 47 781 59 768 q 29 808 36 793 q 22 838 22 823 q 33 869 22 855 q 73 890 45 882 q 117 898 93 894 q 165 907 140 903 q 214 915 191 911 q 258 922 238 919 q 218 941 240 930 q 173 961 195 951 q 127 982 150 972 q 87 1002 105 993 q 50 1052 50 1023 q 58 1080 50 1066 q 78 1104 66 1093 q 106 1121 91 1115 q 138 1128 122 1128 q 176 1112 161 1128 q 232 1060 205 1086 q 279 1015 255 1038 q 321 975 304 991 q 321 1032 321 998 q 323 1097 322 1065 q 324 1174 323 1135 q 332 1201 324 1189 q 351 1221 339 1213 q 377 1233 362 1229 q 408 1237 392 1237 q 451 1224 432 1237 q 471 1183 471 1211 q 470 1172 471 1178 q 467 1158 469 1166 z "},"+":{"ha":877,"x_min":146,"x_max":753,"o":"m 385 282 l 233 282 q 195 288 212 282 q 168 302 178 293 q 151 323 157 311 q 146 347 146 334 q 152 371 146 359 q 169 392 157 382 q 197 407 180 401 q 236 412 214 412 l 385 412 l 385 567 q 392 601 385 586 q 409 626 398 616 q 433 642 420 637 q 459 648 446 648 q 498 631 481 648 q 515 580 515 615 l 515 412 l 685 412 q 736 395 720 412 q 753 356 753 378 q 747 330 753 342 q 731 306 742 317 q 706 289 721 295 q 672 282 691 282 l 515 282 l 515 131 q 510 92 515 109 q 495 63 504 75 q 474 46 486 52 q 450 41 462 41 q 426 46 437 41 q 405 62 414 52 q 391 90 396 73 q 385 128 385 106 l 385 282 z "},",":{"ha":413,"x_min":195,"x_max":455,"o":"m 199 -49 q 204 -26 201 -40 q 212 4 208 -12 q 221 38 216 20 q 231 74 227 56 q 256 161 243 115 q 269 186 260 175 q 291 204 278 197 q 318 214 303 211 q 349 218 333 218 q 387 213 368 218 q 421 197 406 208 q 446 173 436 187 q 455 139 455 158 q 450 113 455 125 q 437 85 446 100 q 409 41 425 64 q 379 -6 394 18 q 349 -51 363 -29 q 323 -87 334 -72 q 288 -120 307 -110 q 250 -130 268 -130 q 211 -115 227 -130 q 195 -74 195 -100 q 199 -49 195 -63 z "},"-":{"ha":521,"x_min":43,"x_max":477,"o":"m 412 477 q 433 475 421 477 q 454 468 444 473 q 470 452 463 462 q 477 426 477 442 q 474 398 477 412 q 461 373 471 385 q 435 355 452 362 q 390 347 418 347 l 109 347 q 74 355 87 347 q 54 374 61 363 q 45 398 47 385 q 43 421 43 411 q 45 440 43 430 q 54 458 47 450 q 74 472 60 467 q 109 477 87 477 l 412 477 z "},".":{"ha":585,"x_min":217,"x_max":456,"o":"m 456 130 q 455 116 456 127 q 451 91 454 105 q 439 61 447 77 q 417 31 431 45 q 381 9 403 18 q 328 0 359 0 q 283 6 303 0 q 248 26 262 13 q 225 60 233 39 q 217 110 217 81 q 224 158 217 134 q 246 199 231 181 q 285 229 261 218 q 341 239 309 239 q 427 211 397 239 q 456 130 456 182 z "},"/":{"ha":877,"x_min":151,"x_max":846,"o":"m 629 1150 q 654 1188 638 1169 q 692 1223 670 1208 q 743 1249 715 1239 q 803 1259 770 1259 q 828 1252 819 1259 q 841 1236 837 1246 q 846 1215 845 1226 q 846 1194 846 1204 q 843 1176 846 1188 q 833 1151 839 1164 q 821 1123 827 1137 q 811 1100 815 1109 q 730 910 775 1021 q 627 662 684 798 q 501 369 570 526 q 349 43 432 212 q 320 8 335 21 q 291 -12 306 -5 q 260 -20 275 -18 q 231 -22 245 -22 q 203 -21 217 -22 q 177 -14 189 -20 q 158 4 165 -8 q 151 37 151 16 q 157 79 151 55 q 177 134 163 102 q 207 200 186 155 q 254 307 227 245 q 314 442 281 368 q 381 595 347 516 q 452 753 416 673 q 520 907 488 833 q 581 1043 553 980 q 629 1150 609 1105 z "},":":{"ha":477,"x_min":217,"x_max":496,"o":"m 496 585 q 496 572 496 583 q 491 547 495 561 q 480 516 488 532 q 458 487 472 500 q 422 465 444 473 q 369 456 400 456 q 323 462 344 456 q 289 482 303 469 q 266 516 274 495 q 258 566 258 536 q 265 613 258 590 q 287 655 272 637 q 326 684 302 673 q 382 695 349 695 q 467 667 438 695 q 496 585 496 638 m 456 130 q 455 116 456 127 q 451 91 454 105 q 439 61 447 77 q 417 31 431 45 q 381 9 403 18 q 328 0 359 0 q 283 6 303 0 q 248 26 262 13 q 225 60 233 39 q 217 110 217 81 q 224 158 217 134 q 246 199 231 181 q 285 229 261 218 q 341 239 309 239 q 427 211 397 239 q 456 130 456 182 z "},";":{"ha":521,"x_min":195,"x_max":496,"o":"m 199 -49 q 204 -26 201 -40 q 212 4 208 -12 q 221 38 216 20 q 231 74 227 56 q 256 161 243 115 q 269 186 260 175 q 291 204 278 197 q 318 214 303 211 q 349 218 333 218 q 387 213 368 218 q 421 197 406 208 q 446 173 436 187 q 455 139 455 158 q 450 113 455 125 q 437 85 446 100 q 409 41 425 64 q 379 -6 394 18 q 349 -51 363 -29 q 323 -87 334 -72 q 288 -120 307 -110 q 250 -130 268 -130 q 211 -115 227 -130 q 195 -74 195 -100 q 199 -49 195 -63 m 496 585 q 496 572 496 583 q 491 547 495 561 q 480 516 488 532 q 458 487 472 500 q 422 465 444 473 q 369 456 400 456 q 323 462 344 456 q 289 482 303 469 q 266 516 274 495 q 258 566 258 536 q 265 613 258 590 q 287 655 272 637 q 326 684 302 673 q 382 695 349 695 q 467 667 438 695 q 496 585 496 638 z "},"<":{"ha":803,"x_min":39,"x_max":769,"o":"m 334 186 q 189 242 246 216 q 98 295 132 268 q 52 353 65 322 q 39 425 39 384 q 57 487 39 464 q 102 527 74 511 q 167 555 131 543 q 241 585 203 568 q 268 597 243 586 q 331 624 292 608 q 417 661 370 641 q 512 700 465 681 q 599 734 558 719 q 665 758 640 750 q 694 763 680 763 q 725 755 713 763 q 746 735 738 747 q 759 709 755 723 q 766 683 764 695 q 769 662 768 670 q 769 652 769 653 q 755 612 769 626 q 716 591 741 599 l 172 416 l 616 253 q 643 239 627 249 q 671 214 658 229 q 695 180 685 199 q 705 139 705 161 q 686 100 705 115 q 635 85 667 85 q 570 96 606 85 q 495 123 534 107 q 415 156 456 138 q 334 186 374 173 z "},"=":{"ha":1158,"x_min":237,"x_max":1099,"o":"m 328 259 q 295 263 311 259 q 266 276 279 267 q 245 299 253 285 q 237 332 237 313 q 250 374 237 358 q 286 397 263 389 q 338 408 309 406 q 401 411 368 411 q 476 411 430 411 q 577 411 522 411 q 695 411 633 411 q 819 412 758 412 q 939 412 881 412 q 1044 412 997 412 q 1072 408 1061 412 q 1088 399 1082 405 q 1097 385 1095 393 q 1099 370 1099 378 q 1092 326 1099 346 q 1064 291 1084 306 q 1013 268 1045 276 q 932 259 981 259 l 328 259 z "},">":{"ha":803,"x_min":94,"x_max":769,"o":"m 481 173 q 400 142 441 159 q 320 109 359 125 q 245 83 281 94 q 180 72 210 72 q 129 87 148 72 q 111 125 111 102 q 117 167 111 148 q 133 200 123 186 q 153 225 142 215 q 172 239 163 235 l 636 416 l 146 564 q 108 585 122 572 q 94 625 94 599 q 94 634 94 626 q 97 655 94 643 q 103 682 99 668 q 116 708 108 696 q 137 728 125 720 q 168 736 150 736 q 198 731 183 736 q 256 711 220 724 q 332 682 292 699 q 414 649 373 666 q 489 618 455 632 q 544 595 522 604 q 567 585 566 586 q 641 555 605 568 q 706 527 677 543 q 752 487 734 511 q 769 425 769 464 q 756 349 769 382 q 711 288 744 316 q 623 232 679 259 q 481 173 567 204 z "},"?":{"ha":876,"x_min":267,"x_max":787,"o":"m 482 396 q 453 347 472 363 q 412 330 435 330 q 371 340 389 330 q 353 373 353 350 q 373 479 353 434 q 422 560 393 524 q 487 625 452 595 q 552 687 522 655 q 602 756 582 719 q 622 844 622 794 q 611 892 622 873 q 584 925 601 912 q 547 943 568 937 q 507 949 527 949 q 474 939 491 949 q 442 917 457 930 q 416 890 427 904 q 403 868 406 876 q 377 847 391 854 q 347 841 362 841 q 321 848 334 841 q 299 866 309 854 q 283 894 290 878 q 277 929 277 910 q 288 960 277 944 q 336 1015 308 991 q 396 1054 363 1038 q 463 1078 428 1070 q 531 1086 497 1086 q 618 1073 572 1086 q 701 1032 663 1060 q 763 960 739 1004 q 787 857 787 917 q 770 734 787 785 q 726 646 753 684 q 665 579 699 608 q 597 523 631 550 q 532 465 563 495 q 482 396 502 435 m 506 130 q 505 116 506 127 q 501 91 505 105 q 489 61 497 77 q 467 31 481 45 q 431 9 453 18 q 378 0 410 0 q 333 6 353 0 q 298 26 313 13 q 275 60 283 39 q 267 110 267 81 q 274 158 267 134 q 296 199 281 181 q 335 229 311 218 q 391 239 359 239 q 477 211 448 239 q 506 130 506 182 z "},"@":{"ha":1520,"x_min":76,"x_max":1450,"o":"m 1008 698 q 975 704 992 702 q 942 707 958 707 q 857 684 899 707 q 779 626 816 662 q 710 542 741 589 q 656 445 679 495 q 621 347 633 395 q 608 260 608 299 q 630 181 608 209 q 696 154 651 154 q 754 166 727 154 q 805 200 782 179 q 848 246 829 220 q 882 298 867 272 q 906 350 897 325 q 919 392 916 374 l 1008 698 m 76 146 q 92 304 76 223 q 139 464 109 385 q 215 618 170 543 q 315 760 259 693 q 438 882 371 826 q 580 978 505 938 q 739 1041 656 1019 q 911 1063 822 1063 q 1043 1052 977 1063 q 1168 1016 1108 1040 q 1279 955 1228 992 q 1369 864 1331 917 q 1428 744 1407 812 q 1450 590 1450 675 q 1449 554 1450 572 q 1446 517 1449 536 q 1421 417 1440 471 q 1373 310 1402 363 q 1304 207 1343 256 q 1217 120 1265 157 q 1115 59 1170 82 q 1000 37 1060 37 q 970 42 985 37 q 943 60 955 47 q 923 98 930 74 q 916 159 916 121 q 918 194 916 176 q 924 234 920 212 q 866 142 899 182 q 798 76 834 103 q 722 35 761 49 q 644 22 683 22 q 559 37 600 22 q 488 81 519 52 q 439 154 457 111 q 420 256 420 198 q 439 382 420 315 q 492 513 458 448 q 575 638 526 578 q 684 743 623 697 q 815 815 744 788 q 964 842 886 842 q 989 839 979 842 q 1003 833 998 837 q 1009 825 1008 829 q 1010 819 1010 821 q 1010 814 1010 816 q 1010 811 1010 812 l 1010 808 q 1043 800 1025 802 q 1076 798 1060 799 q 1107 793 1093 796 q 1133 779 1122 789 q 1151 747 1144 768 q 1157 690 1157 726 q 1151 629 1157 663 q 1136 557 1145 595 q 1116 482 1127 520 q 1093 407 1104 444 q 1073 339 1082 371 q 1059 283 1064 307 q 1050 231 1050 252 q 1055 205 1050 215 q 1072 196 1060 196 q 1122 211 1097 196 q 1170 253 1147 227 q 1214 315 1194 279 q 1249 392 1234 351 q 1272 477 1263 433 q 1280 564 1280 521 q 1252 736 1280 666 q 1173 851 1223 807 q 1055 914 1122 895 q 911 933 988 933 q 731 898 816 933 q 575 803 646 863 q 448 667 504 744 q 352 506 391 590 q 292 337 313 422 q 271 177 271 252 q 292 68 271 117 q 361 -15 313 20 q 485 -68 408 -50 q 673 -87 562 -87 q 959 -62 835 -87 q 1175 5 1084 -37 q 1204 12 1191 12 q 1223 6 1215 12 q 1237 -8 1232 1 q 1245 -28 1242 -17 q 1247 -51 1247 -39 q 1242 -84 1247 -68 q 1227 -106 1236 -100 q 1083 -174 1162 -144 q 923 -222 1005 -203 q 760 -251 841 -241 q 608 -260 678 -260 q 376 -230 475 -260 q 210 -145 276 -199 q 110 -17 143 -92 q 76 146 76 58 z "},"A":{"ha":1096,"x_min":87,"x_max":1270,"o":"m 1270 152 q 1233 118 1255 137 q 1184 80 1211 99 q 1124 42 1156 60 q 1059 9 1093 24 q 992 -13 1026 -5 q 928 -22 959 -22 q 884 -14 906 -22 q 844 13 862 -7 q 814 68 826 33 q 803 160 803 104 q 806 211 803 184 q 815 271 810 239 q 729 124 777 194 q 628 14 682 54 q 516 -46 574 -26 q 401 -66 458 -66 q 281 -44 338 -66 q 181 21 224 -22 q 112 130 138 65 q 87 305 87 195 q 102 443 87 371 q 146 588 117 515 q 217 733 176 661 q 311 870 258 805 q 427 990 364 935 q 561 1085 490 1045 q 711 1149 632 1126 q 874 1172 789 1172 q 911 1168 897 1172 q 932 1159 925 1164 q 941 1147 939 1153 q 943 1136 943 1141 q 943 1130 943 1133 q 943 1126 943 1127 l 943 1122 q 980 1109 961 1112 q 1017 1105 999 1107 q 1052 1098 1036 1103 q 1080 1077 1068 1093 q 1100 1030 1093 1061 q 1107 947 1107 1000 q 1099 856 1107 907 q 1078 749 1091 805 q 1049 637 1065 694 q 1018 526 1034 580 q 987 425 1002 473 q 962 342 972 378 q 958 287 960 313 q 957 233 957 261 q 958 198 957 212 q 962 176 959 184 q 969 164 964 168 q 981 161 974 161 q 1016 169 995 161 q 1060 187 1036 176 q 1108 212 1083 198 q 1157 240 1134 226 q 1201 265 1181 254 q 1235 284 1221 277 l 1270 152 m 949 1029 q 900 1039 925 1036 q 850 1042 874 1042 q 742 1021 795 1042 q 638 963 688 1000 q 542 878 587 927 q 456 772 496 829 q 385 654 416 715 q 330 533 353 593 q 294 415 307 472 q 282 309 282 357 q 320 138 282 191 q 439 85 359 85 q 535 106 490 85 q 618 162 580 127 q 689 251 657 196 q 746 349 722 305 q 785 434 770 393 q 808 505 801 475 l 949 1029 z "},"B":{"ha":950,"x_min":-104,"x_max":1040,"o":"m 61 902 q -18 782 17 822 q -74 742 -52 742 q -104 810 -104 742 q -85 930 -104 877 q -32 1024 -66 983 q 50 1094 3 1065 q 153 1141 97 1122 q 271 1168 209 1160 q 399 1177 334 1177 q 553 1166 476 1177 q 702 1135 631 1155 q 835 1085 773 1114 q 942 1022 897 1057 q 1014 946 988 987 q 1040 861 1040 905 q 1018 758 1040 809 q 946 666 995 707 q 822 599 898 625 q 641 570 747 572 q 758 549 708 570 q 842 491 808 528 q 893 405 876 455 q 910 302 910 354 q 899 215 910 259 q 864 130 887 171 q 806 54 841 90 q 725 -8 772 18 q 621 -50 679 -35 q 492 -65 562 -65 q 399 -59 448 -65 q 301 -44 351 -54 q 203 -20 251 -34 q 112 9 155 -7 q 78 23 93 14 q 64 57 64 33 q 70 288 64 170 q 93 521 75 406 q 140 722 111 637 q 225 888 170 808 q 313 922 273 922 q 395 866 362 922 q 342 772 364 824 q 309 681 320 721 q 288 582 297 641 q 273 467 279 523 q 268 396 270 435 q 263 319 265 357 q 260 245 261 282 q 259 174 259 208 q 259 159 259 169 q 261 140 259 150 q 265 121 262 130 q 273 109 268 113 q 362 85 315 95 q 457 76 410 76 q 569 90 515 76 q 665 134 623 104 q 733 211 707 164 q 758 332 758 258 q 743 397 758 371 q 704 441 728 423 q 649 469 680 458 q 586 488 618 479 q 523 505 554 496 q 468 525 492 513 q 429 556 444 538 q 414 605 414 575 q 416 630 414 619 q 424 647 418 640 q 443 657 431 654 q 477 661 456 661 q 531 658 507 661 q 583 656 555 656 q 700 672 648 656 q 790 715 753 688 q 847 778 827 742 q 867 856 867 814 q 851 906 867 883 q 807 946 836 928 q 741 978 779 964 q 659 1001 703 991 q 564 1014 614 1010 q 464 1019 515 1019 q 336 1013 382 1019 q 220 992 274 1006 q 124 954 166 977 q 61 902 83 931 z "},"C":{"ha":1023,"x_min":65,"x_max":1198,"o":"m 1198 229 q 1133 192 1164 215 q 1070 140 1102 168 q 1004 82 1038 113 q 930 21 970 51 q 844 -37 890 -9 q 740 -85 797 -64 q 615 -118 684 -106 q 465 -130 547 -130 q 299 -93 373 -130 q 174 6 226 -56 q 93 152 121 69 q 65 327 65 235 q 79 461 65 389 q 118 607 92 532 q 180 755 143 681 q 263 897 216 829 q 365 1022 309 964 q 484 1123 420 1080 q 616 1191 547 1166 q 762 1215 686 1215 q 861 1198 810 1215 q 951 1145 911 1181 q 1016 1054 991 1109 q 1042 924 1042 999 q 1026 823 1042 874 q 982 725 1010 772 q 917 636 954 677 q 836 565 879 595 q 745 517 792 534 q 652 499 699 499 q 559 516 590 499 q 529 564 529 532 q 529 576 529 569 q 528 592 528 584 q 530 617 528 604 q 535 642 531 631 q 547 659 539 652 q 568 666 555 666 q 583 664 576 666 q 596 659 589 661 q 614 653 604 656 q 641 651 625 651 q 729 670 684 651 q 809 724 773 689 q 867 806 844 758 q 890 911 890 854 q 882 969 890 942 q 855 1018 873 997 q 808 1051 837 1038 q 738 1063 779 1063 q 643 1042 689 1063 q 553 984 596 1021 q 472 897 511 947 q 401 790 434 847 q 343 670 369 732 q 298 547 317 608 q 270 427 280 485 q 260 320 260 369 q 278 198 260 250 q 327 112 295 146 q 405 60 359 77 q 509 43 451 43 q 643 61 581 43 q 761 109 705 79 q 870 174 817 138 q 975 248 922 211 q 1082 318 1027 285 q 1198 375 1137 352 l 1198 229 z "},"D":{"ha":950,"x_min":-83,"x_max":955,"o":"m 372 1177 q 569 1159 483 1177 q 720 1108 655 1141 q 829 1030 785 1076 q 902 932 874 985 q 942 819 930 879 q 955 697 955 760 q 936 512 955 612 q 881 330 917 412 q 792 176 845 248 q 672 51 740 104 q 523 -34 604 -3 q 347 -64 441 -64 q 282 -60 315 -64 q 218 -47 249 -55 q 159 -28 186 -39 q 110 -7 131 -18 q 96 -1 101 -5 q 88 8 91 3 q 85 20 85 13 q 84 39 84 28 q 90 270 84 152 q 113 512 96 388 q 164 732 131 637 q 252 908 197 827 q 340 928 266 928 q 422 886 397 928 q 370 792 391 844 q 335 691 349 741 q 311 582 321 641 q 294 467 293 468 q 278 336 296 465 q 268 258 271 292 q 262 200 264 225 q 260 151 260 175 q 262 109 260 126 q 270 82 264 92 q 290 67 277 72 q 326 63 303 63 q 454 90 393 63 q 567 162 515 117 q 660 267 618 207 q 729 405 701 326 q 774 552 758 483 q 789 684 789 621 q 764 825 789 763 q 691 930 738 887 q 580 996 645 973 q 437 1019 515 1019 q 324 1012 380 1019 q 220 991 268 1005 q 136 955 172 977 q 81 902 100 932 q 0 784 32 825 q -54 742 -32 742 q -83 810 -83 742 q -66 930 -83 877 q -18 1024 -49 983 q 55 1094 13 1065 q 148 1141 98 1122 q 256 1168 199 1160 q 372 1177 313 1177 z "},"E":{"ha":877,"x_min":43,"x_max":1040,"o":"m 1002 170 q 878 67 947 111 q 734 -6 809 24 q 582 -50 659 -35 q 432 -65 505 -65 q 281 -46 352 -65 q 158 11 211 -28 q 74 107 105 49 q 43 247 43 166 q 68 378 43 315 q 145 490 93 441 q 278 569 197 539 q 472 602 359 599 q 342 623 397 602 q 250 681 286 644 q 195 765 213 717 q 176 868 176 814 q 194 961 176 919 q 242 1037 212 1003 q 315 1095 273 1070 q 407 1137 357 1120 q 510 1162 456 1154 q 618 1171 564 1171 q 774 1153 698 1171 q 909 1101 850 1136 q 1004 1015 968 1067 q 1040 894 1040 963 q 1023 846 1040 869 q 983 803 1006 822 q 935 773 960 785 q 892 762 909 762 q 878 787 878 762 q 885 845 878 810 q 909 933 892 880 q 856 963 891 948 q 776 990 821 978 q 682 1010 732 1002 q 583 1018 631 1018 q 496 1010 537 1018 q 423 983 454 1002 q 373 934 391 964 q 354 859 354 903 q 367 797 354 822 q 402 754 380 772 q 453 725 425 736 q 512 705 481 714 q 572 688 543 696 q 626 670 602 680 q 668 644 651 659 q 690 607 685 629 q 693 578 692 593 q 694 550 694 564 q 680 495 694 512 q 625 477 666 477 q 581 479 607 477 q 531 481 555 481 q 425 468 477 481 q 331 426 372 454 q 264 358 290 399 q 239 264 239 318 q 253 180 239 214 q 293 125 268 146 q 353 96 319 104 q 428 87 388 87 q 529 96 476 87 q 634 122 582 106 q 737 162 687 139 q 829 211 787 184 q 905 266 872 237 q 955 323 937 294 l 1002 170 z "},"F":{"ha":950,"x_min":87,"x_max":1468,"o":"m 444 822 q 443 812 444 821 q 435 795 442 804 q 413 778 429 785 q 369 770 398 770 q 308 775 330 770 q 275 787 286 779 q 262 805 264 795 q 260 825 260 814 q 311 998 260 926 q 453 1116 361 1070 q 674 1184 545 1162 q 958 1206 802 1206 q 1174 1199 1061 1206 q 1407 1175 1286 1192 q 1454 1148 1441 1166 q 1468 1111 1468 1131 q 1464 1084 1468 1098 q 1453 1057 1460 1069 q 1433 1037 1445 1045 q 1403 1029 1420 1029 q 1397 1030 1400 1029 q 1391 1031 1394 1030 q 1295 1044 1347 1038 q 1187 1054 1244 1050 q 1071 1059 1131 1057 q 949 1061 1011 1061 q 906 1059 931 1061 q 857 1054 880 1057 q 800 1047 829 1051 q 799 1030 800 1040 q 795 1004 798 1021 q 788 960 792 987 q 779 892 785 934 q 767 791 774 850 q 752 651 760 732 l 1128 651 q 1154 645 1145 651 q 1166 628 1162 638 q 1171 607 1171 618 q 1172 586 1172 596 q 1158 537 1172 553 q 1128 521 1143 521 q 1097 520 1124 521 q 1033 517 1071 519 q 949 514 995 516 q 862 511 904 513 q 784 509 819 510 q 732 508 749 508 q 704 350 720 426 q 665 208 688 274 q 610 87 642 142 q 534 -5 578 33 q 432 -65 490 -44 q 300 -87 374 -87 q 262 -85 284 -87 q 217 -78 241 -83 q 170 -65 193 -73 q 128 -46 146 -58 q 98 -19 110 -35 q 87 16 87 -4 q 91 42 87 26 q 105 75 96 59 q 128 102 114 90 q 161 113 142 113 q 209 106 184 113 q 260 89 233 98 q 314 73 286 80 q 370 65 342 65 q 414 83 393 65 q 453 133 435 101 q 489 207 472 164 q 521 298 506 249 q 549 401 536 347 q 572 508 562 454 l 489 508 q 460 511 477 508 q 428 520 444 513 q 401 537 412 526 q 391 564 391 548 q 397 586 391 576 q 417 601 403 596 q 484 615 455 609 q 534 626 512 621 q 573 633 556 630 q 604 639 590 637 q 630 765 621 711 q 646 862 640 819 q 659 945 653 906 q 673 1027 665 983 q 571 986 614 1010 q 499 935 528 962 q 457 879 471 908 q 444 822 444 850 z "},"G":{"ha":1096,"x_min":65,"x_max":1067,"o":"m 1067 231 q 1058 68 1067 153 q 1029 -98 1049 -17 q 975 -252 1008 -180 q 892 -380 941 -325 q 778 -467 844 -435 q 629 -499 713 -499 q 591 -497 613 -499 q 546 -490 570 -495 q 499 -478 522 -486 q 457 -458 475 -470 q 427 -432 439 -447 q 416 -397 416 -416 q 420 -370 416 -387 q 434 -338 425 -353 q 457 -311 443 -322 q 490 -299 471 -299 q 534 -307 513 -299 q 577 -323 555 -314 q 624 -340 600 -332 q 677 -347 648 -347 q 740 -315 709 -347 q 798 -230 770 -282 q 848 -113 825 -178 q 886 17 871 -48 q 818 -40 854 -13 q 735 -86 781 -66 q 629 -118 688 -106 q 490 -130 569 -130 q 312 -93 399 -130 q 174 6 226 -56 q 93 152 121 69 q 65 327 65 235 q 94 556 65 447 q 174 760 123 666 q 294 930 224 854 q 443 1060 363 1006 q 611 1144 523 1114 q 787 1173 699 1173 q 887 1157 841 1173 q 968 1106 934 1141 q 1022 1019 1002 1072 q 1041 892 1041 966 q 1034 836 1041 864 q 1012 779 1027 808 q 970 734 990 747 q 931 721 949 721 q 905 728 917 721 q 884 748 892 736 q 870 775 875 760 q 865 807 865 791 q 869 832 865 820 q 877 857 873 844 q 886 882 882 869 q 890 909 890 895 q 860 1011 890 977 q 785 1045 830 1045 q 670 1022 730 1045 q 551 957 609 1000 q 440 851 492 913 q 347 707 387 788 q 284 529 307 627 q 260 320 260 432 q 278 198 260 250 q 340 112 295 146 q 431 60 385 77 q 534 43 477 43 q 732 72 642 43 q 901 153 822 101 q 911 192 907 174 q 915 227 915 211 q 909 259 915 247 q 895 276 904 271 q 873 283 886 282 q 846 285 861 285 q 801 292 821 285 q 768 309 782 298 q 748 334 755 320 q 741 363 741 349 q 748 390 741 377 q 768 414 754 404 q 802 430 781 424 q 850 437 823 437 q 959 423 916 437 q 1025 383 1001 410 q 1058 318 1049 357 q 1067 231 1067 280 z "},"H":{"ha":1461,"x_min":240,"x_max":1547,"o":"m 1219 509 q 1180 332 1208 475 q 1166 208 1166 260 q 1185 135 1166 161 q 1249 109 1204 109 q 1290 119 1266 109 q 1344 150 1314 129 q 1412 204 1375 171 q 1496 283 1450 237 q 1504 264 1498 279 q 1519 225 1510 252 q 1547 154 1529 199 q 1445 60 1496 100 q 1345 -8 1394 19 q 1252 -50 1297 -36 q 1171 -64 1208 -64 q 1091 -48 1128 -64 q 1028 -1 1055 -32 q 985 74 1001 29 q 970 175 970 118 q 974 224 970 195 q 986 292 978 254 q 1005 386 994 330 q 1031 491 1017 441 q 857 473 940 481 q 690 458 773 465 q 653 343 671 401 q 617 237 634 285 q 585 150 600 189 q 560 82 570 110 q 494 -33 513 -16 q 437 -63 462 -63 q 405 -58 420 -63 q 377 -42 389 -52 q 358 -18 365 -32 q 351 14 351 -3 q 353 35 351 25 q 418 250 378 147 q 486 444 457 352 q 414 450 448 444 q 351 470 380 456 q 299 509 321 484 q 261 573 276 534 q 257 595 258 585 q 255 614 255 604 q 276 644 255 644 q 304 630 289 644 q 345 585 320 616 q 408 587 376 587 q 477 588 440 588 l 542 588 q 589 709 566 651 q 629 825 616 785 q 648 897 641 861 q 654 965 654 932 q 650 1014 654 991 q 634 1052 645 1036 q 606 1076 623 1067 q 564 1085 589 1085 q 517 1078 544 1085 q 458 1056 490 1072 q 387 1016 425 1041 q 304 955 349 991 q 275 937 288 942 q 251 931 262 931 q 243 949 245 931 q 240 994 240 967 q 257 1061 240 1029 q 301 1119 273 1093 q 365 1168 329 1146 q 440 1205 401 1190 q 516 1229 478 1221 q 586 1237 554 1237 q 677 1224 633 1237 q 753 1183 720 1211 q 805 1109 786 1154 q 825 998 825 1063 q 818 924 825 968 q 798 827 810 880 q 769 715 786 774 q 734 594 753 656 q 891 604 804 599 q 1067 613 979 608 q 1143 847 1101 726 q 1232 1085 1185 968 q 1273 1147 1247 1124 q 1333 1170 1298 1170 q 1360 1166 1347 1170 q 1383 1153 1373 1162 q 1399 1132 1394 1145 q 1405 1101 1405 1118 q 1403 1064 1405 1085 q 1392 1020 1401 1044 q 1359 930 1377 978 q 1323 832 1341 882 q 1288 728 1305 781 q 1253 623 1270 675 q 1328 628 1296 626 q 1376 632 1360 631 q 1390 633 1383 633 q 1402 633 1396 633 q 1435 629 1422 633 q 1454 618 1447 625 q 1464 600 1461 610 q 1467 577 1467 590 q 1461 553 1467 563 q 1446 538 1455 544 q 1426 530 1436 532 q 1407 527 1416 528 q 1380 524 1388 525 q 1369 523 1372 523 q 1364 522 1365 522 q 1359 521 1363 522 q 1345 520 1355 521 q 1314 517 1335 519 q 1266 513 1289 515 q 1219 509 1242 511 z "},"I":{"ha":585,"x_min":-68,"x_max":783,"o":"m 210 952 q 207 951 210 952 q 203 975 205 951 q 201 1040 201 999 q 209 1061 201 1048 q 234 1089 216 1074 q 280 1119 252 1104 q 353 1146 309 1134 q 456 1166 397 1158 q 593 1173 515 1173 q 698 1167 661 1173 q 755 1150 736 1160 q 778 1125 774 1139 q 783 1097 783 1112 q 779 1068 783 1082 q 762 1043 776 1054 q 719 1025 747 1031 q 641 1018 690 1018 q 596 1020 618 1018 q 563 888 577 946 q 537 780 549 829 q 516 688 526 731 q 497 600 507 644 q 476 508 487 556 q 451 401 465 460 q 419 271 437 343 q 376 106 400 199 q 394 105 380 106 q 428 100 409 104 q 468 92 447 97 q 507 78 490 86 q 536 59 525 70 q 548 34 548 48 q 499 -22 548 5 q 453 -22 485 -22 q 379 -22 422 -22 q 287 -22 336 -22 q 188 -22 237 -22 q 92 -22 138 -22 q 10 -21 45 -22 q -46 -20 -25 -21 q -68 -18 -68 -20 q -61 -12 -68 -16 q -47 0 -55 -7 q -31 20 -39 8 q -22 48 -24 31 q 1 70 -20 60 q 54 89 23 81 q 118 103 84 98 q 179 111 153 109 q 221 288 200 199 q 263 462 243 377 q 304 627 284 547 q 343 777 324 707 q 380 905 362 846 q 413 1006 397 963 q 369 1001 388 1004 q 335 995 350 998 q 307 987 320 991 q 279 978 294 983 q 249 967 265 973 q 210 952 232 960 z "},"J":{"ha":1316,"x_min":391,"x_max":1519,"o":"m 391 -174 q 426 13 391 -82 q 525 194 460 109 q 680 346 589 279 q 883 447 771 412 q 775 545 825 494 q 688 651 725 597 q 629 759 650 705 q 608 868 608 814 q 623 1000 608 937 q 665 1115 638 1062 q 728 1212 692 1168 q 807 1285 765 1255 q 895 1331 849 1315 q 987 1348 941 1348 q 1104 1316 1048 1348 q 1205 1217 1161 1285 q 1276 1042 1249 1149 q 1302 781 1302 934 q 1294 571 1302 671 q 1272 381 1286 472 q 1355 331 1313 355 q 1441 282 1398 307 q 1463 269 1450 277 q 1489 253 1476 262 q 1510 236 1501 245 q 1519 221 1519 228 q 1513 208 1519 214 q 1500 196 1508 201 q 1484 186 1492 190 q 1472 180 1476 182 q 1442 174 1461 174 q 1353 189 1404 174 q 1242 229 1302 203 q 1170 -1 1212 103 q 1079 -188 1128 -105 q 974 -332 1029 -271 q 862 -434 919 -393 q 750 -495 806 -475 q 642 -515 694 -515 q 543 -494 589 -515 q 463 -429 497 -472 q 410 -322 429 -386 q 391 -174 391 -258 m 564 -217 q 591 -322 564 -286 q 662 -357 618 -357 q 763 -318 707 -357 q 877 -196 820 -279 q 986 13 934 -114 q 1074 315 1038 140 l 1048 330 q 917 283 979 317 q 800 203 854 250 q 703 102 746 157 q 628 -9 659 47 q 581 -120 597 -66 q 564 -217 564 -174 m 781 911 q 805 804 781 857 q 871 697 829 750 q 973 593 914 645 q 1103 492 1032 542 q 1122 690 1115 586 q 1128 911 1128 794 q 1118 1047 1128 991 q 1091 1137 1108 1102 q 1050 1186 1074 1171 q 1001 1202 1027 1202 q 950 1190 976 1202 q 900 1156 924 1177 q 854 1106 876 1135 q 816 1045 832 1078 q 791 979 800 1013 q 781 911 781 945 z "},"K":{"ha":1316,"x_min":84,"x_max":1550,"o":"m 832 1015 q 820 896 825 956 q 811 785 815 835 q 803 673 806 727 q 933 677 873 673 q 1040 694 992 681 q 1125 732 1088 707 q 1187 798 1162 757 q 1224 899 1212 839 q 1237 1042 1237 958 q 1237 1096 1237 1076 q 1245 1126 1238 1116 q 1270 1142 1252 1137 q 1324 1150 1288 1147 q 1367 1143 1350 1150 q 1393 1126 1383 1136 q 1405 1105 1402 1116 q 1409 1088 1408 1095 q 1410 1047 1410 1072 q 1411 1000 1409 1021 q 1401 860 1411 923 q 1368 745 1391 796 q 1308 656 1345 694 q 1215 593 1270 618 q 1084 555 1159 568 q 911 543 1009 543 q 993 349 991 351 q 1085 159 1033 273 q 1152 76 1107 113 q 1227 47 1185 47 q 1284 55 1253 47 q 1348 75 1316 62 q 1412 106 1380 88 q 1471 146 1444 125 l 1550 14 q 1537 6 1550 14 q 1501 -16 1524 -3 q 1446 -44 1478 -29 q 1377 -73 1415 -60 q 1296 -96 1339 -87 q 1210 -104 1254 -104 q 1123 -89 1161 -104 q 1056 -47 1086 -74 q 990 42 1027 -21 q 934 145 954 104 q 893 233 914 186 q 852 323 871 280 q 810 405 833 366 q 760 477 788 445 q 675 240 724 339 q 568 79 627 142 q 440 -14 509 16 q 294 -43 371 -43 q 232 -40 268 -43 q 163 -28 196 -37 q 107 -7 130 -20 q 84 24 84 5 q 93 58 84 43 q 111 89 102 73 q 119 101 113 94 q 134 116 125 109 q 151 128 142 123 q 170 133 161 133 q 176 132 174 133 q 224 115 200 121 q 271 109 248 109 q 381 146 332 109 q 470 248 431 183 q 539 399 509 312 q 592 586 570 486 q 630 794 614 686 q 657 1007 646 901 l 665 1063 q 557 1049 606 1063 q 471 1010 509 1035 q 406 954 433 986 q 360 886 378 922 q 334 814 342 851 q 326 744 326 777 q 323 732 326 741 q 312 716 321 724 q 287 701 304 707 q 241 694 271 694 q 181 701 203 694 q 148 717 159 708 q 134 736 137 726 q 130 753 130 747 l 130 760 q 131 762 130 761 q 179 919 142 853 q 269 1031 216 985 q 388 1104 323 1076 q 517 1147 452 1132 q 643 1167 583 1162 q 749 1172 704 1172 q 792 1166 776 1172 q 819 1150 809 1160 q 831 1129 828 1141 q 835 1107 835 1118 q 834 1057 835 1079 q 832 1015 834 1035 z "},"L":{"ha":658,"x_min":-123,"x_max":803,"o":"m -106 222 q -76 242 -97 228 q -26 275 -55 256 q 35 316 2 294 q 100 362 68 339 l 105 408 q 153 670 120 551 q 232 885 186 789 q 330 1053 277 981 q 438 1173 383 1124 q 548 1245 494 1221 q 648 1270 602 1270 q 711 1257 682 1270 q 760 1218 739 1244 q 791 1154 780 1192 q 803 1063 803 1115 q 784 931 803 1000 q 730 791 765 862 q 646 651 695 721 q 538 515 597 581 q 410 392 479 450 q 267 289 341 334 q 264 190 267 248 q 263 153 264 165 q 263 136 263 140 q 263 128 263 131 q 266 117 263 122 q 275 109 268 112 q 294 104 282 106 q 327 102 307 102 q 409 117 357 102 l 636 182 q 647 184 640 184 q 657 185 652 185 q 686 179 674 185 q 707 161 699 172 q 719 136 715 151 q 723 107 723 122 q 719 81 723 94 q 707 57 715 68 q 686 37 699 45 q 658 26 674 29 q 522 -21 591 0 q 459 -38 492 -30 q 392 -53 427 -47 q 323 -64 358 -60 q 256 -68 288 -68 q 173 -51 205 -68 q 122 -4 141 -33 q 96 81 104 26 q 89 180 89 137 q -10 113 31 138 q -62 87 -51 87 q -84 95 -74 87 q -104 116 -95 103 q -118 145 -113 129 q -123 176 -123 161 q -120 202 -123 189 q -106 222 -117 214 m 279 460 q 352 538 314 496 q 426 627 389 581 q 497 722 463 673 q 559 819 532 770 q 605 912 587 867 q 629 998 624 958 q 632 1024 631 1012 q 633 1048 633 1037 q 622 1104 633 1086 q 593 1122 612 1122 q 543 1099 572 1122 q 481 1034 513 1076 q 417 932 450 992 q 357 800 385 873 q 308 640 329 726 q 279 460 288 554 z "},"M":{"ha":1461,"x_min":-38,"x_max":1632,"o":"m 298 66 q 286 33 296 46 q 261 13 275 20 q 231 2 247 5 q 199 -1 214 -1 q 165 3 182 -1 q 136 15 149 7 q 115 34 123 22 q 108 59 108 45 q 111 110 108 87 q 119 157 113 134 q 152 305 138 237 q 176 434 166 373 q 194 552 186 495 q 207 668 201 610 q 218 787 213 726 q 228 920 222 849 q 228 935 228 926 q 226 953 228 945 q 219 968 224 962 q 203 974 214 974 q 164 963 187 974 q 115 932 140 951 q 63 888 89 913 q 16 833 37 863 q 3 819 12 823 q -17 814 -6 814 q -24 820 -20 814 q -31 834 -28 826 q -36 851 -34 842 q -38 868 -38 861 q -35 875 -38 872 q 20 1009 -11 955 q 85 1095 51 1063 q 155 1141 119 1127 q 223 1154 191 1154 q 293 1138 265 1154 q 337 1094 321 1122 q 360 1024 353 1065 q 366 934 366 983 q 360 845 366 896 q 345 738 354 794 q 325 626 336 682 q 304 521 314 570 q 355 694 326 611 q 419 849 385 777 q 494 980 454 922 q 575 1081 533 1039 q 659 1146 616 1123 q 744 1169 702 1169 q 802 1156 775 1169 q 847 1114 828 1142 q 877 1042 866 1085 q 887 939 887 998 q 886 922 887 933 q 883 895 885 910 q 879 863 882 880 q 875 829 877 846 q 863 741 869 788 l 878 741 q 943 922 904 842 q 1029 1058 981 1002 q 1133 1143 1078 1114 q 1249 1173 1189 1173 q 1322 1149 1290 1173 q 1376 1083 1354 1124 q 1409 985 1398 1041 q 1421 867 1421 929 q 1413 747 1421 808 q 1394 626 1405 686 q 1369 508 1382 566 q 1344 399 1356 450 q 1325 303 1333 347 q 1317 228 1317 260 q 1332 170 1317 188 q 1374 152 1346 152 q 1407 160 1390 152 q 1441 183 1424 169 q 1476 215 1459 197 q 1508 252 1493 233 q 1579 351 1544 295 q 1586 337 1579 351 q 1601 298 1590 326 q 1632 218 1612 270 q 1562 117 1598 158 q 1489 49 1526 75 q 1413 12 1451 23 q 1337 0 1375 0 q 1265 13 1300 0 q 1203 51 1230 26 q 1160 114 1176 77 q 1143 201 1143 152 q 1144 212 1143 206 q 1145 224 1144 218 q 1156 321 1147 270 q 1176 427 1165 372 q 1200 537 1187 481 q 1222 649 1212 593 q 1239 760 1232 705 q 1246 865 1246 814 q 1244 920 1246 895 q 1236 962 1242 945 q 1218 989 1230 979 q 1187 998 1206 998 q 1120 973 1152 998 q 1059 904 1088 948 q 1006 800 1031 860 q 959 669 981 739 q 918 522 937 599 q 883 367 899 445 q 852 213 867 289 q 826 69 838 137 q 809 37 821 50 q 784 16 798 24 q 753 4 769 7 q 720 0 736 0 q 692 5 706 0 q 668 23 678 11 q 651 53 657 35 q 644 98 644 71 q 652 158 644 115 q 673 261 661 201 q 700 393 686 321 q 727 539 715 465 q 748 686 740 613 q 756 819 756 758 q 754 895 756 861 q 745 951 752 928 q 723 986 737 974 q 686 998 709 998 q 643 972 667 998 q 590 901 618 947 q 532 794 562 856 q 473 662 503 733 q 416 513 444 591 q 366 358 389 435 q 325 206 342 280 q 298 66 307 132 z "},"N":{"ha":1096,"x_min":-28,"x_max":1318,"o":"m 311 516 q 403 757 357 654 q 492 933 448 860 q 577 1052 536 1006 q 657 1125 618 1099 q 732 1162 696 1152 q 802 1172 768 1172 q 869 1153 842 1172 q 915 1104 897 1134 q 941 1038 933 1074 q 949 968 949 1002 q 943 877 949 927 q 927 772 937 827 q 906 657 918 716 q 885 539 895 597 q 869 424 876 480 q 863 317 863 367 q 864 280 863 300 q 868 240 865 260 q 878 199 871 219 q 896 164 884 180 q 923 139 907 149 q 963 130 940 130 q 1032 146 996 130 q 1103 187 1068 162 q 1170 240 1138 212 q 1225 294 1201 269 q 1263 335 1249 319 q 1277 353 1277 352 l 1318 205 q 1268 148 1296 176 q 1208 93 1240 119 q 1141 45 1177 67 q 1068 7 1105 23 q 993 -19 1031 -9 q 919 -28 956 -28 q 836 -12 871 -28 q 773 33 800 5 q 730 97 747 60 q 702 176 712 134 q 687 260 691 217 q 682 342 682 302 q 691 446 682 395 q 711 546 699 497 q 739 642 724 595 q 766 733 753 689 q 786 820 778 778 q 795 900 795 861 q 793 927 795 910 q 788 960 792 944 q 774 987 783 975 q 748 998 764 998 q 692 973 721 998 q 633 903 663 947 q 572 797 603 858 q 512 664 542 735 q 452 515 481 593 q 395 358 422 437 q 342 202 368 279 q 294 58 316 125 q 250 6 275 21 q 195 -9 225 -9 q 160 -2 177 -9 q 131 20 144 5 q 111 56 118 35 q 103 104 103 77 q 106 156 103 133 q 114 203 109 179 q 145 346 131 280 q 172 471 160 412 q 194 587 184 531 q 212 700 204 643 q 227 816 220 756 q 237 943 233 876 q 237 959 237 949 q 235 977 237 968 q 228 991 233 985 q 213 998 223 998 q 180 985 199 998 q 140 949 161 972 q 98 896 119 926 q 59 830 77 865 q 46 815 55 820 q 26 811 37 811 q 8 817 18 811 q -9 831 -1 823 q -23 848 -18 839 q -28 865 -28 857 q -26 871 -28 869 q 25 1001 -3 948 q 86 1087 54 1055 q 152 1135 119 1120 q 217 1150 185 1150 q 298 1136 265 1150 q 351 1095 331 1121 q 380 1032 372 1069 q 389 951 389 996 q 382 854 389 906 q 361 748 374 803 q 332 635 349 692 q 299 520 316 577 l 311 516 z "},"O":{"ha":1096,"x_min":65,"x_max":1107,"o":"m 503 -130 q 321 -89 402 -130 q 183 27 240 -47 q 96 204 126 101 q 65 429 65 307 q 75 563 65 494 q 103 700 84 631 q 152 833 123 768 q 219 957 180 899 q 304 1064 257 1015 q 409 1149 352 1114 q 533 1205 467 1185 q 675 1225 599 1225 q 857 1188 777 1225 q 992 1086 937 1152 q 1077 929 1048 1020 q 1107 728 1107 838 q 1089 538 1107 637 q 1036 344 1071 439 q 950 163 1002 249 q 831 12 899 77 q 682 -92 764 -54 q 503 -130 600 -130 m 519 35 q 621 56 574 35 q 706 114 667 77 q 778 200 745 151 q 835 305 810 249 q 879 422 860 361 q 909 541 897 482 q 927 655 922 600 q 933 754 933 709 q 919 877 933 819 q 876 976 905 934 q 803 1043 847 1019 q 701 1067 760 1067 q 581 1037 639 1067 q 471 956 522 1007 q 376 837 419 905 q 303 695 334 770 q 256 543 273 621 q 239 395 239 466 q 258 253 239 319 q 314 138 277 186 q 402 63 350 90 q 519 35 454 35 z "},"P":{"ha":950,"x_min":61,"x_max":1107,"o":"m 650 1236 q 849 1205 764 1236 q 992 1123 935 1175 q 1078 1006 1049 1072 q 1107 868 1107 939 q 1081 736 1107 802 q 1003 616 1055 671 q 872 522 951 562 q 687 465 793 481 q 684 374 685 416 q 682 339 683 357 q 681 307 682 321 q 681 281 681 292 q 680 267 680 271 q 669 168 679 219 q 641 68 659 117 q 595 -25 622 19 q 533 -101 568 -68 q 453 -154 497 -134 q 357 -173 409 -173 q 257 -144 301 -173 q 181 -66 214 -115 q 125 46 148 -18 q 88 179 102 110 q 67 319 74 249 q 61 452 61 390 q 81 659 61 559 q 137 846 100 759 q 226 1005 174 933 q 343 1128 278 1077 q 486 1208 409 1180 q 650 1236 563 1236 m 243 470 q 243 395 243 442 q 247 294 243 348 q 258 186 250 241 q 280 86 265 131 q 316 14 294 42 q 372 -14 338 -14 q 431 10 406 -14 q 471 72 455 34 q 497 159 488 111 q 511 256 507 208 q 517 350 516 305 q 519 425 519 394 l 519 457 q 430 496 463 479 q 382 529 398 513 q 361 562 366 545 q 357 602 357 579 q 357 626 357 614 q 361 647 358 638 q 370 662 364 656 q 386 668 376 668 q 398 665 393 668 q 413 658 404 663 q 454 638 435 646 q 485 625 472 630 q 512 617 500 620 q 512 652 512 626 q 516 712 513 678 q 529 782 520 745 q 555 849 538 819 q 599 900 572 880 q 666 920 626 920 q 691 917 678 920 q 714 908 704 915 q 732 891 725 902 q 739 863 739 880 q 739 857 739 859 q 739 852 739 855 l 697 678 l 691 625 q 806 657 758 635 q 885 710 854 680 q 932 777 917 741 q 947 852 947 814 q 933 930 947 890 q 882 1002 918 970 q 786 1056 846 1035 q 634 1077 726 1077 q 510 1051 566 1077 q 411 980 454 1025 q 336 876 368 935 q 283 748 304 816 q 253 609 262 681 q 243 470 243 538 z "},"Q":{"ha":1023,"x_min":65,"x_max":1107,"o":"m 1107 722 q 1093 554 1107 642 q 1051 378 1079 465 q 979 209 1023 290 q 877 63 936 127 q 743 -45 818 -2 q 576 -100 668 -89 q 633 -162 608 -132 q 682 -215 658 -192 q 731 -253 705 -239 q 790 -267 757 -267 q 853 -250 823 -267 q 909 -213 884 -233 q 965 -158 939 -189 q 979 -152 972 -153 q 990 -151 986 -151 q 1020 -165 1008 -155 q 1039 -189 1032 -175 q 1049 -219 1046 -203 q 1053 -249 1053 -235 q 1049 -274 1053 -267 q 1042 -284 1045 -281 q 1029 -297 1041 -285 q 997 -326 1018 -309 q 948 -365 977 -344 q 884 -402 919 -385 q 809 -431 849 -420 q 727 -443 770 -443 q 640 -423 675 -443 q 578 -373 604 -404 q 536 -304 553 -342 q 506 -231 519 -267 q 480 -164 492 -195 q 452 -119 468 -134 q 275 -50 349 -100 q 155 73 202 0 q 87 236 109 145 q 65 426 65 327 q 82 616 65 518 q 134 806 100 713 q 219 981 168 899 q 338 1125 271 1063 q 491 1223 406 1187 q 675 1259 575 1259 q 857 1220 777 1259 q 992 1111 937 1181 q 1077 942 1048 1041 q 1107 722 1107 842 m 519 43 q 615 65 571 43 q 697 123 660 86 q 765 209 734 159 q 819 316 795 259 q 860 433 842 372 q 889 553 878 494 q 906 668 901 612 q 911 768 911 723 q 898 911 911 845 q 857 1026 884 977 q 787 1101 829 1074 q 688 1128 745 1128 q 576 1097 630 1128 q 474 1010 522 1065 q 387 885 427 956 q 320 734 348 814 q 276 573 292 655 q 260 416 260 491 q 278 268 260 336 q 329 150 296 199 q 410 72 362 100 q 519 43 458 43 z "},"R":{"ha":1169,"x_min":43,"x_max":1381,"o":"m 1237 857 q 1226 788 1237 824 q 1193 717 1215 752 q 1136 650 1171 682 q 1052 591 1101 617 q 941 548 1003 566 q 800 526 878 531 q 880 481 848 509 q 933 419 911 453 q 967 347 954 385 q 988 272 979 309 q 1004 202 997 235 q 1021 143 1011 168 q 1046 102 1031 117 q 1086 87 1061 87 q 1136 95 1109 87 q 1193 117 1164 102 q 1250 151 1221 131 q 1302 194 1278 170 l 1381 61 q 1368 53 1381 62 q 1332 30 1355 43 q 1277 -1 1309 16 q 1208 -32 1246 -18 q 1127 -56 1170 -46 q 1041 -65 1085 -65 q 957 -41 991 -65 q 897 24 922 -16 q 857 115 873 64 q 828 220 840 166 q 805 325 816 273 q 782 416 795 376 q 751 480 769 456 q 707 505 734 505 l 665 505 q 631 238 651 356 q 577 39 610 121 q 493 -87 543 -43 q 369 -130 442 -130 q 270 -110 315 -130 q 188 -53 224 -89 q 125 31 152 -17 q 80 135 98 79 q 53 249 62 190 q 43 366 43 308 q 70 572 43 471 q 145 762 96 673 q 264 927 194 852 q 421 1056 334 1002 q 611 1141 508 1111 q 828 1172 713 1172 q 929 1162 879 1172 q 1025 1135 979 1153 q 1109 1089 1070 1116 q 1176 1027 1148 1062 q 1221 949 1204 992 q 1237 857 1237 907 m 816 1020 q 616 989 704 1020 q 462 905 528 958 q 349 782 395 852 q 273 635 302 712 q 230 480 243 559 q 217 330 217 401 q 227 220 217 275 q 256 121 236 165 q 309 49 277 77 q 387 22 341 22 q 427 40 410 22 q 458 88 445 58 q 482 158 472 118 q 499 240 492 197 q 510 326 506 283 q 516 408 514 370 q 519 475 519 446 q 520 520 520 505 q 440 567 467 545 q 412 617 412 589 q 413 633 412 624 q 418 651 414 643 q 428 665 421 659 q 445 671 434 671 q 464 669 450 671 q 494 665 478 667 q 523 661 509 663 q 540 659 536 659 l 541 673 q 543 703 541 684 q 549 744 545 722 q 561 788 553 766 q 581 828 568 810 q 612 857 594 846 q 656 868 630 868 q 701 853 690 868 q 712 814 712 838 l 712 808 q 704 740 711 782 q 691 642 697 697 q 873 664 802 644 q 987 714 945 684 q 1046 781 1029 745 q 1063 851 1063 817 q 1047 915 1063 884 q 1000 969 1031 945 q 923 1006 969 992 q 816 1020 877 1020 z "},"S":{"ha":1169,"x_min":172,"x_max":1141,"o":"m 497 890 q 523 810 497 845 q 592 744 549 774 q 690 687 635 714 q 802 631 745 660 q 914 569 859 602 q 1011 495 968 536 q 1081 401 1055 454 q 1107 282 1107 349 q 1087 170 1107 221 q 1033 78 1067 119 q 952 6 999 37 q 851 -45 905 -25 q 737 -76 797 -66 q 617 -87 677 -87 q 452 -66 532 -87 q 310 -4 372 -45 q 210 101 248 38 q 172 248 172 163 q 186 324 172 291 q 221 379 200 357 q 266 412 241 401 q 311 423 290 423 q 348 411 333 423 q 362 374 362 399 q 359 350 362 363 q 354 322 357 337 q 348 288 351 307 q 345 248 345 270 q 367 166 345 201 q 425 109 389 132 q 507 76 460 87 q 604 65 554 65 q 722 79 663 65 q 828 121 781 94 q 904 190 875 149 q 933 282 933 230 q 907 368 933 330 q 838 438 881 406 q 740 499 795 471 q 628 557 685 528 q 516 618 571 586 q 418 689 461 650 q 349 775 375 728 q 323 884 323 823 q 350 997 323 941 q 433 1096 378 1052 q 571 1166 488 1139 q 765 1194 654 1194 q 903 1173 836 1194 q 1023 1113 970 1152 q 1108 1021 1076 1074 q 1141 902 1141 967 q 1127 823 1141 863 q 1085 738 1114 782 q 1023 674 1057 695 q 962 654 989 654 q 929 666 942 654 q 916 701 916 677 q 924 743 916 719 q 952 798 932 767 q 979 854 970 828 q 988 903 988 880 q 969 963 988 937 q 918 1007 951 989 q 839 1034 885 1025 q 738 1042 793 1042 q 632 1028 677 1042 q 556 992 587 1015 q 512 943 526 970 q 497 890 497 916 z "},"T":{"ha":1023,"x_min":135,"x_max":1353,"o":"m 135 902 q 158 1001 135 959 q 224 1074 182 1044 q 326 1123 267 1103 q 456 1153 385 1142 q 609 1168 528 1164 q 777 1172 690 1172 q 1024 1162 895 1172 q 1294 1128 1154 1153 q 1340 1103 1326 1121 q 1353 1064 1353 1086 q 1347 1038 1353 1050 q 1331 1014 1341 1025 q 1307 997 1320 1003 q 1278 990 1293 990 q 1170 996 1226 990 q 1052 1008 1113 1001 q 925 1021 990 1015 q 791 1031 860 1028 q 760 868 779 956 q 718 689 741 781 q 670 508 695 598 q 623 335 646 417 q 579 182 600 252 q 547 62 559 113 q 530 20 541 39 q 505 -14 519 1 q 476 -36 491 -28 q 448 -43 461 -43 q 385 -25 410 -43 q 359 34 359 -7 q 363 62 359 47 q 387 184 372 124 q 421 308 401 243 q 466 446 441 373 q 522 605 491 518 q 588 798 552 692 q 665 1031 623 903 q 592 1025 629 1029 q 520 1016 555 1022 q 455 1002 485 1010 q 402 979 425 993 q 366 947 379 966 q 353 902 353 928 q 351 887 353 901 q 339 858 349 873 q 307 828 329 842 q 244 815 285 815 q 181 829 203 815 q 149 859 159 842 q 135 902 136 878 z "},"U":{"ha":950,"x_min":65,"x_max":1042,"o":"m 846 1063 q 859 1119 848 1098 q 887 1152 870 1140 q 924 1168 903 1164 q 965 1172 945 1172 q 998 1168 983 1172 q 1022 1153 1012 1164 q 1037 1125 1031 1143 q 1042 1080 1042 1107 q 1019 731 1042 892 q 956 438 997 570 q 859 204 916 306 q 733 33 802 102 q 585 -73 664 -37 q 420 -109 505 -109 q 250 -67 319 -109 q 141 43 182 -26 q 82 205 100 113 q 65 399 65 297 q 76 562 65 479 q 102 723 86 645 q 139 872 119 802 q 180 998 160 942 q 207 1059 193 1038 q 233 1092 220 1081 q 258 1104 245 1102 q 285 1107 271 1107 q 331 1104 311 1107 q 364 1095 351 1102 q 385 1076 378 1088 q 391 1042 391 1063 l 391 1037 q 389 1019 390 1029 q 385 998 389 1010 q 363 931 377 973 q 333 834 349 888 q 300 716 317 779 q 269 587 283 653 q 247 455 256 521 q 239 331 239 390 q 249 217 239 270 q 283 126 259 165 q 346 65 307 87 q 441 43 385 43 q 525 67 486 43 q 600 135 565 92 q 666 240 635 179 q 722 374 696 301 q 769 531 748 448 q 805 702 789 614 q 831 882 821 791 q 846 1063 842 974 z "},"V":{"ha":730,"x_min":21,"x_max":899,"o":"m 62 326 q 60 349 62 327 q 55 409 58 372 q 48 495 52 446 q 41 596 45 543 q 34 705 37 650 q 27 811 30 760 q 23 904 24 861 q 21 974 21 946 q 32 1038 21 1015 q 57 1070 42 1060 q 88 1083 72 1081 q 117 1084 104 1084 q 158 1078 142 1084 q 183 1058 174 1071 q 195 1025 192 1044 q 199 983 199 1006 l 229 176 l 670 1024 q 686 1055 675 1040 q 714 1081 698 1070 q 750 1099 730 1093 q 791 1105 770 1105 q 829 1084 815 1105 q 843 1028 843 1063 q 830 963 843 1004 q 796 871 817 922 q 746 762 774 821 q 687 644 718 704 q 624 524 656 583 q 564 412 593 465 q 552 380 556 397 q 548 346 548 363 q 558 296 548 320 q 590 252 568 271 q 644 222 611 233 q 722 211 677 211 q 746 216 733 211 q 774 228 760 220 q 803 246 788 236 q 832 267 818 256 q 899 322 865 291 l 884 182 q 771 110 827 137 q 667 83 715 83 q 585 96 621 83 q 524 132 549 109 q 486 187 499 155 q 473 260 473 220 q 477 304 473 280 q 402 148 437 210 q 335 47 368 85 q 272 -6 302 9 q 212 -22 241 -22 q 145 -9 171 -22 q 104 29 119 5 q 82 86 89 53 q 72 158 75 119 q 67 239 68 197 q 62 326 66 282 z "},"W":{"ha":1608,"x_min":260,"x_max":1784,"o":"m 586 1046 q 575 978 586 1023 q 547 873 564 932 q 510 745 530 814 q 473 605 490 676 q 445 465 456 534 q 434 337 434 396 q 440 247 434 289 q 460 175 447 205 q 494 126 474 144 q 543 109 515 109 q 596 125 570 109 q 647 170 623 141 q 694 237 671 198 q 737 322 716 277 q 776 419 758 368 q 810 521 794 469 q 911 934 867 703 q 931 996 920 971 q 958 1036 942 1021 q 994 1057 973 1051 q 1042 1063 1015 1063 q 1084 1059 1067 1063 q 1111 1046 1101 1054 q 1124 1026 1120 1038 q 1128 1000 1128 1015 q 1123 961 1128 996 q 1109 871 1118 926 q 1091 747 1101 817 q 1073 605 1081 678 q 1059 461 1064 532 q 1053 330 1053 390 q 1058 220 1053 269 q 1073 136 1062 171 q 1100 83 1083 102 q 1142 65 1117 65 q 1221 99 1185 65 q 1286 190 1257 133 q 1339 321 1316 246 q 1380 477 1362 395 q 1412 641 1398 558 q 1434 797 1425 724 q 1448 929 1442 871 q 1455 1021 1453 988 q 1467 1077 1457 1056 q 1494 1109 1478 1098 q 1531 1125 1510 1121 q 1573 1128 1552 1128 q 1604 1125 1590 1128 q 1628 1112 1618 1121 q 1644 1087 1638 1103 q 1649 1048 1649 1072 q 1641 906 1649 983 q 1620 753 1632 830 q 1593 604 1607 677 q 1566 473 1578 532 q 1545 375 1553 415 q 1536 324 1536 335 q 1544 279 1536 298 q 1564 248 1551 260 q 1593 231 1576 236 q 1630 225 1611 225 q 1671 234 1650 225 q 1710 260 1691 243 q 1745 299 1729 276 q 1772 349 1761 321 l 1784 209 q 1680 118 1733 151 q 1580 85 1627 85 q 1538 92 1558 85 q 1503 114 1518 99 q 1478 153 1488 129 q 1463 209 1468 176 q 1391 95 1430 146 q 1308 9 1352 45 q 1216 -46 1264 -26 q 1118 -65 1168 -65 q 1008 -31 1053 -65 q 935 61 963 3 q 894 198 907 119 q 881 366 881 277 q 884 427 881 398 q 890 477 888 455 q 828 219 865 323 q 742 52 791 115 q 628 -38 692 -12 q 486 -65 564 -65 q 400 -36 441 -65 q 329 52 359 -6 q 279 198 298 111 q 260 404 260 286 q 269 551 260 475 q 292 703 277 627 q 330 853 307 779 q 380 998 352 928 q 414 1060 397 1038 q 449 1092 431 1082 q 485 1105 467 1103 q 521 1107 503 1107 q 548 1105 536 1107 q 569 1096 560 1103 q 582 1078 577 1090 q 586 1046 586 1066 z "},"X":{"ha":1169,"x_min":178,"x_max":1345,"o":"m 642 633 q 629 712 637 671 q 611 794 622 753 q 585 872 600 835 q 549 937 570 909 q 502 982 528 965 q 441 998 475 998 q 423 986 437 998 q 391 952 409 974 q 353 903 373 931 q 317 844 334 875 q 297 823 307 823 q 284 832 290 823 q 273 856 278 842 q 265 888 269 870 q 259 922 261 905 q 255 952 256 939 q 254 974 254 966 q 267 1061 254 1024 q 305 1123 281 1099 q 362 1160 330 1147 q 434 1172 395 1172 q 503 1166 468 1172 q 573 1146 538 1161 q 641 1102 608 1131 q 704 1027 674 1074 q 759 915 734 981 q 804 757 785 848 q 874 856 837 807 q 950 950 911 905 q 1026 1033 988 995 q 1098 1100 1064 1072 q 1162 1144 1133 1128 q 1215 1160 1192 1160 q 1253 1144 1236 1160 q 1283 1104 1271 1129 q 1303 1048 1296 1080 q 1310 983 1310 1016 q 1274 885 1310 918 q 1181 852 1238 852 q 1171 860 1174 852 q 1168 880 1168 868 q 1167 905 1167 891 q 1167 930 1168 919 q 1164 950 1166 942 q 1155 958 1161 958 q 1122 944 1141 958 q 1079 905 1103 930 q 1028 848 1055 881 q 971 776 1000 814 q 912 695 942 737 q 854 611 883 653 q 890 460 876 530 q 916 335 905 391 q 939 237 928 279 q 964 166 949 195 q 1001 122 979 137 q 1055 108 1022 108 q 1147 149 1096 108 q 1258 282 1198 189 q 1281 292 1268 292 q 1304 285 1293 292 q 1325 266 1316 277 q 1340 239 1334 254 q 1345 210 1345 224 q 1331 174 1345 189 q 1240 80 1286 121 q 1151 12 1194 39 q 1067 -30 1107 -16 q 995 -43 1027 -43 q 926 -36 957 -43 q 871 -8 896 -28 q 824 48 846 12 q 783 139 803 83 q 743 272 763 194 q 701 455 724 350 q 564 250 628 345 q 509 168 537 209 q 457 90 481 126 q 412 24 432 53 q 381 -21 393 -5 q 335 -57 365 -43 q 271 -71 304 -71 q 201 -52 224 -71 q 178 -3 178 -33 q 210 74 178 33 q 251 125 224 92 q 311 199 277 158 q 383 288 345 241 q 459 381 421 335 q 531 469 497 427 q 592 544 566 511 q 634 594 618 576 q 648 612 649 613 l 642 633 z "},"Y":{"ha":1023,"x_min":133,"x_max":1116,"o":"m 764 343 q 629 167 762 336 q 547 70 584 111 q 479 2 510 29 q 420 -40 448 -24 q 364 -61 391 -55 q 307 -67 337 -67 q 252 -55 280 -67 q 201 -26 224 -43 q 162 6 178 -10 q 144 30 146 22 q 136 45 140 35 q 133 66 133 56 q 138 84 133 77 q 154 92 142 92 q 164 90 158 92 q 205 71 185 77 q 243 64 226 64 q 335 82 294 64 q 408 129 376 100 q 467 194 441 157 q 530 288 492 230 q 584 380 568 347 q 613 437 600 414 q 564 556 589 497 q 512 669 539 615 q 457 769 485 723 q 399 849 429 815 q 339 903 370 884 q 278 922 309 922 q 252 918 262 922 q 237 907 242 914 q 229 892 231 901 q 227 874 227 883 q 229 854 227 864 q 230 836 230 844 q 224 822 230 825 q 211 819 218 819 q 186 836 197 819 q 168 879 176 852 q 157 941 161 906 q 153 1013 153 976 q 159 1037 153 1025 q 178 1059 165 1049 q 211 1076 191 1069 q 260 1082 231 1082 q 401 1043 337 1082 q 520 937 465 1004 q 623 779 575 869 q 715 586 670 688 q 792 729 755 659 q 860 860 829 799 q 916 970 891 921 q 957 1050 941 1019 q 989 1076 966 1066 q 1040 1086 1013 1086 q 1067 1082 1054 1086 q 1092 1069 1081 1078 q 1109 1046 1102 1061 q 1116 1011 1116 1031 q 1098 941 1116 983 q 1054 848 1082 905 q 988 721 1026 791 q 903 571 949 650 q 804 410 856 491 l 764 343 z "},"Z":{"ha":730,"x_min":-32,"x_max":878,"o":"m 431 890 q 367 902 395 895 q 317 918 339 910 q 278 931 296 926 q 246 937 261 937 q 222 932 234 937 q 199 913 211 926 q 174 878 187 900 q 146 823 161 856 q 108 766 127 781 q 74 751 88 751 q 56 762 61 751 q 50 792 50 773 q 51 808 50 800 q 54 827 52 817 q 88 969 65 914 q 139 1055 111 1024 q 197 1097 167 1086 q 253 1107 227 1107 q 312 1099 283 1107 q 371 1079 341 1090 q 433 1059 401 1068 q 498 1049 465 1050 q 546 1048 524 1048 q 587 1048 568 1048 q 685 1050 649 1048 q 741 1053 722 1051 q 767 1055 760 1054 q 777 1057 774 1057 q 818 1038 805 1057 q 830 986 830 1019 q 829 965 830 976 q 825 941 827 954 q 815 929 824 938 q 787 909 807 920 q 643 755 709 832 q 523 606 576 678 q 427 471 469 534 q 354 357 385 407 q 304 275 323 307 q 277 232 285 242 l 273 216 q 284 211 274 216 q 312 198 295 205 q 351 180 330 190 q 395 163 372 171 q 438 150 417 155 q 475 144 459 144 q 574 156 530 144 q 653 184 617 168 q 717 219 688 201 q 771 252 746 238 q 801 263 786 263 q 830 255 816 263 q 854 234 844 247 q 872 205 865 221 q 878 174 878 189 q 866 137 878 151 q 801 90 842 117 q 709 38 760 62 q 600 -3 658 14 q 484 -20 543 -20 q 452 -15 474 -20 q 392 4 429 -9 q 302 38 355 17 q 182 92 250 60 q 113 48 147 61 q 50 35 79 35 q -9 54 14 35 q -32 106 -32 73 q -15 165 -32 132 q 43 239 3 199 l 541 890 q 509 889 526 890 q 475 888 492 888 q 431 890 453 888 z "},"[":{"ha":629,"x_min":119,"x_max":738,"o":"m 266 962 q 275 996 270 977 q 289 1034 280 1015 q 310 1070 297 1053 q 342 1102 323 1088 q 390 1124 362 1116 q 456 1133 418 1133 l 671 1133 q 701 1125 688 1133 q 722 1107 713 1118 q 734 1084 730 1097 q 738 1061 738 1072 q 729 1031 738 1046 q 708 1005 721 1017 q 679 987 694 994 q 650 981 664 981 l 456 981 q 452 951 456 979 q 441 877 448 924 q 425 769 434 831 q 405 637 416 707 q 384 495 395 568 q 362 354 373 422 q 343 223 352 286 q 327 116 334 161 q 315 44 319 71 q 311 19 311 18 l 505 19 q 527 15 516 19 q 545 2 537 10 q 557 -16 552 -5 q 562 -37 562 -26 q 554 -64 562 -47 q 532 -95 546 -80 q 498 -122 517 -111 q 455 -133 478 -133 l 239 -133 q 179 -125 203 -133 q 143 -104 156 -117 q 124 -74 130 -91 q 119 -39 119 -57 q 123 1 119 -19 q 130 38 127 21 q 155 172 142 100 q 179 321 167 244 q 202 476 191 399 q 222 623 200 476 q 266 962 252 818 z "},"\\":{"ha":846,"x_min":105,"x_max":786,"o":"m 282 1194 q 332 1084 302 1149 q 395 943 361 1019 q 468 783 430 867 q 543 616 505 699 q 615 456 580 534 q 679 313 650 378 q 729 202 708 249 q 760 134 750 155 q 780 79 773 102 q 786 37 786 55 q 765 -11 786 4 q 714 -26 744 -26 q 679 -22 697 -26 q 644 -8 661 -17 q 613 14 627 1 q 588 43 598 27 q 435 369 505 212 q 309 662 366 526 q 207 910 252 798 q 125 1100 161 1021 q 110 1144 115 1124 q 105 1182 105 1165 q 111 1218 105 1202 q 128 1243 117 1233 q 152 1259 138 1254 q 181 1264 166 1264 q 238 1246 210 1264 q 282 1194 266 1229 z "},"]":{"ha":629,"x_min":43,"x_max":618,"o":"m 472 39 q 463 4 468 23 q 449 -33 458 -14 q 428 -70 441 -52 q 395 -102 415 -88 q 348 -124 376 -115 q 282 -132 320 -132 l 116 -132 q 84 -124 98 -132 q 61 -105 71 -117 q 47 -80 52 -94 q 43 -56 43 -67 q 50 -28 43 -42 q 70 -4 58 -15 q 96 13 81 7 q 123 20 110 20 l 282 20 q 286 49 282 21 q 297 123 290 77 q 313 231 304 170 q 333 362 322 293 q 354 504 343 431 q 375 638 365 578 q 395 782 386 699 q 411 911 404 865 q 422 982 418 956 q 427 1008 427 1008 l 250 1008 q 225 1014 237 1008 q 202 1029 212 1019 q 185 1058 192 1038 q 179 1092 179 1078 q 185 1117 179 1102 q 201 1144 191 1131 q 228 1166 212 1157 q 264 1175 244 1175 l 498 1175 q 558 1167 535 1175 q 595 1146 582 1160 q 613 1116 608 1133 q 618 1081 618 1099 q 615 1041 618 1061 q 608 1004 611 1021 q 583 848 595 943 q 559 677 570 753 q 536 523 547 601 q 515 375 525 446 q 472 39 493 209 z "},"^":{"ha":739,"x_min":63,"x_max":694,"o":"m 687 461 q 694 422 694 440 q 688 389 694 404 q 672 365 682 375 q 652 350 663 355 q 633 345 642 345 q 595 355 612 345 q 565 380 578 366 q 543 410 552 394 q 532 435 534 425 l 392 762 l 216 409 q 174 360 197 374 q 132 347 152 347 q 105 352 117 347 q 83 368 92 358 q 68 392 74 378 q 63 421 63 406 q 65 441 63 430 q 73 462 67 452 q 81 477 73 463 q 100 514 88 492 q 126 565 112 536 q 157 622 141 593 q 187 680 172 651 q 214 730 202 708 q 233 767 225 753 q 241 784 241 782 q 310 881 272 851 q 385 911 349 911 q 423 908 404 911 q 461 892 442 904 q 498 860 479 881 q 532 806 516 840 q 610 645 571 732 q 687 461 650 558 z "},"_":{"ha":846,"x_min":-4,"x_max":859,"o":"m 87 0 q 54 4 71 0 q 25 17 38 8 q 4 40 12 26 q -4 73 -4 54 q 9 115 -4 99 q 45 138 22 130 q 98 149 68 146 q 160 152 127 152 q 235 152 189 152 q 337 152 281 152 q 455 152 393 152 q 578 153 517 153 q 698 153 640 153 q 803 153 756 153 q 831 149 820 153 q 848 140 842 146 q 856 126 854 134 q 859 111 859 119 q 851 67 859 87 q 824 32 843 47 q 772 8 804 17 q 692 0 740 0 l 87 0 z "},"`":{"ha":413,"x_min":43,"x_max":343,"o":"m 336 816 q 341 799 340 807 q 343 783 343 791 q 332 750 343 763 q 304 738 320 738 q 280 744 292 738 q 258 763 269 749 q 235 790 249 773 q 205 828 222 807 q 169 871 188 848 q 133 918 151 895 q 98 963 115 941 q 68 1002 81 984 q 43 1067 43 1037 q 52 1105 43 1088 q 75 1134 61 1122 q 106 1153 89 1146 q 142 1160 124 1160 q 179 1149 161 1160 q 206 1116 197 1139 q 264 985 237 1046 q 286 932 275 959 q 308 883 298 906 q 325 843 317 861 q 336 816 332 825 z "},"a":{"ha":658,"x_min":43,"x_max":796,"o":"m 796 166 q 754 115 781 144 q 696 60 728 86 q 626 15 663 33 q 551 -3 589 -3 q 477 25 507 -3 q 425 109 447 54 q 385 71 409 90 q 333 35 361 51 q 275 9 305 19 q 214 -1 244 -1 q 150 12 181 -1 q 96 50 119 25 q 58 110 72 75 q 43 191 43 146 q 58 295 43 241 q 102 411 72 349 q 166 519 132 473 q 241 598 200 564 q 327 652 281 632 q 418 672 372 672 q 443 666 434 672 q 457 652 452 660 q 469 637 463 644 q 482 626 474 629 q 499 622 490 623 q 516 621 507 621 q 531 621 524 621 q 547 621 539 621 q 566 619 557 621 q 581 610 574 617 q 592 591 588 604 q 595 558 595 579 q 589 486 595 526 q 574 405 582 446 q 554 310 566 363 q 543 220 543 257 q 548 170 543 188 q 573 152 554 152 q 603 159 587 152 q 634 178 618 166 q 666 204 650 189 q 696 234 682 218 q 764 317 730 271 l 796 166 m 217 220 q 219 187 217 203 q 228 158 222 171 q 244 138 234 146 q 270 130 254 130 q 315 152 295 130 q 351 204 336 174 q 375 267 366 235 q 387 321 384 300 l 437 543 q 383 529 410 543 q 333 492 357 515 q 290 437 310 468 q 252 362 271 407 q 225 283 233 317 q 217 220 217 250 z "},"b":{"ha":658,"x_min":50,"x_max":799,"o":"m 307 546 q 376 622 345 593 q 439 651 408 651 q 510 633 479 651 q 563 587 541 616 q 596 519 585 557 q 608 440 608 481 q 605 375 608 406 q 595 314 602 344 q 575 256 588 285 q 543 195 563 227 q 592 223 567 210 q 643 253 617 237 q 694 289 668 269 q 747 336 720 309 l 799 224 q 725 165 762 191 q 649 122 688 140 q 567 90 610 103 q 477 65 525 76 q 446 42 466 54 q 406 21 426 31 q 358 0 384 10 l 341 0 q 227 3 235 0 q 124 38 145 25 q 50 90 85 63 q 58 214 52 144 q 72 361 62 274 q 98 549 85 489 q 114 697 104 616 q 140 853 122 760 q 185 1025 158 946 q 247 1166 213 1104 q 320 1265 280 1227 q 406 1302 359 1302 q 488 1284 457 1302 q 536 1237 519 1267 q 559 1166 553 1206 q 564 1079 564 1125 q 540 946 564 1015 q 477 809 516 878 q 391 676 439 741 q 296 553 343 611 l 307 546 m 368 496 q 320 487 344 496 q 276 456 296 477 q 240 403 256 435 q 217 326 210 340 q 207 244 217 324 q 200 190 203 214 q 195 139 197 163 q 240 127 218 132 q 281 127 260 123 q 323 130 303 130 q 365 144 346 130 q 399 180 384 157 q 425 232 414 203 q 442 293 435 261 q 452 355 449 324 q 456 412 456 386 q 452 444 456 429 q 438 471 448 459 q 411 489 429 482 q 368 496 394 496 m 434 1118 q 433 1129 434 1120 q 428 1147 432 1138 q 418 1164 425 1157 q 399 1172 411 1172 q 371 1153 386 1172 q 342 1100 357 1133 q 315 1024 328 1067 q 288 934 301 981 q 264 838 275 887 q 244 746 253 789 q 228 666 235 702 q 217 607 221 629 q 258 680 235 642 q 304 759 281 718 q 349 843 327 800 q 389 931 371 886 q 419 1023 407 977 q 434 1118 431 1069 z "},"c":{"ha":511,"x_min":43,"x_max":661,"o":"m 296 0 q 187 23 234 0 q 108 85 140 46 q 60 174 76 123 q 43 280 43 225 q 57 374 43 319 q 86 470 71 429 q 126 549 102 511 q 180 614 149 586 q 249 659 211 642 q 332 675 287 675 q 404 664 371 675 q 460 631 437 652 q 497 581 484 610 q 510 519 510 552 q 504 473 510 496 q 480 421 498 451 q 446 380 463 391 q 408 369 429 369 q 366 386 376 369 q 357 433 351 412 q 369 483 359 444 q 370 507 370 488 q 366 534 370 524 q 351 545 363 545 q 304 532 323 545 q 270 497 284 519 q 243 437 256 476 q 223 372 229 398 q 216 321 218 345 q 215 281 215 297 q 219 230 215 256 q 237 181 224 203 q 271 145 250 159 q 326 130 292 130 q 397 150 358 130 q 476 201 437 170 q 552 268 516 231 q 614 337 588 304 l 661 258 q 551 129 610 186 q 496 81 526 104 q 434 40 467 58 q 367 11 402 22 q 296 0 332 0 z "},"d":{"ha":730,"x_min":37,"x_max":852,"o":"m 385 547 q 306 489 340 525 q 247 395 271 454 q 212 295 224 337 q 199 219 199 253 q 202 192 199 205 q 214 168 205 178 q 237 150 222 157 q 275 143 252 143 q 299 149 288 143 q 322 165 311 155 q 343 188 333 175 q 361 214 353 200 q 395 284 380 245 q 392 314 393 294 q 390 377 391 335 q 389 447 389 420 q 388 496 388 474 q 387 533 387 519 q 385 547 386 547 m 852 133 q 757 66 804 96 q 715 42 737 54 q 673 21 694 31 q 632 6 652 12 q 595 1 612 1 q 567 5 585 1 q 526 21 548 9 q 482 58 504 34 q 444 121 460 81 q 390 74 418 96 q 332 36 362 52 q 271 10 302 20 q 209 0 240 0 q 133 19 165 0 q 79 70 100 38 q 47 141 58 101 q 37 224 37 181 q 48 312 37 267 q 80 398 59 356 q 128 485 102 439 q 197 568 154 530 q 286 624 240 605 q 382 648 331 643 q 398 802 385 734 q 434 947 412 870 q 487 1088 456 1023 q 553 1201 517 1154 q 629 1275 589 1249 q 713 1302 670 1302 q 768 1285 745 1302 q 804 1241 790 1269 q 824 1178 818 1214 q 830 1103 830 1141 q 828 1054 830 1079 q 795 873 819 958 q 740 707 772 788 q 671 547 708 627 q 598 382 614 426 q 591 359 595 373 q 585 330 588 346 q 580 297 582 314 q 578 265 578 281 q 580 228 578 245 q 588 196 583 210 q 603 174 593 182 q 625 166 612 166 q 653 171 638 166 q 686 185 669 176 q 720 205 703 194 q 753 228 737 216 q 831 290 791 255 l 852 133 m 704 1004 q 708 1080 708 1052 q 702 1131 708 1116 q 683 1145 695 1145 q 644 1117 661 1145 q 612 1047 626 1090 q 589 953 599 1004 q 572 853 578 901 q 561 766 565 805 q 555 711 557 728 q 551 647 553 678 q 549 591 549 616 q 548 547 548 566 q 548 517 548 528 l 548 511 q 619 686 587 599 q 647 765 633 724 q 672 847 661 806 q 692 928 684 888 q 704 1004 701 968 z "},"e":{"ha":511,"x_min":61,"x_max":733,"o":"m 316 0 q 204 23 252 0 q 125 85 157 46 q 77 175 93 124 q 61 283 61 227 q 75 373 61 321 q 105 467 90 426 q 143 544 120 507 q 197 609 166 581 q 266 654 228 637 q 351 671 304 671 q 422 659 389 671 q 478 624 454 646 q 516 571 503 602 q 530 501 530 540 q 502 407 530 459 q 438 317 475 355 q 351 251 401 280 q 241 205 300 222 q 261 175 252 187 q 281 156 271 163 q 303 146 292 149 q 327 144 314 144 q 413 160 368 144 q 500 201 458 176 q 581 254 543 225 q 646 309 619 283 l 733 218 q 606 109 673 156 q 544 68 577 88 q 473 34 510 49 q 396 9 436 18 q 316 0 357 0 m 226 319 q 279 331 250 319 q 333 363 308 344 q 381 416 357 383 q 405 471 405 450 q 394 522 405 502 q 366 541 382 541 q 316 530 337 541 q 282 502 296 519 q 259 463 268 485 q 240 408 251 441 q 227 355 229 376 q 226 319 226 334 z "},"f":{"ha":511,"x_min":46,"x_max":657,"o":"m 46 -26 q 48 16 46 -22 q 54 117 50 54 q 67 262 59 180 q 89 436 75 345 q 120 625 102 528 q 162 813 138 722 q 219 986 187 905 q 291 1127 251 1067 q 379 1223 330 1188 q 486 1259 428 1259 q 535 1251 509 1259 q 581 1224 560 1242 q 616 1176 602 1206 q 630 1101 630 1145 q 617 1009 630 1061 q 582 899 605 958 q 529 776 559 840 q 461 649 498 712 q 384 524 425 585 q 302 409 344 463 l 300 398 q 321 407 314 405 q 335 409 328 409 q 349 407 344 409 q 359 404 355 406 q 368 400 363 401 q 380 398 373 398 q 498 414 447 398 q 585 450 550 430 q 657 502 627 472 l 642 337 q 549 299 597 313 q 458 279 500 286 q 363 269 410 271 q 407 176 387 224 q 438 84 424 135 q 452 -20 452 33 q 450 -45 452 -26 q 444 -94 448 -65 q 433 -157 440 -122 q 413 -227 425 -191 q 385 -295 401 -262 q 345 -353 368 -328 q 293 -394 322 -378 q 226 -410 263 -410 q 161 -393 189 -410 q 113 -347 133 -376 q 80 -280 94 -318 q 60 -199 67 -241 q 49 -112 52 -156 q 46 -26 46 -67 m 227 330 q 221 315 224 330 q 215 276 218 300 q 209 207 212 252 q 204 133 206 161 q 201 79 202 104 q 199 40 199 54 q 203 -119 199 -60 q 213 -208 207 -178 q 225 -248 218 -239 q 240 -257 233 -257 q 277 -236 263 -257 q 298 -183 291 -215 q 308 -112 305 -151 q 310 -39 310 -74 q 309 20 310 -15 q 304 95 307 54 q 293 188 302 136 q 270 267 285 241 q 245 312 254 294 q 227 330 235 330 m 392 1040 q 330 868 354 949 q 296 736 307 793 q 280 634 285 678 q 271 553 275 591 q 356 705 312 631 q 434 844 400 779 q 492 969 468 909 q 516 1055 516 1029 q 506 1108 516 1091 q 472 1124 496 1124 q 425 1108 437 1124 q 392 1040 415 1095 z "},"g":{"ha":658,"x_min":51,"x_max":791,"o":"m 227 -629 q 306 -616 270 -629 q 368 -581 342 -602 q 414 -527 393 -559 q 448 -464 435 -496 q 470 -395 460 -433 q 485 -328 480 -357 q 492 -267 490 -298 q 496 -228 494 -253 q 511 -109 505 -140 q 536 -64 518 -77 q 631 -3 566 -45 q 640 3 634 -1 q 723 79 674 30 q 790 166 771 128 l 746 317 q 565 92 645 153 q 523 64 543 75 q 538 237 533 170 q 558 357 543 303 q 575 448 573 412 q 573 587 581 566 q 564 607 568 600 q 522 625 553 625 l 492 625 q 477 625 484 625 q 465 628 470 626 q 456 631 459 630 q 448 636 452 632 q 443 642 444 640 q 437 649 441 643 q 431 656 433 654 q 379 676 414 676 q 218 602 301 676 q 125 483 161 551 q 54 308 90 414 q 56 110 16 195 q 123 31 79 62 q 220 -1 168 -1 q 368 71 292 -1 l 355 -10 q 281 -80 312 -47 q 203 -165 250 -112 q 158 -223 180 -191 q 126 -273 136 -256 q 90 -336 116 -291 q 51 -487 45 -416 q 70 -553 54 -525 q 110 -598 85 -582 q 163 -622 134 -614 q 227 -629 193 -629 m 210 289 q 281 441 216 329 q 419 547 340 547 l 368 321 q 342 204 366 262 q 265 130 311 130 q 222 159 239 130 q 210 289 197 203 m 357 -174 q 353 -217 356 -183 q 346 -275 349 -252 q 336 -319 342 -299 q 318 -377 326 -355 q 301 -422 311 -399 q 284 -458 292 -446 q 265 -480 276 -470 q 242 -495 254 -491 q 213 -499 229 -499 q 190 -435 168 -499 q 263 -282 217 -357 q 357 -174 309 -208 z "},"h":{"ha":730,"x_min":79,"x_max":831,"o":"m 321 422 q 383 500 349 458 q 476 597 418 543 q 571 676 534 652 q 640 701 608 701 q 659 697 648 701 q 678 686 669 694 q 693 664 687 678 q 699 626 699 649 q 686 536 699 580 q 637 430 673 492 q 589 322 602 368 q 576 227 576 277 q 585 184 576 200 q 606 168 593 168 q 640 174 622 168 q 677 192 659 181 q 713 217 695 203 q 746 245 730 231 q 819 324 783 280 l 831 144 q 800 120 819 134 q 759 90 781 106 q 709 58 736 74 q 656 29 683 41 q 603 8 629 16 q 551 0 576 0 q 487 20 514 0 q 441 71 459 40 q 415 138 424 102 q 406 208 406 175 q 412 256 406 229 q 426 310 418 283 q 445 363 435 337 q 465 409 456 389 q 481 442 474 429 q 490 457 488 455 l 475 459 q 436 421 464 452 q 374 344 409 391 q 303 240 340 298 q 236 120 266 182 q 212 67 221 90 q 193 30 202 44 q 173 7 184 15 q 145 0 162 0 q 110 13 123 0 q 90 47 97 26 q 81 96 83 68 q 79 151 79 123 q 80 270 79 197 q 87 433 81 344 q 102 622 92 523 q 131 818 113 721 q 178 1002 150 914 q 247 1157 206 1090 q 341 1263 287 1223 q 466 1302 395 1302 q 526 1291 503 1302 q 563 1261 549 1280 q 583 1214 577 1241 q 588 1152 588 1186 q 574 1041 588 1102 q 536 914 559 980 q 483 781 513 848 q 422 650 453 713 q 360 530 391 587 q 307 431 330 474 l 321 422 m 381 841 q 439 1016 421 945 q 457 1121 457 1087 q 444 1173 457 1173 q 391 1115 426 1173 q 310 947 357 1057 q 289 870 298 910 q 271 790 279 830 q 257 712 263 751 q 245 640 250 674 q 228 481 234 559 q 268 574 246 524 q 311 674 290 625 q 350 767 332 723 q 381 841 369 810 z "},"i":{"ha":365,"x_min":65,"x_max":499,"o":"m 499 144 q 438 97 475 122 q 360 50 402 71 q 274 14 318 28 q 191 0 231 0 q 132 10 156 0 q 93 37 108 20 q 72 80 78 55 q 65 136 65 106 q 75 236 65 179 q 99 359 94 346 q 137 492 109 389 q 165 603 160 577 q 184 633 169 620 q 217 653 199 646 q 254 665 235 661 q 289 669 273 669 q 328 658 317 669 q 338 630 338 648 q 331 587 338 615 q 314 523 324 559 q 288 438 304 488 q 262 347 273 388 q 245 267 252 306 q 239 197 239 228 q 245 148 239 166 q 273 130 252 130 q 328 147 298 130 q 388 188 357 164 q 448 238 418 212 q 499 282 477 264 l 499 144 m 196 855 q 203 890 196 871 q 225 927 210 910 q 266 957 240 945 q 329 968 291 968 q 374 963 353 968 q 410 946 395 958 q 435 917 426 935 q 444 873 444 899 q 437 829 444 850 q 413 790 429 807 q 372 763 397 773 q 313 752 347 752 q 224 780 253 752 q 196 855 196 808 z "},"j":{"ha":438,"x_min":0,"x_max":586,"o":"m 0 0 q 3 38 0 11 q 11 105 6 66 q 24 191 16 144 q 40 289 31 239 q 59 395 49 338 q 80 495 69 452 q 102 572 91 538 q 124 623 113 605 q 146 648 134 639 q 175 661 159 656 q 207 666 190 665 q 239 667 223 667 q 274 652 263 667 q 284 623 284 638 q 280 597 284 614 q 271 559 277 579 q 260 520 266 538 q 252 493 256 503 l 214 369 q 288 377 252 375 q 365 386 323 380 q 460 408 407 393 q 586 456 513 423 l 586 326 q 496 288 541 301 q 414 269 451 275 q 331 260 372 261 q 361 169 348 216 q 381 78 372 128 q 391 -22 391 28 q 389 -63 391 -31 q 381 -138 387 -95 q 360 -230 374 -182 q 322 -319 347 -279 q 262 -386 298 -359 q 174 -412 226 -412 q 93 -385 126 -412 q 39 -304 60 -357 q 9 -174 18 -251 q 0 0 0 -98 m 194 303 q 164 91 176 198 q 152 -130 152 -16 q 157 -192 152 -168 q 169 -232 161 -217 q 183 -254 176 -248 q 195 -260 190 -260 q 231 -236 218 -260 q 251 -176 244 -212 q 259 -98 257 -140 q 260 -22 260 -56 q 257 23 260 -2 q 250 74 254 47 q 239 127 245 100 q 227 180 233 155 q 194 303 212 240 m 151 855 q 157 890 151 871 q 179 927 164 910 q 220 957 195 945 q 283 968 245 968 q 328 963 307 968 q 365 946 349 958 q 390 917 380 935 q 399 873 399 899 q 391 829 399 850 q 368 790 384 807 q 327 763 351 773 q 267 752 302 752 q 179 780 208 752 q 151 855 151 808 z "},"k":{"ha":658,"x_min":80,"x_max":810,"o":"m 304 379 q 358 448 329 410 q 415 519 387 485 q 472 589 444 553 q 514 635 500 626 q 566 661 535 650 q 633 671 596 671 q 670 663 652 671 q 700 637 687 654 q 720 598 713 621 q 728 547 728 575 q 709 480 728 519 q 670 414 690 442 q 626 357 650 385 q 582 299 602 328 q 548 242 562 271 q 534 185 534 214 q 546 150 534 161 q 583 140 558 140 q 613 149 597 140 q 646 173 629 158 q 680 206 663 188 q 713 243 697 224 q 743 280 729 262 q 769 309 758 297 l 810 143 q 756 86 789 113 q 687 41 724 60 q 609 11 649 22 q 531 0 568 0 q 451 12 482 0 q 403 43 420 24 q 379 88 385 63 q 372 139 372 113 q 376 177 372 155 q 390 229 380 200 q 420 291 401 257 q 469 365 439 326 q 492 387 481 377 q 509 405 502 397 q 521 419 517 412 q 525 433 525 426 q 520 456 525 448 q 505 465 515 465 q 475 450 494 465 q 435 398 456 435 l 236 48 q 203 11 220 22 q 165 0 187 0 q 119 13 136 0 q 94 46 102 25 q 82 96 85 68 q 80 156 80 124 q 83 258 80 195 q 91 398 85 322 q 105 558 96 475 q 127 720 115 642 q 140 788 132 748 q 158 873 147 827 q 185 967 170 918 q 220 1063 200 1017 q 265 1152 240 1109 q 321 1225 290 1194 q 390 1275 353 1257 q 471 1293 427 1293 q 528 1282 506 1293 q 564 1251 551 1271 q 583 1203 577 1231 q 588 1143 588 1175 q 573 1019 588 1085 q 536 885 559 952 q 488 755 514 819 q 437 642 461 692 q 394 556 412 591 q 369 510 375 521 l 288 389 l 304 379 m 437 1141 q 400 1127 416 1141 q 371 1088 385 1114 q 343 1027 357 1063 q 311 947 329 991 q 291 867 300 909 q 275 785 282 826 q 261 704 267 744 q 252 629 256 664 q 235 465 241 545 q 268 562 250 509 q 303 666 286 614 q 335 763 320 717 q 361 840 351 808 q 374 878 366 855 q 393 926 383 900 q 414 979 404 951 q 432 1033 424 1007 q 446 1081 441 1059 q 452 1119 452 1103 q 437 1141 452 1141 z "},"l":{"ha":365,"x_min":65,"x_max":591,"o":"m 238 0 q 170 32 201 0 q 115 119 138 64 q 78 244 92 173 q 65 395 65 316 q 74 526 65 455 q 100 672 83 597 q 140 823 117 747 q 193 969 163 899 q 257 1100 222 1039 q 330 1205 292 1160 q 409 1276 368 1251 q 493 1302 450 1302 q 541 1289 522 1302 q 571 1254 560 1276 q 586 1205 582 1232 q 591 1149 591 1177 q 576 1019 591 1085 q 537 886 562 953 q 479 752 512 819 q 412 619 447 685 q 341 489 376 553 q 274 363 305 425 q 267 346 271 357 q 260 322 263 335 q 253 296 256 310 q 248 268 250 281 l 248 258 q 251 224 248 241 q 260 194 255 208 q 272 173 266 181 q 283 165 278 165 q 313 171 296 165 q 348 185 330 176 q 387 207 367 195 q 425 231 406 218 q 514 296 467 259 l 570 154 q 450 77 509 111 q 397 48 425 62 q 342 24 370 35 q 288 6 314 13 q 238 0 261 0 m 239 543 q 303 665 269 597 q 368 804 338 732 q 421 948 399 876 q 450 1081 444 1019 q 449 1115 450 1101 q 442 1128 448 1128 q 400 1103 422 1128 q 354 1034 377 1078 q 311 933 332 991 q 274 810 290 876 q 248 676 258 745 q 239 543 239 608 z "},"m":{"ha":877,"x_min":65,"x_max":1031,"o":"m 369 127 q 370 152 369 136 q 374 189 372 168 q 380 234 377 210 q 387 280 384 257 q 406 397 395 334 l 395 397 q 377 366 387 387 q 347 307 366 346 q 299 204 328 267 q 222 47 269 142 q 191 10 209 20 q 151 0 173 0 q 106 12 123 0 q 80 44 90 24 q 68 89 71 64 q 65 142 65 115 q 68 208 65 170 q 77 288 72 245 q 93 384 83 330 q 112 477 104 437 q 127 551 119 517 q 142 605 136 584 q 155 640 149 627 q 169 660 161 652 q 188 669 177 667 q 216 671 199 671 q 256 670 241 671 q 278 662 271 668 q 286 643 285 655 q 288 610 288 631 q 287 583 288 598 q 283 551 286 568 q 279 517 282 534 q 274 481 275 483 q 254 378 264 435 l 262 370 q 280 406 263 372 q 316 473 296 440 q 357 543 335 507 q 400 607 380 579 q 442 653 420 635 q 494 671 464 671 q 543 655 523 671 q 564 608 564 638 q 560 557 564 581 q 552 511 556 527 q 541 468 547 494 q 524 404 536 446 q 520 384 522 397 q 519 378 519 380 l 527 370 q 546 406 528 372 q 584 473 564 439 q 628 543 605 506 q 672 607 652 579 q 711 653 692 634 q 760 671 731 671 q 813 655 791 671 q 836 608 836 638 q 831 519 836 561 q 817 426 826 477 q 802 333 807 375 q 798 245 798 292 q 807 185 798 208 q 830 162 817 162 q 860 168 844 162 q 892 184 876 174 q 924 206 908 193 q 954 232 939 218 q 1019 302 987 263 l 1031 142 q 971 93 1001 119 q 909 47 942 68 q 837 13 876 26 q 748 0 798 0 q 707 16 724 0 q 680 60 690 32 q 666 127 670 89 q 661 212 661 166 q 664 302 661 254 q 673 399 667 350 l 663 399 l 525 48 q 486 10 507 20 q 435 0 464 0 q 401 12 414 0 q 381 42 388 24 q 371 83 374 61 q 369 127 369 106 z "},"n":{"ha":658,"x_min":87,"x_max":844,"o":"m 87 142 q 92 245 87 186 q 106 374 98 304 q 124 500 114 444 q 144 597 134 557 q 173 649 151 628 q 231 670 194 670 q 281 648 267 670 q 296 588 296 625 q 294 561 296 578 q 289 523 292 543 q 282 480 286 502 q 276 430 279 458 q 271 388 273 401 q 269 369 269 374 l 282 369 q 295 393 286 376 q 315 441 304 410 q 340 496 327 472 q 365 542 353 520 q 386 581 376 564 q 400 606 395 598 q 450 656 422 643 q 511 670 477 670 q 565 642 545 670 q 585 563 585 613 q 582 538 585 555 q 574 496 579 520 q 564 433 570 471 q 553 363 558 394 q 546 303 549 333 q 543 248 543 273 q 553 179 543 206 q 586 152 564 152 q 609 158 594 152 q 637 172 631 166 q 669 195 667 195 q 714 222 671 194 q 844 307 768 256 l 843 155 l 809 129 q 745 94 805 125 q 637 38 659 47 q 572 11 585 14 q 500 0 538 0 q 438 54 463 0 q 412 212 412 108 q 418 299 412 252 q 431 401 423 347 l 420 401 l 243 48 q 212 10 229 20 q 173 0 195 0 q 128 12 145 0 q 102 44 111 24 q 90 89 93 64 q 87 142 87 115 z "},"o":{"ha":585,"x_min":43,"x_max":764,"o":"m 503 523 q 533 440 523 484 q 543 341 543 396 q 534 260 543 301 q 508 182 525 220 q 468 111 492 144 q 413 53 444 77 q 345 14 382 28 q 267 0 309 0 q 165 26 208 0 q 96 94 123 52 q 56 189 68 136 q 43 296 43 242 q 66 451 43 386 q 130 563 88 515 q 232 638 172 611 q 368 666 292 666 q 488 646 432 666 q 594 592 545 626 q 685 508 643 559 q 764 411 728 457 l 751 315 q 702 368 733 340 q 636 431 671 397 q 567 490 601 466 q 509 530 533 514 l 503 523 m 294 130 q 338 154 317 130 q 376 213 360 177 q 402 299 393 248 q 412 389 412 349 q 408 447 412 420 q 393 493 403 473 q 369 524 384 513 q 333 536 354 536 q 280 512 305 536 q 236 451 255 488 q 206 370 217 414 q 195 269 195 325 q 201 215 195 240 q 218 171 206 190 q 248 141 229 153 q 294 130 267 130 z "},"p":{"ha":585,"x_min":-87,"x_max":747,"o":"m 363 121 q 488 134 432 121 q 590 171 545 148 q 673 225 636 194 q 740 291 710 256 l 747 136 q 695 84 726 109 q 627 41 664 60 q 550 11 591 22 q 471 0 510 0 q 459 1 466 0 q 434 6 452 3 q 384 15 416 9 q 294 29 351 21 l 294 17 q 274 -207 294 -106 q 218 -379 253 -308 q 139 -489 184 -450 q 46 -528 94 -528 q -18 -509 7 -528 q -59 -457 -44 -490 q -81 -382 -75 -425 q -87 -291 -87 -339 q -79 -228 -87 -263 q -55 -155 -70 -193 q -21 -77 -40 -117 q 17 0 -3 -37 q 122 179 63 87 q 137 288 130 232 q 157 395 145 343 q 194 505 169 448 q 247 597 218 562 q 314 652 275 631 q 409 672 353 672 q 486 661 450 672 q 549 625 522 650 q 592 560 576 600 q 608 463 608 520 q 594 363 608 399 q 542 270 574 309 q 465 196 509 231 q 359 135 420 162 l 363 121 m 278 189 q 349 235 319 210 q 399 288 377 260 q 441 351 408 290 q 469 431 463 403 q 474 466 473 446 q 470 503 475 486 q 452 533 465 521 q 417 546 439 546 q 373 532 392 546 q 340 494 354 518 q 317 438 326 471 q 295 358 308 406 q 280 270 283 310 q 278 189 278 229 m 42 -299 q 44 -317 42 -304 q 52 -341 47 -329 q 66 -363 58 -353 q 88 -372 75 -372 q 107 -360 100 -372 q 119 -326 115 -347 q 126 -279 124 -305 q 130 -224 128 -252 q 131 -170 131 -197 q 133 -123 132 -144 q 136 -61 135 -86 q 138 -18 137 -35 q 139 14 138 1 q 114 -38 126 -9 q 91 -100 102 -68 q 71 -163 80 -132 q 56 -223 62 -195 q 46 -270 50 -250 q 42 -299 42 -290 z "},"q":{"ha":585,"x_min":22,"x_max":716,"o":"m 475 4 q 499 -205 499 -128 q 486 -334 499 -282 q 444 -423 471 -387 q 282 -499 387 -499 q 194 -459 232 -499 q 152 -347 152 -415 q 179 -178 152 -279 q 225 -14 206 -77 q 260 109 244 50 q 213 106 244 106 q 144 126 182 106 q 79 179 106 145 q 22 347 22 249 q 52 480 22 416 q 124 585 81 544 q 333 672 216 673 q 481 618 430 672 q 527 494 526 572 q 521 448 527 467 q 504 393 515 428 q 485 330 492 357 q 469 275 477 302 q 454 225 460 248 q 444 189 448 203 q 440 175 440 175 q 442 164 439 174 q 449 136 445 153 q 482 130 462 130 q 533 147 502 130 q 598 188 565 164 q 663 238 631 212 q 716 282 694 264 l 716 130 q 475 4 605 22 m 376 520 q 325 542 355 542 q 268 525 296 542 q 220 482 239 508 q 187 415 201 456 q 174 350 174 374 q 178 300 174 326 q 194 252 182 275 q 282 195 222 200 q 289 217 281 199 q 299 260 297 235 q 313 300 302 285 q 335 370 309 310 q 376 520 362 430 m 369 22 q 357 -14 366 13 l 338 -75 q 272 -338 272 -291 q 279 -360 272 -351 q 304 -369 286 -369 q 341 -353 323 -369 q 370 -311 359 -338 q 391 -193 391 -261 q 369 22 391 -60 z "},"r":{"ha":585,"x_min":87,"x_max":762,"o":"m 87 142 q 90 211 87 172 q 99 295 94 251 q 113 385 105 339 q 133 483 121 431 q 154 569 145 534 q 172 626 163 604 q 182 650 177 641 q 195 664 188 659 q 213 670 202 669 q 239 672 223 672 q 266 670 256 672 q 281 662 276 669 q 287 644 286 656 q 288 610 288 631 q 284 539 288 585 q 282 458 281 493 l 290 458 q 323 530 303 486 q 366 603 344 574 q 417 652 389 632 q 483 672 446 672 q 508 668 496 672 q 529 655 520 663 q 544 635 538 647 q 549 608 549 623 q 546 576 549 597 q 535 522 543 555 q 524 468 528 489 q 521 432 521 446 q 526 391 521 408 q 538 365 530 375 q 556 351 546 355 q 576 347 566 347 q 640 361 607 347 q 699 391 672 374 q 762 436 731 411 l 751 277 q 711 252 734 266 q 664 225 689 237 q 611 204 638 212 q 555 195 583 195 q 473 216 504 195 q 423 270 441 237 q 396 346 405 304 q 382 430 387 387 l 371 430 l 250 92 q 232 48 240 65 q 214 20 223 31 q 195 4 205 9 q 173 0 185 0 q 128 12 145 0 q 102 44 111 24 q 90 89 93 64 q 87 142 87 115 z "},"s":{"ha":585,"x_min":0,"x_max":739,"o":"m 65 260 q 127 315 103 293 q 174 365 151 336 q 212 412 198 394 q 245 456 226 431 q 291 517 264 481 q 361 608 318 553 q 381 631 370 620 q 405 652 392 643 q 434 667 418 661 q 470 673 450 673 q 520 666 503 673 q 546 648 538 659 q 555 627 554 638 q 557 608 557 616 q 544 572 557 591 q 515 534 531 552 q 486 500 500 515 q 470 477 472 485 q 473 439 470 456 q 481 405 476 422 q 492 370 486 389 q 502 327 497 351 q 504 260 507 302 q 500 174 500 217 q 552 203 524 190 q 611 231 581 216 q 674 262 642 245 q 739 304 706 279 l 739 152 q 642 91 697 119 q 526 41 587 62 q 403 6 465 19 q 286 -6 341 -6 q 211 1 245 -6 q 150 25 176 9 q 108 66 124 41 q 88 129 92 92 q 70 126 79 127 q 52 125 60 125 q 31 126 41 125 q 15 131 22 127 q 4 145 8 136 q 0 174 0 155 q 8 204 0 190 q 27 229 16 218 q 49 248 38 239 q 65 260 60 256 m 152 174 q 170 163 160 174 q 193 141 180 153 q 222 119 205 129 q 261 109 239 109 q 305 117 288 109 q 332 141 322 126 q 347 175 342 155 q 351 215 351 194 q 348 252 351 233 q 349 299 346 271 q 348 343 352 328 q 340 369 343 358 l 152 174 z "},"t":{"ha":511,"x_min":-65,"x_max":651,"o":"m 651 152 q 535 85 586 114 q 445 38 484 57 q 374 9 405 19 q 318 0 343 0 q 227 31 267 0 q 161 121 188 62 q 122 263 135 180 q 109 451 109 347 q 112 538 109 492 q 121 629 115 584 q 90 634 101 632 q 66 639 79 637 q 34 644 54 642 q -22 651 15 647 q -47 659 -38 653 q -60 672 -56 665 q -64 689 -64 680 q -65 703 -65 697 q -52 724 -65 717 q -18 734 -39 731 q 27 738 3 738 q 75 738 52 739 q 116 737 98 737 q 140 738 134 736 q 187 915 159 829 q 250 1068 215 1001 q 326 1175 285 1135 q 413 1215 368 1215 q 466 1199 442 1215 q 507 1156 490 1183 q 533 1092 524 1128 q 543 1017 543 1056 q 533 946 543 983 q 507 871 524 909 q 469 793 491 833 q 422 715 447 754 q 443 715 429 715 q 476 714 457 715 q 516 712 494 713 q 558 710 538 711 q 596 709 578 709 q 625 707 614 708 q 645 694 639 707 q 651 661 651 681 q 637 623 651 637 q 608 608 624 608 l 347 608 q 308 554 328 581 q 271 507 288 528 q 266 425 268 465 q 264 388 265 407 q 263 351 264 370 q 262 316 262 333 q 262 285 262 299 q 269 223 262 248 q 288 182 275 198 q 320 159 301 166 q 361 152 338 152 q 397 159 376 152 q 444 177 418 165 q 497 205 469 189 q 553 241 526 222 q 606 282 581 260 q 651 326 631 303 l 651 152 m 434 1010 q 433 1027 434 1018 q 429 1044 432 1036 q 418 1058 425 1053 q 398 1063 411 1063 q 362 1032 380 1063 q 328 952 345 1001 q 297 846 311 904 q 270 732 282 787 q 290 730 280 731 q 311 728 300 729 q 354 803 332 762 q 393 882 376 843 q 422 955 411 921 q 434 1010 434 989 z "},"u":{"ha":658,"x_min":62,"x_max":825,"o":"m 602 632 q 597 582 602 614 q 587 513 593 551 q 569 423 581 475 q 552 336 558 370 q 541 275 545 301 q 537 239 537 249 q 538 204 537 220 q 542 176 538 188 q 552 158 545 164 q 573 151 559 151 q 609 159 588 151 q 655 179 631 166 q 704 207 679 191 q 752 241 729 223 q 793 276 774 258 q 823 308 812 293 q 824 267 823 286 q 824 232 824 249 q 824 198 824 216 q 825 159 825 180 q 788 127 810 144 q 739 93 766 110 q 682 60 712 76 q 621 33 652 45 q 561 14 591 21 q 505 7 531 7 q 461 17 479 7 q 430 45 443 27 q 407 89 416 64 q 391 146 398 115 q 340 87 367 114 q 284 41 313 60 q 228 10 256 21 q 172 -1 199 -1 q 130 6 149 -1 q 95 31 110 14 q 71 78 79 49 q 62 149 62 106 q 75 286 62 238 q 113 492 95 355 q 118 519 114 502 q 128 557 121 536 q 144 598 134 577 q 166 636 153 619 q 196 664 179 653 q 235 675 214 675 q 287 666 271 674 q 302 647 302 659 q 289 567 296 611 q 275 478 282 523 q 257 378 267 433 q 241 290 246 323 q 232 237 235 257 q 229 216 229 216 q 232 192 229 203 q 239 172 234 181 q 251 158 243 163 q 269 153 258 153 q 299 160 283 153 q 328 183 315 168 q 353 218 342 197 q 370 267 364 239 l 444 637 q 472 664 448 653 q 526 675 496 675 q 581 663 561 675 q 602 632 602 651 z "},"v":{"ha":585,"x_min":76,"x_max":742,"o":"m 87 220 q 83 308 85 271 q 79 376 81 346 q 77 433 77 407 q 76 486 76 458 q 82 615 76 576 q 111 657 89 654 l 192 670 q 198 671 192 670 q 205 671 201 671 q 240 658 228 671 q 254 627 253 644 l 227 177 l 237 178 l 422 630 q 431 648 424 640 q 448 664 437 657 q 472 674 459 670 q 500 678 486 678 q 564 662 540 678 q 587 621 587 646 q 582 585 587 602 q 568 548 576 564 q 547 504 551 513 q 512 419 516 431 q 504 394 508 407 q 498 368 500 382 q 496 338 496 353 q 500 306 496 321 q 514 278 504 290 q 542 258 524 265 q 587 250 559 250 q 634 261 608 250 q 685 285 661 271 q 742 320 713 300 l 742 161 q 649 115 697 132 q 558 98 602 98 q 493 110 522 98 q 444 140 464 121 q 413 182 424 159 q 401 232 401 206 q 356 149 381 191 q 304 71 331 106 q 251 15 277 37 q 200 -7 224 -7 q 139 13 161 -7 q 107 63 117 33 q 93 130 96 94 q 88 198 90 165 l 87 220 z "},"w":{"ha":877,"x_min":49,"x_max":1009,"o":"m 382 335 q 335 200 362 261 q 278 94 309 138 q 215 25 248 50 q 151 0 182 0 q 74 78 98 0 q 49 309 49 156 q 49 347 49 330 q 50 380 49 363 q 55 430 50 397 q 62 490 60 463 q 65 513 62 496 q 72 551 67 530 q 86 594 77 572 q 107 636 94 617 q 139 667 121 654 q 182 679 157 679 l 198 677 q 244 666 228 677 q 260 634 260 654 l 205 240 l 214 241 q 270 381 244 310 q 314 497 295 452 q 350 576 332 543 q 387 633 367 610 q 433 666 408 655 q 494 677 458 677 q 539 666 524 677 q 555 634 555 654 l 492 240 l 503 241 l 671 630 q 707 664 680 649 q 771 678 734 678 q 833 662 810 678 q 857 621 857 646 q 851 581 857 602 q 837 540 844 559 q 823 508 829 522 q 815 494 816 495 q 784 430 800 467 q 759 376 768 393 q 739 338 747 355 q 763 290 748 311 q 795 258 776 273 q 840 243 814 243 q 892 255 863 243 q 947 281 921 267 q 1009 320 977 298 l 1009 161 q 917 115 964 132 q 825 98 869 98 q 759 106 790 98 q 705 132 728 115 q 668 178 682 150 q 653 246 654 206 q 605 147 630 192 q 553 69 580 102 q 500 18 527 37 q 446 0 473 0 q 429 15 436 0 q 417 54 422 29 q 409 112 412 79 q 405 181 406 144 q 402 256 403 218 q 401 332 401 295 l 382 335 z "},"x":{"ha":730,"x_min":35,"x_max":825,"o":"m 134 316 q 134 278 134 296 q 133 243 133 259 q 134 213 133 227 q 140 191 136 200 q 152 176 144 181 q 174 170 160 170 q 190 179 181 170 q 211 204 199 188 q 238 243 223 220 q 272 292 253 265 q 231 401 265 331 q 150 591 176 511 q 149 597 149 595 q 159 623 149 610 q 185 648 169 637 q 219 668 201 660 q 255 675 238 675 q 278 671 269 675 q 293 656 290 665 q 317 600 334 541 q 395 443 309 627 q 512 556 400 460 q 605 627 554 593 q 637 643 622 638 q 664 648 652 648 q 691 641 680 648 q 711 624 703 635 q 724 599 720 613 q 728 570 728 585 q 719 528 728 548 q 692 496 710 508 q 591 422 633 460 q 461 296 525 362 q 491 239 476 266 q 521 193 507 213 q 548 162 535 174 q 573 151 562 151 q 609 159 588 151 q 655 179 631 166 q 704 207 679 191 q 752 241 729 223 q 793 276 774 258 q 823 308 812 293 q 824 267 823 286 q 824 232 824 249 q 824 198 824 216 q 825 159 825 180 q 767 109 802 136 q 689 57 732 81 q 597 17 646 33 q 499 0 548 0 q 429 38 471 0 q 338 159 387 75 q 282 97 309 125 q 233 46 256 68 q 189 12 210 24 q 152 0 169 0 q 96 18 118 0 q 61 63 75 35 q 42 122 48 90 q 35 184 37 155 l 134 316 z "},"y":{"ha":658,"x_min":43,"x_max":796,"o":"m 352 -11 l 367 71 q 291 19 330 39 q 214 -1 251 -1 q 150 12 181 -1 q 96 50 119 25 q 58 110 72 75 q 43 191 43 146 q 49 299 43 250 q 69 420 55 349 q 100 534 83 492 q 137 618 116 576 q 182 665 153 649 q 239 681 211 681 q 279 669 262 681 q 296 632 296 657 q 295 616 296 625 q 289 597 293 607 q 265 523 277 566 q 240 409 253 481 q 222 295 228 338 q 217 220 217 252 q 219 187 217 203 q 228 158 222 171 q 244 138 234 146 q 270 130 254 130 q 315 152 295 130 q 351 204 336 174 q 375 267 366 235 q 387 321 384 300 l 441 575 q 460 616 446 597 q 492 646 473 633 q 530 665 510 659 q 567 671 549 671 q 602 662 588 671 q 616 633 616 652 q 614 618 616 627 q 604 570 610 601 q 591 501 598 540 q 573 392 584 463 q 555 279 562 322 q 521 64 538 179 q 565 92 541 75 q 618 138 589 109 q 683 209 647 166 q 764 317 719 252 l 796 166 q 765 123 784 145 q 722 79 745 100 q 673 37 688 47 q 623 -3 668 33 q 534 -65 610 -14 q 509 -110 515 -77 q 493 -229 502 -142 q 490 -268 490 -254 q 481 -329 486 -300 q 467 -396 477 -359 q 445 -466 458 -434 q 411 -528 432 -497 q 365 -582 390 -559 q 303 -617 339 -604 q 224 -631 267 -631 q 160 -623 190 -631 q 106 -599 131 -615 q 66 -554 82 -583 q 48 -488 51 -526 q 87 -336 43 -416 q 123 -274 113 -292 q 155 -224 133 -257 q 200 -167 176 -193 q 278 -81 248 -113 q 352 -11 309 -48 m 354 -175 q 260 -283 307 -209 q 187 -435 214 -358 q 210 -500 165 -500 q 239 -496 226 -500 q 262 -482 252 -492 q 281 -459 273 -471 q 299 -424 290 -446 q 315 -379 308 -401 q 333 -320 322 -357 q 343 -277 339 -300 q 350 -219 347 -253 q 354 -175 353 -184 z "},"z":{"ha":438,"x_min":18,"x_max":614,"o":"m 18 127 q 24 152 18 142 q 38 170 29 161 q 58 188 47 179 q 82 211 70 197 l 300 508 q 279 518 288 513 q 263 527 270 523 q 248 532 256 530 q 232 534 241 534 q 196 534 210 534 q 172 529 182 533 q 154 517 162 525 q 137 494 146 509 q 102 446 116 461 q 76 431 87 431 q 61 440 65 431 q 56 467 56 450 q 57 481 56 473 q 59 497 58 489 q 88 593 69 556 q 131 649 107 629 q 179 676 154 669 q 227 684 205 684 q 259 676 243 684 q 291 659 275 668 q 324 641 307 649 q 358 633 340 633 q 383 632 372 632 q 404 632 394 632 q 447 633 431 632 q 472 635 463 634 q 484 638 480 637 q 489 639 487 639 q 523 622 513 639 q 534 577 534 606 q 530 538 534 554 q 516 524 528 532 q 475 508 504 515 q 448 466 467 493 q 405 406 429 439 q 350 330 380 372 q 295 257 319 288 q 253 204 271 227 q 229 173 235 181 l 226 159 q 238 155 227 159 q 265 144 250 150 q 298 134 281 138 q 328 129 315 129 q 380 137 357 129 q 424 159 404 146 q 461 186 444 172 q 494 214 478 201 q 526 235 510 227 q 558 243 541 243 q 582 237 571 243 q 599 222 592 231 q 610 200 606 212 q 614 177 614 189 q 599 136 614 157 q 559 94 584 115 q 500 56 534 74 q 431 23 467 37 q 357 1 395 9 q 286 -7 319 -7 q 272 -4 283 -7 q 241 5 260 -1 q 197 22 222 12 q 142 47 172 32 q 98 39 117 39 q 62 46 77 39 q 38 66 47 54 q 23 94 28 78 q 18 127 18 109 z "},"{":{"ha":804,"x_min":90,"x_max":885,"o":"m 330 939 q 365 1059 340 1004 q 424 1154 389 1114 q 503 1215 459 1194 q 595 1237 546 1237 q 654 1235 619 1237 q 726 1227 688 1234 q 800 1207 763 1220 q 867 1172 837 1194 q 881 1154 876 1164 q 885 1132 885 1143 q 879 1100 885 1116 q 861 1072 872 1084 q 835 1050 850 1059 q 802 1042 820 1042 q 763 1045 786 1042 q 714 1053 741 1048 q 662 1060 688 1057 q 610 1063 635 1063 q 571 1055 589 1063 q 539 1023 553 1046 q 513 959 525 1000 q 490 852 500 918 q 473 750 482 801 q 447 656 464 700 q 403 579 431 612 q 331 530 376 546 q 376 507 358 523 q 406 470 395 492 q 421 420 416 448 q 425 362 425 393 q 420 280 425 323 q 409 196 415 237 q 398 118 404 155 q 393 58 393 82 q 398 12 393 30 q 410 -18 402 -7 q 430 -34 418 -29 q 458 -38 442 -38 q 504 -30 482 -38 q 546 -13 526 -22 q 587 4 567 -3 q 628 12 607 12 q 651 8 640 12 q 671 -5 663 4 q 686 -27 680 -14 q 691 -59 691 -41 q 689 -81 691 -69 q 666 -123 686 -104 q 616 -156 646 -142 q 553 -181 587 -171 q 486 -198 518 -191 q 427 -208 453 -205 q 387 -212 400 -212 q 313 -195 345 -212 q 258 -149 280 -179 q 223 -77 235 -119 q 212 16 212 -35 q 223 134 212 73 q 244 255 234 195 q 247 276 245 265 q 248 298 248 286 q 242 346 248 322 q 225 387 237 369 q 193 417 213 406 q 142 429 172 429 q 102 449 114 429 q 90 498 90 470 q 96 542 90 519 q 113 582 102 564 q 139 611 123 600 q 172 624 154 623 q 243 636 216 625 q 288 669 271 647 q 314 723 304 690 q 330 798 323 755 l 330 939 z "},"|":{"ha":846,"x_min":320,"x_max":669,"o":"m 485 1150 q 496 1188 487 1169 q 519 1223 505 1208 q 556 1249 534 1239 q 605 1259 577 1259 q 635 1250 623 1259 q 655 1228 648 1240 q 666 1202 663 1215 q 669 1179 669 1188 q 669 1161 669 1171 q 667 1139 668 1150 q 664 1118 665 1128 q 661 1100 663 1107 q 646 1003 655 1061 q 626 878 637 946 q 604 733 616 809 q 581 579 593 656 q 558 428 570 503 q 538 289 547 354 q 521 172 528 224 q 509 87 513 119 q 491 37 505 57 q 459 3 477 16 q 424 -16 442 -10 q 393 -22 406 -22 q 363 -13 376 -22 q 340 11 350 -4 q 325 45 330 26 q 320 87 320 65 q 321 109 320 98 q 323 134 321 121 q 334 200 327 155 q 350 307 340 245 q 371 442 359 368 q 395 595 382 516 q 420 753 408 673 q 445 907 433 833 q 467 1043 456 980 q 485 1150 477 1105 z "},"}":{"ha":846,"x_min":43,"x_max":809,"o":"m 683 884 q 672 823 678 855 q 661 758 666 790 q 651 694 655 725 q 648 640 648 664 q 653 598 648 616 q 671 568 659 581 q 705 550 684 556 q 758 543 726 543 q 797 519 785 542 q 809 467 809 497 q 804 425 809 446 q 788 386 798 404 q 762 358 777 369 q 728 347 747 347 q 673 337 696 347 q 634 310 650 326 q 609 273 618 293 q 597 235 600 253 q 583 153 589 192 q 570 72 577 115 q 535 -50 559 5 q 476 -146 511 -106 q 397 -209 441 -186 q 305 -232 354 -232 q 268 -229 292 -232 q 214 -220 243 -226 q 155 -204 185 -214 q 99 -180 124 -194 q 59 -150 75 -167 q 43 -111 43 -132 q 53 -65 43 -84 q 77 -33 63 -45 q 107 -14 92 -20 q 134 -8 123 -8 q 173 -16 155 -8 q 209 -33 191 -24 q 246 -51 227 -43 q 290 -58 265 -58 q 329 -49 311 -58 q 361 -16 347 -40 q 388 51 376 9 q 411 159 400 93 q 428 252 418 204 q 454 340 437 299 q 499 410 471 380 q 570 448 526 439 q 525 475 543 458 q 496 515 507 492 q 480 564 485 537 q 476 621 476 591 q 481 699 476 657 q 492 781 486 741 q 503 857 498 821 q 507 916 507 892 q 503 962 507 943 q 490 990 498 980 q 470 1005 482 1001 q 442 1009 458 1009 q 390 1006 418 1009 q 335 998 361 1002 q 284 991 308 994 q 243 987 260 987 q 219 993 229 987 q 201 1007 208 998 q 190 1028 193 1017 q 186 1053 186 1040 q 195 1088 186 1071 q 221 1118 203 1106 q 299 1153 258 1140 q 379 1173 340 1166 q 454 1181 419 1179 q 513 1183 489 1183 q 587 1167 555 1183 q 643 1122 620 1151 q 677 1052 665 1093 q 689 960 689 1010 q 683 884 689 924 z "},"~":{"ha":586,"x_min":99,"x_max":661,"o":"m 481 995 q 498 1015 490 1004 q 514 1037 505 1025 q 531 1063 522 1049 q 565 1095 545 1084 q 604 1105 585 1105 q 644 1093 627 1105 q 661 1056 661 1080 q 651 1020 661 1039 q 630 980 643 1004 q 598 933 617 956 q 553 895 578 911 q 494 878 527 878 q 457 884 473 878 q 425 903 441 890 q 390 933 408 915 q 347 977 372 952 l 278 1045 q 262 1024 270 1035 q 245 1003 254 1015 q 229 977 237 991 q 195 945 215 956 q 155 935 175 935 q 116 947 132 935 q 99 984 99 960 q 109 1020 99 1001 q 130 1060 117 1036 q 162 1106 142 1084 q 207 1145 181 1129 q 266 1162 233 1162 q 303 1156 287 1162 q 335 1137 319 1149 q 369 1106 351 1125 q 412 1063 387 1088 l 481 995 z "},"":{"ha":803,"x_min":167,"x_max":680,"o":"m 565 910 q 545 766 558 840 q 513 617 531 692 q 476 471 496 543 q 436 332 456 398 q 398 207 416 265 q 367 102 380 149 q 341 49 357 69 q 304 18 325 29 q 261 3 284 7 q 218 -1 239 -1 q 197 1 207 -1 q 181 11 188 4 q 171 31 174 18 q 167 63 167 43 q 169 93 167 77 q 174 129 170 109 q 218 288 191 208 q 283 459 245 368 q 370 660 321 551 q 478 910 418 770 q 485 924 479 918 q 499 935 491 930 q 517 942 507 939 q 535 944 526 944 q 557 939 548 944 q 566 920 566 933 q 565 910 566 917 m 447 1132 q 449 1145 448 1135 q 454 1169 450 1155 q 465 1199 458 1183 q 485 1228 471 1215 q 518 1250 498 1241 q 569 1259 538 1259 q 614 1252 594 1259 q 649 1232 635 1246 q 672 1198 664 1219 q 680 1147 680 1177 q 673 1100 680 1123 q 651 1058 666 1076 q 612 1029 636 1040 q 556 1018 589 1018 q 475 1046 503 1018 q 446 1128 446 1075 q 447 1132 446 1131 z "},"":{"ha":608,"x_min":43,"x_max":601,"o":"m 349 694 q 354 720 350 707 q 366 745 359 734 q 385 763 374 756 q 410 770 395 770 q 421 764 416 770 q 430 750 427 758 q 436 733 434 742 q 437 717 437 724 q 436 688 437 706 q 434 658 435 670 l 433 647 q 502 628 471 642 q 554 594 532 614 q 589 548 576 574 q 601 494 601 523 q 596 449 601 471 q 581 409 591 427 q 556 380 570 391 q 524 369 542 369 q 490 379 500 369 q 476 404 479 389 q 472 436 472 418 q 468 471 471 454 q 455 501 465 488 q 423 519 446 514 q 412 343 418 439 q 397 137 407 247 q 470 169 433 148 q 532 208 507 189 q 549 213 541 213 q 567 207 558 213 q 584 192 576 201 q 595 171 591 183 q 600 148 600 159 q 595 126 600 136 q 579 109 590 117 q 522 66 553 87 q 460 31 496 49 q 385 3 425 13 l 374 -88 q 366 -113 371 -104 q 356 -127 361 -122 q 345 -134 351 -132 q 332 -135 338 -135 q 325 -135 328 -135 q 318 -134 321 -134 q 306 -128 311 -134 q 296 -112 300 -122 q 289 -89 292 -102 q 287 -60 287 -75 q 288 -35 287 -47 q 291 0 290 -23 q 183 24 230 1 q 106 86 137 47 q 59 175 75 125 q 43 280 43 225 q 52 357 43 317 q 78 436 61 397 q 121 511 96 475 q 181 576 147 547 q 255 624 214 604 q 345 648 296 643 l 349 694 m 217 281 q 221 235 217 259 q 234 190 224 211 q 259 153 243 169 q 301 132 275 138 q 308 220 304 174 q 316 316 312 267 q 325 414 320 365 q 333 509 329 463 q 271 463 294 493 q 236 399 248 433 q 221 333 224 366 q 217 281 217 301 z "},"":{"ha":1021,"x_min":356,"x_max":1161,"o":"m 857 673 q 892 669 873 673 q 927 657 911 666 q 954 631 943 648 q 964 589 964 615 q 960 564 964 576 q 944 542 956 551 q 911 527 932 532 q 857 521 890 521 l 686 521 q 677 443 682 484 q 666 360 671 401 q 654 281 660 319 q 644 213 648 243 q 637 165 640 184 q 635 146 634 147 q 742 152 696 146 q 825 165 787 158 q 898 178 863 172 q 972 184 932 184 q 1007 180 989 184 q 1042 167 1026 176 q 1067 145 1057 158 q 1078 115 1078 132 q 1073 85 1078 101 q 1057 57 1068 70 q 1030 35 1046 44 q 989 23 1013 25 q 912 13 960 20 q 808 -1 865 6 q 689 -14 751 -8 q 571 -20 627 -20 q 502 -11 529 -20 q 459 14 475 -1 q 436 49 443 29 q 430 92 430 69 q 437 146 430 119 q 452 198 444 174 q 463 264 454 224 q 479 351 471 305 q 496 441 488 396 q 507 521 504 486 l 429 521 q 391 530 405 521 q 369 552 376 540 q 358 577 361 565 q 356 596 356 590 q 360 624 356 610 q 373 648 363 637 q 400 666 382 659 q 445 673 417 673 l 521 673 q 537 837 521 765 q 582 964 553 909 q 647 1056 610 1018 q 728 1118 685 1094 q 819 1152 772 1141 q 911 1162 865 1162 q 968 1159 939 1162 q 1025 1146 998 1155 q 1078 1121 1053 1137 q 1121 1082 1102 1105 q 1150 1025 1139 1058 q 1161 948 1161 992 q 1155 907 1161 924 q 1139 879 1149 890 q 1116 864 1128 869 q 1089 859 1103 859 q 1063 863 1076 859 q 1041 876 1050 867 q 1025 895 1031 884 q 1019 920 1019 906 q 1010 962 1019 947 q 988 985 1002 978 q 954 995 974 993 q 911 997 935 997 q 863 992 888 997 q 814 976 838 988 q 768 941 790 963 q 730 882 747 918 q 704 795 714 846 q 694 673 694 743 l 857 673 z "},"":{"ha":998,"x_min":43,"x_max":947,"o":"m 452 307 q 356 321 399 307 q 278 363 313 336 q 228 327 254 345 q 177 293 201 308 q 133 268 153 277 q 99 258 113 258 q 79 264 89 258 q 61 279 68 270 q 48 299 53 288 q 43 321 43 310 q 56 355 43 338 q 96 391 68 371 l 199 462 q 168 611 168 528 q 193 771 168 693 q 269 911 218 849 l 205 969 q 175 1002 184 987 q 165 1031 165 1017 q 171 1055 165 1042 q 188 1077 178 1067 q 210 1094 197 1087 q 233 1101 222 1101 q 294 1071 260 1101 l 375 999 q 461 1033 414 1021 q 563 1044 508 1044 q 660 1031 616 1044 q 739 991 704 1017 q 785 1023 762 1008 q 827 1051 807 1039 q 863 1070 846 1063 q 891 1077 879 1077 q 912 1071 902 1077 q 930 1057 922 1065 q 943 1036 938 1048 q 947 1014 947 1025 q 935 981 947 997 q 895 945 922 964 l 817 892 q 842 762 842 833 q 834 672 842 718 q 810 583 826 627 q 772 500 795 540 q 719 427 749 460 l 786 367 q 825 306 825 332 q 819 282 825 294 q 803 259 812 269 q 781 242 793 249 q 758 235 769 235 q 727 245 744 235 q 691 270 710 254 q 651 304 671 285 q 609 342 630 323 q 535 316 574 325 q 452 307 496 307 m 472 437 q 542 452 511 437 q 596 493 572 467 q 638 551 621 518 q 667 621 656 585 q 684 694 678 657 q 689 763 689 730 q 680 822 689 794 q 655 870 671 850 q 614 902 638 890 q 559 914 589 914 q 457 891 502 914 q 382 828 413 868 q 336 732 352 787 q 320 611 320 676 q 331 538 320 570 q 361 484 341 506 q 409 449 381 461 q 472 437 437 437 z "},"":{"ha":1216,"x_min":53,"x_max":1126,"o":"m 840 370 q 869 368 853 370 q 900 361 886 366 q 924 348 914 357 q 933 326 933 340 q 929 304 933 315 q 912 283 925 292 q 874 267 899 273 q 808 261 849 261 l 641 261 q 602 159 622 201 q 562 87 582 116 q 519 41 541 58 q 475 15 498 24 q 428 3 452 6 q 378 1 404 1 q 340 6 357 1 q 309 21 322 12 q 288 44 296 31 q 281 73 281 58 q 285 100 281 87 q 295 122 289 113 q 310 138 302 132 q 328 144 319 144 q 357 142 342 144 q 385 132 371 139 q 407 127 393 127 q 431 163 416 127 q 463 261 446 200 l 399 261 q 349 268 368 261 q 320 283 330 274 q 307 303 310 292 q 304 322 304 314 q 307 338 304 330 q 320 353 310 346 q 349 365 330 360 q 399 370 368 370 l 492 370 l 508 435 l 403 435 q 351 441 370 435 q 321 457 331 448 q 307 477 311 466 q 304 496 304 488 q 307 511 304 503 q 320 527 310 519 q 351 538 331 534 q 403 543 370 543 l 504 543 q 481 657 493 601 q 456 764 469 713 q 429 858 444 814 q 398 932 414 901 q 364 981 382 963 q 326 998 346 998 q 252 967 302 998 q 138 867 202 935 q 124 879 134 869 q 98 903 115 887 q 53 949 81 920 q 136 1035 94 998 q 218 1096 178 1072 q 295 1134 258 1121 q 361 1147 332 1147 q 461 1102 418 1147 q 536 982 504 1058 q 593 804 568 905 q 637 589 617 703 q 741 742 691 667 q 833 883 790 817 q 909 1001 876 948 q 965 1087 943 1054 q 981 1102 971 1095 q 1002 1114 990 1109 q 1027 1121 1014 1118 q 1055 1124 1041 1124 q 1082 1121 1069 1124 q 1104 1111 1095 1118 q 1120 1092 1114 1103 q 1126 1065 1126 1081 q 1119 1027 1126 1048 q 1095 979 1112 1006 q 1044 903 1077 948 q 970 802 1012 858 q 879 680 928 745 q 779 543 829 614 l 859 543 q 889 542 872 543 q 921 535 906 540 q 945 522 935 530 q 955 500 955 513 q 950 477 955 489 q 932 456 946 466 q 893 441 919 447 q 825 435 867 435 l 707 435 l 683 370 l 840 370 z "},"":{"ha":695,"x_min":209,"x_max":548,"o":"m 390 1172 q 423 1236 401 1215 q 469 1257 445 1257 q 498 1249 484 1257 q 524 1225 513 1241 q 541 1185 534 1209 q 548 1131 548 1162 q 548 1116 548 1124 q 547 1100 548 1108 q 541 1065 544 1088 q 533 1010 537 1041 q 524 942 528 979 q 515 870 519 906 q 506 799 510 833 q 498 738 502 765 q 487 693 495 711 q 468 662 479 674 q 444 645 457 650 q 417 640 431 640 q 384 647 400 640 q 355 669 368 655 q 334 702 342 682 q 326 744 326 721 q 326 753 326 749 q 328 763 326 758 q 336 827 331 791 q 346 900 340 862 q 357 977 351 938 q 369 1053 363 1017 q 380 1119 374 1088 q 390 1172 385 1150 m 271 412 q 283 454 275 436 q 304 484 292 472 q 332 502 317 496 q 361 508 347 508 q 392 501 377 508 q 418 480 406 494 q 436 446 429 467 q 444 397 444 425 q 443 380 444 389 q 441 362 442 372 q 422 229 429 283 q 410 132 416 175 q 399 48 405 88 q 384 -43 393 7 q 373 -78 380 -65 q 355 -99 366 -92 q 334 -108 345 -106 q 311 -110 322 -110 q 296 -109 303 -110 q 281 -109 288 -109 q 252 -100 265 -109 q 229 -76 239 -91 q 214 -41 219 -61 q 209 1 209 -22 q 210 22 209 11 q 212 47 210 34 q 220 97 216 75 q 227 139 223 118 q 235 182 231 159 q 244 237 239 205 q 256 310 249 268 q 271 412 262 353 z "},"":{"ha":977,"x_min":152,"x_max":852,"o":"m 833 424 q 808 329 833 371 q 741 255 784 288 q 767 200 758 230 q 776 136 776 171 q 748 43 776 83 q 676 -24 721 3 q 576 -65 632 -52 q 462 -79 519 -79 q 347 -65 403 -79 q 248 -22 291 -51 q 178 50 205 7 q 152 151 152 93 q 162 205 152 182 q 186 245 172 229 q 219 269 201 260 q 251 277 236 277 q 291 268 275 277 q 307 242 307 260 q 301 204 307 226 q 295 152 295 183 q 309 103 295 123 q 347 68 323 82 q 402 48 371 55 q 466 42 433 42 q 515 48 490 42 q 560 67 540 55 q 592 99 580 80 q 605 142 605 118 q 589 198 605 174 q 546 243 572 222 q 485 282 519 264 q 415 319 450 300 q 345 358 379 338 q 284 404 311 378 q 241 459 258 429 q 225 530 225 490 q 250 613 225 573 q 326 686 275 654 q 284 743 300 712 q 269 812 269 774 q 288 884 269 848 q 347 948 308 920 q 446 994 387 976 q 583 1011 505 1011 q 679 995 631 1011 q 765 947 726 978 q 828 874 804 917 q 852 781 852 832 q 845 733 852 753 q 827 702 838 714 q 803 683 817 689 q 776 677 789 677 q 735 692 753 677 q 718 732 718 707 q 721 755 718 743 q 724 779 724 767 q 711 825 724 804 q 675 860 698 846 q 624 882 653 874 q 564 890 595 890 q 506 881 530 890 q 467 859 482 872 q 446 831 452 846 q 439 804 439 816 q 456 767 439 784 q 500 732 473 749 q 564 697 528 715 q 636 659 599 679 q 708 615 673 638 q 771 563 743 591 q 816 500 799 534 q 833 424 833 466 m 682 424 q 658 476 682 452 q 595 522 633 500 q 511 567 557 545 q 420 616 465 590 q 387 576 398 597 q 376 534 376 555 q 388 502 376 517 q 420 473 400 487 q 468 445 441 459 q 525 416 495 431 q 587 385 555 401 q 648 349 618 368 q 673 383 664 364 q 682 424 682 402 z "},"":{"ha":695,"x_min":87,"x_max":609,"o":"m 609 886 q 608 873 609 883 q 605 850 608 863 q 595 823 602 837 q 576 796 588 808 q 545 776 564 784 q 499 768 526 768 q 430 791 457 768 q 404 868 404 814 q 410 912 404 890 q 429 949 416 933 q 462 976 442 966 q 511 986 482 986 q 584 960 559 986 q 609 886 609 935 m 292 886 q 292 873 292 883 q 288 850 291 863 q 277 823 284 837 q 258 796 271 808 q 228 776 246 784 q 182 768 209 768 q 113 791 139 768 q 87 868 87 814 q 93 912 87 890 q 112 949 99 933 q 145 976 125 966 q 194 986 165 986 q 267 960 241 986 q 292 886 292 935 z "},"":{"ha":1215,"x_min":73,"x_max":1103,"o":"m 566 22 q 348 57 441 22 q 194 151 256 92 q 103 287 133 210 q 73 446 73 363 q 90 573 73 509 q 141 696 107 637 q 225 807 175 755 q 342 896 276 858 q 491 955 409 933 q 671 977 573 977 q 810 961 748 977 q 920 917 872 945 q 1003 850 968 888 q 1060 766 1038 812 q 1092 670 1082 721 q 1103 568 1103 620 q 1087 438 1103 504 q 1039 312 1071 373 q 962 198 1008 252 q 857 106 916 145 q 724 44 797 67 q 566 22 651 22 m 568 130 q 692 149 635 130 q 794 199 749 167 q 874 273 840 231 q 931 364 908 316 q 966 464 954 412 q 977 565 977 515 q 959 681 977 626 q 901 777 941 735 q 798 842 861 818 q 646 867 735 867 q 514 849 574 867 q 403 801 453 831 q 315 728 353 770 q 251 640 277 687 q 211 541 224 592 q 198 438 198 489 q 220 321 198 377 q 288 223 242 266 q 404 155 334 180 q 568 130 473 130 m 563 219 q 468 238 509 219 q 400 290 427 258 q 359 366 372 323 q 345 456 345 408 q 353 527 345 490 q 376 601 361 564 q 414 671 391 637 q 465 730 436 705 q 530 770 494 755 q 609 785 566 785 q 671 775 643 785 q 720 747 700 765 q 752 704 741 728 q 764 650 764 679 q 758 608 764 629 q 740 570 751 587 q 713 542 729 553 q 677 532 696 532 q 642 545 650 532 q 633 582 633 558 q 635 611 633 595 q 637 640 637 628 q 634 661 637 652 q 621 669 631 669 q 574 655 594 669 q 542 622 555 642 q 520 577 528 602 q 508 529 512 553 q 503 487 504 506 q 501 459 501 468 q 505 416 501 438 q 520 377 509 395 q 548 348 530 359 q 594 336 566 336 q 630 342 610 336 q 670 357 650 348 q 709 376 690 366 q 743 395 728 386 q 755 398 749 398 q 770 392 763 398 q 783 378 777 387 q 792 358 789 369 q 795 336 795 347 q 791 314 795 324 q 777 298 787 304 q 713 258 748 276 q 645 231 684 243 q 563 219 606 219 z "},"":{"ha":629,"x_min":43,"x_max":694,"o":"m 694 689 q 659 645 681 670 q 608 596 636 619 q 547 558 579 574 q 483 542 515 542 q 418 567 444 542 q 374 640 393 592 q 339 606 359 623 q 294 575 318 589 q 243 553 270 562 q 191 544 217 544 q 136 555 162 544 q 89 588 109 566 q 56 640 68 609 q 43 710 43 671 q 56 801 43 754 q 90 891 68 847 q 141 974 111 935 q 206 1043 171 1013 q 280 1089 241 1072 q 359 1107 319 1107 q 380 1102 372 1107 q 393 1090 388 1097 q 403 1076 398 1083 q 415 1067 408 1069 q 435 1063 425 1063 q 457 1063 446 1063 q 478 1063 468 1063 q 495 1058 488 1063 q 508 1041 503 1053 q 513 1008 513 1029 q 507 946 513 980 q 494 876 501 911 q 481 803 487 840 q 475 735 475 767 q 480 692 475 707 q 501 676 485 676 q 527 682 513 676 q 554 698 541 688 q 582 721 568 708 q 608 747 596 734 q 667 819 637 779 l 694 689 m 193 735 q 195 706 193 720 q 202 682 197 692 q 217 664 208 671 q 239 657 226 657 q 267 666 254 657 q 290 689 279 675 q 310 721 301 703 q 324 758 318 739 q 334 793 330 776 q 340 823 338 810 l 376 995 q 307 969 340 995 q 249 904 274 943 q 208 819 223 865 q 193 735 193 774 z "},"":{"ha":977,"x_min":130,"x_max":964,"o":"m 433 59 q 344 117 380 90 q 279 168 307 144 q 228 216 251 193 q 182 261 205 239 q 142 312 155 287 q 130 361 130 337 q 140 407 130 385 q 167 450 150 429 q 208 490 184 471 q 259 528 232 510 q 277 540 261 529 q 314 566 292 551 q 361 600 336 582 q 408 633 386 618 q 444 659 429 648 q 461 670 459 669 q 480 676 471 674 q 497 677 489 677 q 527 672 513 677 q 551 657 541 667 q 567 634 562 647 q 573 608 573 622 q 556 567 573 587 q 506 524 539 548 l 285 369 l 467 212 q 490 195 475 205 q 518 173 505 186 q 542 144 532 160 q 552 107 552 127 q 547 88 552 98 q 531 70 541 78 q 508 55 522 61 q 476 50 494 50 q 433 59 456 50 m 823 59 q 734 117 771 90 q 670 168 698 144 q 619 216 642 193 q 572 261 596 239 q 533 312 545 287 q 521 361 521 337 q 531 407 521 385 q 558 450 541 429 q 599 490 575 471 q 650 528 623 510 q 667 540 652 529 q 705 566 683 551 q 751 600 726 582 q 798 633 777 618 q 835 659 820 648 q 852 670 850 669 q 870 676 861 674 q 888 677 880 677 q 918 672 904 677 q 942 657 932 667 q 958 634 952 647 q 964 608 964 622 q 947 567 964 587 q 897 524 930 548 l 675 369 l 858 212 q 881 195 866 205 q 909 173 895 186 q 932 144 922 160 q 943 107 943 127 q 937 88 943 98 q 922 70 932 78 q 898 55 912 61 q 867 50 884 50 q 823 59 846 50 z "},"":{"ha":825,"x_min":115,"x_max":702,"o":"m 688 239 q 681 200 687 217 q 664 172 674 183 q 642 155 654 161 q 618 149 630 149 q 595 154 606 149 q 576 169 585 159 q 563 193 568 178 q 557 228 557 208 q 558 232 557 230 q 558 237 558 234 l 567 391 l 199 391 q 162 396 178 391 q 136 409 146 401 q 120 429 125 418 q 115 452 115 440 q 121 476 115 464 q 139 499 127 489 q 168 515 151 509 q 210 521 186 521 l 637 521 q 687 505 671 521 q 702 469 702 490 l 702 465 l 688 239 z "},"":{"ha":1194,"x_min":48,"x_max":1141,"o":"m 580 26 q 346 65 446 26 q 180 171 246 105 q 81 322 114 237 q 48 499 48 408 q 66 634 48 567 q 119 764 84 702 q 208 879 155 825 q 331 972 261 932 q 488 1034 401 1011 q 679 1056 575 1056 q 827 1039 761 1056 q 945 993 894 1023 q 1033 923 996 963 q 1094 834 1070 882 q 1129 733 1118 786 q 1141 625 1141 680 q 1124 481 1141 553 q 1074 343 1107 410 q 994 219 1042 277 q 883 118 945 161 q 745 51 821 75 q 580 26 669 26 m 576 137 q 708 158 648 137 q 816 215 768 178 q 900 299 864 251 q 961 402 937 347 q 998 515 985 457 q 1010 631 1010 574 q 992 751 1010 694 q 937 851 975 808 q 839 920 899 895 q 696 945 779 945 q 540 926 612 945 q 409 874 468 907 q 306 797 351 841 q 231 701 261 752 q 185 593 201 649 q 170 483 170 538 q 194 352 170 415 q 269 242 218 290 q 395 165 319 194 q 576 137 472 137 m 287 339 q 302 332 294 334 q 317 330 310 330 q 347 345 333 330 q 372 382 361 359 q 394 433 384 406 q 411 488 404 461 q 422 535 418 514 q 429 566 427 556 q 401 587 410 578 q 392 609 392 597 q 393 616 392 612 q 396 626 394 621 q 402 634 399 631 q 412 637 406 637 q 419 636 414 637 q 431 634 425 635 q 443 633 437 633 q 449 632 448 632 l 451 639 q 459 671 454 650 q 472 717 465 692 q 490 767 480 741 q 512 812 500 792 q 537 846 524 833 q 565 859 550 859 q 612 863 590 861 q 653 866 632 865 q 688 867 673 867 q 768 855 734 867 q 825 821 802 842 q 858 772 847 800 q 869 715 869 745 q 856 658 869 686 q 817 606 843 629 q 752 567 791 583 q 663 549 714 551 q 698 521 686 538 q 715 483 710 503 q 720 440 720 462 q 721 401 720 418 q 726 372 722 383 q 741 361 730 361 q 766 366 752 361 q 794 379 779 370 q 824 399 809 387 q 852 425 839 411 l 879 349 q 862 336 879 349 q 816 306 844 322 q 753 276 788 290 q 681 262 718 262 q 634 283 650 262 q 611 335 618 304 q 602 402 604 366 q 599 470 601 439 q 591 522 597 501 q 568 543 585 543 l 547 543 q 509 420 528 474 q 466 328 489 366 q 415 271 443 291 q 351 252 387 252 q 311 254 333 252 q 274 269 290 257 l 287 339 m 608 775 q 596 720 602 747 q 585 670 591 696 q 573 623 578 644 q 603 621 588 621 q 663 629 636 621 q 709 650 690 637 q 738 678 728 663 q 748 708 748 693 q 724 755 748 735 q 650 775 701 775 l 608 775 z "},"":{"ha":500,"x_min":43,"x_max":456,"o":"m 43 893 q 68 985 43 945 q 131 1052 93 1025 q 214 1093 169 1079 q 298 1107 258 1107 q 355 1097 327 1107 q 406 1068 383 1088 q 442 1020 428 1049 q 456 951 456 991 q 434 847 456 891 q 377 773 412 803 q 301 730 343 744 q 220 715 260 715 q 160 725 191 715 q 103 754 130 734 q 60 809 77 775 q 43 893 43 843 m 280 1010 q 221 999 246 1010 q 179 971 196 988 q 154 934 162 955 q 146 892 146 913 q 151 863 146 877 q 164 839 155 850 q 188 822 174 828 q 220 816 201 816 q 273 828 250 816 q 312 858 296 840 q 337 898 328 876 q 345 941 345 920 q 329 989 345 969 q 280 1010 313 1010 z "},"":{"ha":877,"x_min":146,"x_max":753,"o":"m 385 415 l 233 415 q 195 420 212 415 q 168 435 178 426 q 151 456 157 444 q 146 479 146 467 q 152 504 146 492 q 169 525 157 515 q 197 539 180 534 q 236 545 214 545 l 385 545 l 385 700 q 392 734 385 719 q 409 759 398 749 q 433 775 420 770 q 459 781 446 781 q 498 764 481 781 q 515 713 515 748 l 515 545 l 685 545 q 736 528 720 545 q 753 489 753 511 q 747 463 753 475 q 731 439 742 450 q 706 421 721 428 q 672 415 691 415 l 515 415 l 515 264 q 510 224 515 241 q 495 196 504 208 q 474 179 486 185 q 450 174 462 174 q 426 179 437 174 q 405 195 414 184 q 391 223 396 206 q 385 261 385 239 l 385 415 m 606 131 q 627 129 615 131 q 648 121 638 127 q 664 105 657 115 q 671 79 671 96 q 668 52 671 66 q 655 27 665 38 q 629 8 646 16 q 584 1 612 1 l 302 1 q 268 8 281 1 q 248 27 255 16 q 239 52 241 39 q 237 75 237 64 q 239 93 237 83 q 248 112 241 103 q 268 125 254 120 q 302 131 281 131 l 606 131 z "},"":{"ha":673,"x_min":25,"x_max":642,"o":"m 519 413 q 438 432 479 413 q 358 476 397 451 q 278 433 321 450 q 187 413 235 416 q 123 423 153 413 q 72 450 94 433 q 38 489 50 467 q 25 535 25 511 q 32 578 25 555 q 54 619 39 600 q 93 650 69 637 q 149 662 116 662 q 240 651 201 662 q 313 624 279 640 q 365 713 344 665 q 387 808 387 761 q 379 867 387 844 q 358 903 371 890 q 331 921 346 916 q 302 925 316 925 q 270 920 286 925 q 244 907 255 916 q 226 886 233 899 q 219 860 219 874 q 233 839 219 850 q 277 815 246 828 q 279 813 278 814 q 279 810 279 812 q 263 795 279 804 q 223 781 248 787 q 171 769 199 774 q 119 764 143 764 q 110 770 115 770 q 102 771 105 771 q 65 813 77 791 q 53 862 53 836 q 73 926 53 895 q 129 984 94 958 q 212 1025 165 1009 q 315 1041 260 1041 q 353 1038 329 1041 q 405 1027 377 1036 q 461 1003 433 1019 q 513 963 490 988 q 551 903 536 939 q 566 818 566 867 q 557 764 566 795 q 534 698 549 732 q 496 627 519 663 q 446 557 474 590 q 490 544 467 549 q 540 540 513 540 q 558 549 548 540 q 577 569 568 558 q 595 588 587 579 q 607 597 603 597 q 634 594 627 597 q 642 579 642 591 q 638 552 642 570 q 629 507 634 535 q 619 475 626 492 q 599 445 612 458 q 566 422 586 431 q 519 413 547 413 m 178 525 q 240 551 204 525 q 213 564 226 559 q 189 568 200 568 q 152 564 163 568 q 140 551 140 559 q 152 533 140 542 q 178 525 164 525 z "},"":{"ha":521,"x_min":45,"x_max":453,"o":"m 150 635 q 164 594 150 606 q 199 581 179 581 q 228 587 213 581 q 254 602 242 592 q 273 626 266 612 q 281 656 281 640 q 273 709 281 688 q 250 743 266 730 q 211 763 235 756 q 156 774 188 770 q 131 781 138 775 q 123 796 123 787 q 125 813 123 804 q 131 830 127 823 q 142 843 136 838 q 159 848 149 848 q 196 856 180 848 q 223 874 212 863 q 240 900 234 886 q 246 926 246 913 q 236 963 246 947 q 204 978 226 978 q 171 969 184 978 q 158 947 158 960 q 162 937 158 942 q 171 928 166 932 q 180 919 176 923 q 184 913 184 916 q 176 905 184 909 q 158 898 168 901 q 138 892 148 895 q 126 890 129 890 q 113 893 120 890 q 101 903 106 896 q 93 922 96 910 q 90 953 90 935 q 103 1002 90 981 q 139 1036 117 1023 q 191 1056 162 1050 q 252 1063 220 1063 q 314 1055 283 1063 q 369 1030 345 1046 q 408 991 393 1015 q 423 939 423 968 q 419 909 423 926 q 402 877 414 893 q 367 847 389 861 q 308 822 345 832 q 374 797 347 814 q 419 756 401 779 q 445 706 437 733 q 453 650 453 679 q 437 593 453 622 q 392 542 420 565 q 323 505 363 519 q 235 491 283 491 q 148 502 184 491 q 89 533 112 513 q 56 581 66 553 q 45 643 45 609 q 51 677 45 663 q 67 700 57 691 q 92 712 78 708 q 120 715 105 715 q 149 712 133 715 q 178 705 164 709 q 200 694 191 700 q 210 682 210 688 q 200 675 210 678 q 179 668 191 672 q 159 656 168 663 q 150 635 150 648 z "},"":{"ha":413,"x_min":69,"x_max":369,"o":"m 76 816 q 87 843 80 825 q 105 883 95 861 q 126 932 115 906 q 149 985 137 959 q 206 1116 175 1046 q 233 1149 215 1139 q 271 1160 251 1160 q 306 1153 288 1160 q 337 1134 323 1146 q 360 1105 351 1122 q 369 1067 369 1088 q 344 1002 369 1036 q 314 963 331 984 q 280 918 298 941 q 243 871 262 895 q 208 828 224 848 q 177 790 191 807 q 155 763 163 773 q 132 744 143 749 q 109 738 120 738 q 81 750 92 738 q 69 783 69 763 q 71 799 69 791 q 76 816 73 807 z "},"":{"ha":652,"x_min":22,"x_max":825,"o":"m 594 607 q 590 557 594 589 q 579 488 586 526 q 566 410 573 450 q 552 336 558 370 q 541 275 545 301 q 537 239 537 249 q 538 204 537 220 q 542 176 538 188 q 552 158 545 164 q 573 151 559 151 q 609 159 588 151 q 655 179 631 166 q 704 207 679 191 q 752 241 729 223 q 793 276 774 258 q 823 308 812 293 q 824 267 823 286 q 824 232 824 249 q 824 198 824 216 q 825 159 825 180 q 788 127 810 144 q 739 93 766 110 q 682 60 712 76 q 621 33 652 45 q 561 14 591 21 q 505 7 531 7 q 461 17 479 7 q 430 45 443 27 q 407 89 416 64 q 391 146 398 115 q 318 69 358 97 q 237 41 277 41 q 199 49 217 41 q 188 -48 193 -7 q 172 -118 182 -90 q 141 -160 161 -146 q 87 -174 122 -174 q 36 -152 51 -174 q 22 -87 22 -131 q 27 -1 22 -54 q 42 116 33 53 q 62 248 51 180 q 84 379 73 317 q 106 492 96 441 q 123 571 116 543 q 133 608 128 593 q 148 632 138 623 q 177 646 158 642 q 228 650 195 650 q 278 642 261 649 q 295 624 295 635 l 295 622 q 282 542 289 586 q 267 453 275 498 q 253 366 260 408 q 241 290 246 323 q 232 237 235 257 q 229 216 229 216 q 232 192 229 203 q 239 172 234 181 q 251 158 243 163 q 269 153 258 153 q 299 160 283 153 q 329 183 315 168 q 353 219 342 197 q 370 267 364 240 l 437 612 q 464 639 440 628 q 519 650 488 650 q 574 638 553 650 q 594 607 594 626 z "},"":{"ha":887,"x_min":65,"x_max":957,"o":"m 620 86 q 644 235 633 161 q 665 380 655 310 q 685 514 675 450 q 705 631 694 578 q 649 626 680 629 q 590 620 618 624 q 551 410 570 514 q 534 316 543 365 q 516 219 526 268 q 499 124 507 171 q 483 37 490 78 q 471 19 479 26 q 451 5 463 11 q 427 -3 440 0 q 399 -5 413 -5 q 369 -2 384 -5 q 341 9 353 2 q 322 28 330 17 q 315 55 315 39 q 319 77 315 65 q 325 112 320 84 q 335 179 329 139 q 349 268 341 220 q 363 367 356 317 q 404 628 381 484 q 249 650 313 628 q 144 709 184 673 q 84 789 103 745 q 65 878 65 833 q 84 957 65 919 q 137 1029 103 996 q 219 1091 172 1063 q 325 1139 267 1119 q 448 1171 382 1160 q 583 1182 513 1182 q 718 1177 663 1182 q 805 1166 772 1172 q 866 1150 844 1158 q 911 1123 891 1140 q 943 1086 928 1109 q 957 1030 957 1063 q 953 998 957 1015 q 940 932 948 977 q 921 826 932 887 q 898 692 911 764 q 873 545 886 620 q 848 397 861 470 q 824 262 835 324 q 803 154 812 201 q 787 85 793 108 q 770 47 781 63 q 745 21 759 31 q 716 5 731 10 q 686 0 701 0 q 637 17 658 0 q 617 64 617 33 q 620 86 617 76 z "},"":{"ha":477,"x_min":217,"x_max":456,"o":"m 456 130 q 455 116 456 127 q 451 91 454 105 q 439 61 447 77 q 417 31 431 45 q 381 9 403 18 q 328 0 359 0 q 283 6 303 0 q 248 26 262 13 q 225 60 233 39 q 217 110 217 81 q 224 158 217 134 q 246 199 231 181 q 285 229 261 218 q 341 239 309 239 q 427 211 397 239 q 456 130 456 182 z "},"":{"ha":803,"x_min":245,"x_max":465,"o":"m 464 31 q 453 -81 457 -39 q 446 -148 449 -123 q 442 -182 444 -172 q 439 -200 440 -193 q 436 -216 437 -208 q 431 -244 434 -224 q 417 -288 428 -269 q 390 -320 406 -307 q 357 -340 375 -333 q 321 -347 338 -347 q 292 -342 306 -347 q 268 -327 279 -337 q 252 -301 258 -317 q 245 -266 245 -286 q 257 -207 245 -237 q 288 -140 269 -176 q 334 -62 308 -104 q 391 31 361 -20 q 408 55 396 45 q 434 65 420 65 q 456 60 447 65 q 465 41 465 54 q 464 31 465 38 z "},"":{"ha":477,"x_min":37,"x_max":412,"o":"m 104 916 q 103 915 103 916 q 102 915 103 915 l 105 916 q 92 913 98 913 q 72 919 81 913 q 54 933 62 924 q 42 954 46 943 q 37 977 37 965 q 46 1005 37 996 q 82 1024 56 1015 q 156 1044 109 1033 q 279 1078 203 1056 q 304 1083 291 1082 q 330 1085 317 1085 q 359 1081 345 1085 q 386 1067 374 1076 q 405 1045 398 1059 q 412 1015 412 1032 q 410 995 412 1015 q 398 928 407 976 q 374 797 390 880 q 334 587 359 714 l 332 581 l 332 583 q 326 555 330 573 q 312 520 321 538 q 286 490 302 503 q 245 477 270 477 q 186 493 209 477 q 164 543 164 508 q 165 554 164 548 q 168 568 166 560 l 167 568 q 195 702 180 633 q 220 826 209 770 q 248 954 234 892 l 104 916 z "},"":{"ha":542,"x_min":47,"x_max":490,"o":"m 328 1106 q 400 1088 369 1106 q 451 1039 431 1069 q 480 967 471 1008 q 490 882 490 927 q 474 763 490 823 q 426 654 457 703 q 347 574 394 605 q 241 543 300 543 q 153 566 189 543 q 93 625 116 588 q 58 707 69 661 q 47 800 47 753 q 70 920 47 864 q 132 1017 93 976 q 221 1082 170 1059 q 328 1106 272 1106 m 260 656 q 299 676 280 656 q 331 727 317 696 q 354 795 345 758 q 362 866 362 832 q 358 916 362 893 q 346 957 354 939 q 325 984 338 974 q 294 994 312 994 q 248 973 269 994 q 210 920 227 952 q 184 850 194 888 q 175 775 175 811 q 179 729 175 751 q 194 691 184 707 q 220 665 204 675 q 260 656 237 656 z "},"":{"ha":977,"x_min":130,"x_max":964,"o":"m 661 59 q 618 50 638 50 q 586 55 600 50 q 563 70 572 61 q 547 88 553 78 q 542 107 542 98 q 552 144 542 127 q 576 173 562 160 q 604 195 589 186 q 627 212 618 205 l 809 369 l 588 524 q 538 567 555 548 q 521 608 521 587 q 527 634 521 622 q 543 657 532 647 q 567 672 553 667 q 597 677 581 677 q 614 676 605 677 q 633 670 623 674 q 650 659 635 669 q 686 633 665 648 q 733 600 708 618 q 780 566 758 582 q 817 540 802 551 q 835 528 832 529 q 886 490 862 510 q 927 450 909 471 q 954 407 944 429 q 964 361 964 385 q 951 312 964 337 q 912 261 939 287 q 866 216 888 239 q 815 168 843 193 q 750 117 787 144 q 661 59 713 90 m 271 59 q 227 50 248 50 q 196 55 210 50 q 172 70 182 61 q 157 88 162 78 q 151 107 151 98 q 161 144 151 127 q 185 173 172 160 q 213 195 199 186 q 236 212 228 205 l 418 369 l 197 524 q 147 567 164 548 q 130 608 130 587 q 136 634 130 622 q 152 657 142 647 q 176 672 162 667 q 206 677 190 677 q 223 676 214 677 q 242 670 233 674 q 259 659 244 669 q 296 633 274 648 q 342 600 317 618 q 389 566 368 582 q 426 540 411 551 q 444 528 441 529 q 495 490 471 510 q 536 450 519 471 q 563 407 553 429 q 573 361 573 385 q 561 312 573 337 q 522 261 549 287 q 475 216 498 239 q 424 168 452 193 q 359 117 396 144 q 271 59 322 90 z "},"":{"ha":1193,"x_min":37,"x_max":1161,"o":"m 673 955 q 688 972 678 964 q 710 986 698 980 q 736 995 722 991 q 762 998 749 998 q 799 987 783 998 q 815 951 815 977 q 809 917 815 937 q 789 873 804 897 q 721 753 760 823 q 635 598 683 684 q 528 412 587 513 q 400 199 470 312 q 368 167 387 177 q 331 157 349 157 q 289 173 307 157 q 271 219 271 189 q 276 249 271 233 q 292 285 281 266 q 317 328 300 298 q 357 399 334 358 q 407 489 380 439 q 464 590 435 538 q 523 695 493 642 q 580 796 553 748 q 631 885 608 844 q 673 955 655 926 m 104 916 q 103 915 103 916 q 102 915 103 915 l 105 916 q 92 913 98 913 q 72 919 81 913 q 54 933 62 924 q 42 954 46 943 q 37 977 37 965 q 46 1005 37 996 q 82 1024 56 1015 q 156 1044 109 1033 q 279 1078 203 1056 q 304 1083 291 1082 q 330 1085 317 1085 q 359 1081 345 1085 q 386 1067 374 1076 q 405 1045 398 1059 q 412 1015 412 1032 q 410 995 412 1015 q 398 928 407 976 q 374 797 390 880 q 334 587 359 714 l 332 581 l 332 583 q 326 555 330 573 q 312 520 321 538 q 286 490 302 503 q 245 477 270 477 q 186 493 209 477 q 164 543 164 508 q 165 554 164 548 q 168 568 166 560 l 167 568 q 195 702 180 633 q 220 826 209 770 q 248 954 234 892 l 104 916 m 1054 -26 q 999 -28 1027 -26 q 945 -31 971 -31 q 910 -28 926 -31 q 885 -17 895 -25 q 869 4 874 -9 q 863 39 863 18 q 869 95 863 63 q 885 161 876 126 q 813 153 846 161 q 752 136 781 145 q 697 119 723 127 q 646 112 671 112 q 629 120 634 112 q 625 139 625 127 q 635 176 625 155 q 661 220 645 197 q 685 282 674 254 q 705 337 696 311 q 721 391 713 364 q 736 449 729 418 q 751 515 743 479 q 767 593 758 550 q 782 610 770 603 q 810 621 793 616 q 845 627 826 625 q 884 629 865 629 q 913 628 899 629 q 938 624 928 627 q 955 618 949 621 q 961 610 961 614 q 941 518 954 564 q 911 425 928 472 q 873 331 894 378 q 829 233 852 283 q 868 232 852 233 q 898 232 884 232 l 906 232 q 931 308 919 271 q 955 377 944 345 q 969 404 959 393 q 992 422 979 415 q 1020 432 1006 429 q 1045 435 1034 435 q 1085 427 1075 435 q 1095 402 1095 418 q 1091 376 1095 393 q 1080 339 1087 360 q 1065 295 1074 319 q 1047 245 1056 271 q 1103 255 1078 251 q 1146 260 1128 260 q 1158 253 1154 260 q 1161 235 1161 246 q 1156 194 1161 210 q 1145 170 1152 178 q 1133 158 1139 161 q 1124 155 1126 155 q 1074 156 1100 155 q 1019 159 1048 157 q 1006 86 1008 117 l 1006 75 q 1015 50 1006 64 q 1035 23 1024 36 q 1054 -2 1045 9 q 1063 -20 1063 -14 q 1062 -25 1063 -24 q 1054 -26 1060 -26 z "},"":{"ha":1173,"x_min":37,"x_max":1182,"o":"m 638 955 q 653 972 644 964 q 675 986 663 980 q 701 995 688 991 q 727 998 715 998 q 765 987 749 998 q 781 951 781 977 q 775 917 781 937 q 755 873 769 897 q 687 753 725 823 q 600 598 648 684 q 494 412 552 513 q 366 199 435 312 q 333 167 352 177 q 296 157 314 157 q 255 173 273 157 q 237 219 237 189 q 241 249 237 233 q 258 285 246 266 q 282 328 266 298 q 322 399 299 358 q 373 489 345 439 q 429 590 400 538 q 488 695 458 642 q 546 796 518 748 q 597 885 573 844 q 638 955 621 926 m 104 960 q 103 960 103 960 q 102 960 103 960 l 105 960 q 92 958 98 958 q 72 964 81 958 q 54 978 62 969 q 42 999 46 987 q 37 1021 37 1010 q 46 1050 37 1040 q 82 1069 56 1060 q 156 1089 109 1078 q 279 1123 203 1101 q 304 1128 291 1126 q 330 1130 317 1130 q 359 1125 345 1130 q 386 1112 374 1121 q 405 1090 398 1103 q 412 1060 412 1077 q 410 1040 412 1059 q 398 972 407 1021 q 374 842 390 924 q 334 631 359 759 l 332 626 l 332 627 q 326 600 330 618 q 312 565 321 583 q 286 535 302 548 q 245 522 270 522 q 186 537 209 522 q 164 587 164 553 q 165 599 164 593 q 168 612 166 605 l 167 612 q 195 746 180 678 q 220 871 209 814 q 248 998 234 937 l 104 960 m 1059 1 q 978 20 1019 1 q 898 64 937 39 q 818 21 861 37 q 727 1 775 4 q 663 11 692 1 q 612 38 633 21 q 577 77 590 55 q 565 123 565 99 q 572 165 565 143 q 594 207 579 188 q 632 237 609 225 q 689 250 656 250 q 780 238 741 250 q 852 212 819 227 q 905 300 884 252 q 926 395 926 349 q 919 455 926 432 q 898 491 911 478 q 871 508 886 504 q 842 513 856 513 q 810 508 825 513 q 784 495 795 503 q 766 474 772 486 q 759 448 759 462 q 772 427 759 437 q 817 403 786 416 q 819 400 818 401 q 819 398 819 399 q 803 383 819 391 q 763 368 787 375 q 711 357 739 361 q 659 352 683 352 q 650 358 654 357 q 642 359 645 359 q 605 401 616 378 q 593 450 593 424 q 613 514 593 482 q 669 571 633 546 q 752 613 705 597 q 854 629 800 629 q 893 626 869 629 q 945 615 917 623 q 1001 591 972 606 q 1053 551 1029 576 q 1091 490 1076 526 q 1105 406 1105 454 q 1097 351 1105 382 q 1074 286 1089 320 q 1036 214 1059 251 q 985 144 1014 178 q 1029 132 1006 136 q 1080 127 1053 127 q 1098 137 1088 127 q 1117 156 1107 146 q 1135 176 1126 167 q 1147 185 1143 185 q 1174 182 1166 185 q 1182 167 1182 178 q 1178 140 1182 157 q 1168 95 1174 123 q 1159 63 1166 79 q 1139 33 1152 46 q 1106 10 1126 19 q 1059 1 1086 1 m 718 113 q 780 139 744 113 q 753 151 766 146 q 729 156 740 156 q 692 151 703 156 q 680 139 680 146 q 692 121 680 130 q 718 113 704 113 z "},"":{"ha":1216,"x_min":24,"x_max":1180,"o":"m 672 955 q 687 972 677 964 q 709 986 697 980 q 735 995 722 991 q 761 998 749 998 q 799 987 783 998 q 814 951 814 977 q 809 917 814 937 q 789 873 803 897 q 721 753 759 823 q 634 598 682 684 q 528 412 586 513 q 399 199 469 312 q 367 167 386 177 q 330 157 348 157 q 289 173 307 157 q 271 219 271 189 q 275 249 271 233 q 292 285 280 266 q 316 328 300 298 q 356 399 333 358 q 407 489 379 439 q 463 590 434 538 q 522 695 492 642 q 579 796 552 748 q 631 885 607 844 q 672 955 654 926 m 129 721 q 143 679 129 692 q 178 667 158 667 q 207 672 192 667 q 233 688 221 677 q 252 712 245 698 q 260 742 260 726 q 252 794 260 773 q 229 828 245 815 q 190 849 214 842 q 135 859 167 856 q 110 867 117 861 q 102 882 102 873 q 104 899 102 890 q 110 916 106 908 q 121 929 115 924 q 138 934 128 934 q 175 941 159 934 q 202 960 191 949 q 219 985 213 971 q 225 1012 225 999 q 215 1048 225 1033 q 183 1063 205 1063 q 150 1054 163 1063 q 137 1032 137 1045 q 141 1023 137 1027 q 150 1013 145 1018 q 159 1005 155 1008 q 163 998 163 1001 q 155 990 163 994 q 137 983 147 986 q 117 978 127 980 q 105 976 108 976 q 92 979 99 976 q 80 988 85 981 q 72 1008 75 996 q 68 1038 68 1020 q 82 1087 68 1067 q 118 1122 96 1108 q 170 1142 141 1135 q 231 1148 199 1148 q 293 1140 262 1148 q 348 1116 324 1132 q 387 1077 372 1100 q 402 1025 402 1054 q 398 995 402 1011 q 381 963 393 979 q 346 932 368 947 q 287 907 323 918 q 353 882 326 899 q 398 842 380 865 q 424 791 416 819 q 432 736 432 764 q 416 679 432 707 q 371 628 399 650 q 302 591 342 605 q 214 576 262 576 q 127 588 163 576 q 68 619 91 599 q 35 667 45 639 q 24 728 24 694 q 30 763 24 749 q 46 785 36 777 q 71 797 57 793 q 99 801 84 801 q 127 798 112 801 q 157 790 143 795 q 179 779 170 785 q 189 768 189 773 q 179 761 189 764 q 158 753 170 758 q 138 741 147 749 q 129 721 129 734 m 1064 -26 q 1005 -28 1035 -26 q 947 -31 975 -31 q 909 -27 925 -31 q 881 -16 892 -24 q 864 8 869 -7 q 858 48 858 24 q 865 111 858 75 q 882 185 871 146 q 804 177 840 185 q 738 158 769 168 q 679 139 707 147 q 623 130 650 130 q 606 139 611 130 q 600 161 600 148 q 611 202 600 178 q 640 252 622 226 q 666 322 654 290 q 687 384 677 354 q 705 445 696 414 q 721 510 713 475 q 736 584 728 544 q 754 673 745 623 q 771 691 758 684 q 801 704 783 699 q 839 711 819 709 q 880 713 860 713 q 912 712 897 713 q 939 707 928 710 q 957 700 950 705 q 964 691 964 696 q 942 587 956 639 q 910 484 928 536 q 868 377 891 431 q 821 267 846 323 q 864 265 846 266 q 896 265 882 264 l 905 265 q 932 351 918 309 q 957 429 945 393 q 972 459 961 447 q 998 480 983 472 q 1027 491 1012 488 q 1055 495 1042 495 q 1098 485 1086 495 q 1109 457 1109 475 q 1104 428 1109 446 q 1093 387 1100 410 q 1076 336 1085 363 q 1057 281 1066 309 q 1118 291 1090 286 q 1164 296 1145 296 q 1176 289 1173 296 q 1180 269 1180 281 q 1175 222 1180 240 q 1163 195 1170 205 q 1149 182 1156 185 q 1139 179 1143 179 q 1085 180 1114 179 q 1027 182 1057 181 q 1017 140 1021 161 q 1012 101 1013 119 l 1012 88 q 1022 60 1012 76 q 1043 30 1031 45 q 1064 1 1055 14 q 1074 -19 1074 -12 q 1073 -24 1074 -22 q 1064 -26 1071 -26 z "},"":{"ha":876,"x_min":267,"x_max":787,"o":"m 572 690 q 601 740 583 723 q 642 757 620 757 q 684 747 666 757 q 702 713 702 736 q 690 631 702 667 q 660 565 679 595 q 617 509 641 534 q 567 461 593 484 q 518 415 542 438 q 475 366 494 392 q 444 310 456 340 q 433 242 433 280 q 439 188 433 210 q 458 154 446 167 q 487 136 471 141 q 523 130 503 130 q 562 137 542 130 q 602 156 583 144 q 637 182 621 168 q 665 212 654 197 q 687 230 675 224 q 711 235 699 235 q 736 229 724 235 q 757 212 748 223 q 772 188 766 201 q 777 157 777 174 q 775 142 777 150 q 767 126 772 134 q 719 72 747 96 q 659 32 691 48 q 592 8 627 16 q 524 0 557 0 q 437 13 482 0 q 354 55 391 26 q 292 126 316 83 q 267 229 267 169 q 284 352 267 301 q 329 441 301 403 q 390 508 356 479 q 458 564 424 536 q 522 621 492 591 q 572 690 552 650 m 549 957 q 549 970 549 960 q 554 996 550 981 q 565 1026 557 1010 q 587 1055 573 1042 q 623 1078 602 1069 q 676 1086 645 1086 q 722 1080 701 1086 q 756 1060 742 1074 q 779 1026 771 1047 q 787 977 787 1006 q 780 929 787 952 q 758 887 773 905 q 720 858 743 869 q 663 847 696 847 q 578 876 607 847 q 549 957 549 904 z "},"":{"ha":1096,"x_min":87,"x_max":1270,"o":"m 941 1385 q 946 1369 945 1377 q 948 1353 948 1360 q 937 1320 948 1333 q 909 1308 925 1308 q 885 1313 897 1308 q 863 1333 873 1319 q 840 1360 854 1343 q 810 1397 827 1377 q 774 1441 793 1418 q 738 1488 755 1464 q 703 1532 720 1511 q 673 1571 686 1554 q 648 1637 648 1607 q 657 1674 648 1657 q 680 1704 666 1691 q 711 1723 694 1716 q 747 1729 729 1729 q 784 1719 766 1729 q 811 1686 802 1709 q 869 1554 842 1615 q 891 1502 880 1529 q 912 1453 903 1476 q 930 1412 922 1430 q 941 1385 937 1394 m 1270 152 q 1233 118 1255 137 q 1184 80 1211 99 q 1124 42 1156 60 q 1059 9 1093 24 q 992 -13 1026 -5 q 928 -22 959 -22 q 884 -14 906 -22 q 844 13 862 -7 q 814 68 826 33 q 803 160 803 104 q 806 211 803 184 q 815 271 810 239 q 729 124 777 194 q 628 14 682 54 q 516 -46 574 -26 q 401 -66 458 -66 q 281 -44 338 -66 q 181 21 224 -22 q 112 130 138 65 q 87 305 87 195 q 102 443 87 371 q 146 588 117 515 q 217 733 176 661 q 311 870 258 805 q 427 990 364 935 q 561 1085 490 1045 q 711 1149 632 1126 q 874 1172 789 1172 q 911 1168 897 1172 q 932 1159 925 1164 q 941 1147 939 1153 q 943 1136 943 1141 q 943 1130 943 1133 q 943 1126 943 1127 l 943 1122 q 980 1109 961 1112 q 1017 1105 999 1107 q 1052 1098 1036 1103 q 1080 1077 1068 1093 q 1100 1030 1093 1061 q 1107 947 1107 1000 q 1099 856 1107 907 q 1078 749 1091 805 q 1049 637 1065 694 q 1018 526 1034 580 q 987 425 1002 473 q 962 342 972 378 q 958 287 960 313 q 957 233 957 261 q 958 198 957 212 q 962 176 959 184 q 969 164 964 168 q 981 161 974 161 q 1016 169 995 161 q 1060 187 1036 176 q 1108 212 1083 198 q 1157 240 1134 226 q 1201 265 1181 254 q 1235 284 1221 277 l 1270 152 m 949 1029 q 900 1039 925 1036 q 850 1042 874 1042 q 742 1021 795 1042 q 638 963 688 1000 q 542 878 587 927 q 456 772 496 829 q 385 654 416 715 q 330 533 353 593 q 294 415 307 472 q 282 309 282 357 q 320 138 282 191 q 439 85 359 85 q 535 106 490 85 q 618 162 580 127 q 689 251 657 196 q 746 349 722 305 q 785 434 770 393 q 808 505 801 475 l 949 1029 z "},"":{"ha":1096,"x_min":87,"x_max":1270,"o":"m 880 1385 q 892 1412 884 1394 q 909 1453 899 1430 q 930 1502 919 1476 q 953 1554 941 1529 q 1010 1686 979 1615 q 1037 1719 1019 1709 q 1075 1729 1055 1729 q 1110 1723 1093 1729 q 1142 1704 1128 1716 q 1164 1674 1156 1691 q 1173 1637 1173 1657 q 1148 1571 1173 1605 q 1119 1532 1135 1554 q 1084 1488 1102 1511 q 1047 1441 1066 1464 q 1012 1397 1029 1418 q 981 1360 995 1377 q 959 1333 967 1343 q 936 1313 947 1319 q 913 1308 924 1308 q 885 1320 897 1308 q 873 1353 873 1333 q 875 1369 873 1360 q 880 1385 877 1377 m 1270 152 q 1233 118 1255 137 q 1184 80 1211 99 q 1124 42 1156 60 q 1059 9 1093 24 q 992 -13 1026 -5 q 928 -22 959 -22 q 884 -14 906 -22 q 844 13 862 -7 q 814 68 826 33 q 803 160 803 104 q 806 211 803 184 q 815 271 810 239 q 729 124 777 194 q 628 14 682 54 q 516 -46 574 -26 q 401 -66 458 -66 q 281 -44 338 -66 q 181 21 224 -22 q 112 130 138 65 q 87 305 87 195 q 102 443 87 371 q 146 588 117 515 q 217 733 176 661 q 311 870 258 805 q 427 990 364 935 q 561 1085 490 1045 q 711 1149 632 1126 q 874 1172 789 1172 q 911 1168 897 1172 q 932 1159 925 1164 q 941 1147 939 1153 q 943 1136 943 1141 q 943 1130 943 1133 q 943 1126 943 1127 l 943 1122 q 980 1109 961 1112 q 1017 1105 999 1107 q 1052 1098 1036 1103 q 1080 1077 1068 1093 q 1100 1030 1093 1061 q 1107 947 1107 1000 q 1099 856 1107 907 q 1078 749 1091 805 q 1049 637 1065 694 q 1018 526 1034 580 q 987 425 1002 473 q 962 342 972 378 q 958 287 960 313 q 957 233 957 261 q 958 198 957 212 q 962 176 959 184 q 969 164 964 168 q 981 161 974 161 q 1016 169 995 161 q 1060 187 1036 176 q 1108 212 1083 198 q 1157 240 1134 226 q 1201 265 1181 254 q 1235 284 1221 277 l 1270 152 m 949 1029 q 900 1039 925 1036 q 850 1042 874 1042 q 742 1021 795 1042 q 638 963 688 1000 q 542 878 587 927 q 456 772 496 829 q 385 654 416 715 q 330 533 353 593 q 294 415 307 472 q 282 309 282 357 q 320 138 282 191 q 439 85 359 85 q 535 106 490 85 q 618 162 580 127 q 689 251 657 196 q 746 349 722 305 q 785 434 770 393 q 808 505 801 475 l 949 1029 z "},"":{"ha":1096,"x_min":87,"x_max":1270,"o":"m 972 1655 q 926 1550 948 1600 q 907 1507 917 1529 q 888 1465 897 1485 q 871 1427 880 1444 q 858 1397 863 1409 q 829 1348 844 1365 q 801 1322 815 1330 q 772 1312 786 1314 q 743 1310 758 1310 q 728 1315 736 1310 q 714 1327 720 1319 q 703 1347 707 1335 q 700 1372 699 1358 q 707 1398 701 1385 l 831 1621 q 868 1683 852 1656 q 901 1729 884 1710 q 939 1756 918 1747 q 990 1766 960 1766 q 1040 1755 1020 1766 q 1072 1722 1059 1744 q 1094 1669 1085 1700 q 1110 1596 1103 1637 q 1120 1559 1116 1573 q 1127 1534 1124 1545 q 1132 1514 1130 1523 q 1138 1491 1135 1504 q 1146 1458 1141 1477 q 1159 1408 1151 1438 q 1160 1384 1161 1396 q 1138 1330 1159 1352 q 1078 1308 1117 1308 q 1054 1312 1065 1308 q 1032 1326 1042 1316 q 1016 1353 1023 1336 q 1007 1397 1009 1371 q 993 1516 1000 1467 q 982 1596 986 1565 q 972 1655 977 1632 m 1270 152 q 1233 118 1255 137 q 1184 80 1211 99 q 1124 42 1156 60 q 1059 9 1093 24 q 992 -13 1026 -5 q 928 -22 959 -22 q 884 -14 906 -22 q 844 13 862 -7 q 814 68 826 33 q 803 160 803 104 q 806 211 803 184 q 815 271 810 239 q 729 124 777 194 q 628 14 682 54 q 516 -46 574 -26 q 401 -66 458 -66 q 281 -44 338 -66 q 181 21 224 -22 q 112 130 138 65 q 87 305 87 195 q 102 443 87 371 q 146 588 117 515 q 217 733 176 661 q 311 870 258 805 q 427 990 364 935 q 561 1085 490 1045 q 711 1149 632 1126 q 874 1172 789 1172 q 911 1168 897 1172 q 932 1159 925 1164 q 941 1147 939 1153 q 943 1136 943 1141 q 943 1130 943 1133 q 943 1126 943 1127 l 943 1122 q 980 1109 961 1112 q 1017 1105 999 1107 q 1052 1098 1036 1103 q 1080 1077 1068 1093 q 1100 1030 1093 1061 q 1107 947 1107 1000 q 1099 856 1107 907 q 1078 749 1091 805 q 1049 637 1065 694 q 1018 526 1034 580 q 987 425 1002 473 q 962 342 972 378 q 958 287 960 313 q 957 233 957 261 q 958 198 957 212 q 962 176 959 184 q 969 164 964 168 q 981 161 974 161 q 1016 169 995 161 q 1060 187 1036 176 q 1108 212 1083 198 q 1157 240 1134 226 q 1201 265 1181 254 q 1235 284 1221 277 l 1270 152 m 949 1029 q 900 1039 925 1036 q 850 1042 874 1042 q 742 1021 795 1042 q 638 963 688 1000 q 542 878 587 927 q 456 772 496 829 q 385 654 416 715 q 330 533 353 593 q 294 415 307 472 q 282 309 282 357 q 320 138 282 191 q 439 85 359 85 q 535 106 490 85 q 618 162 580 127 q 689 251 657 196 q 746 349 722 305 q 785 434 770 393 q 808 505 801 475 l 949 1029 z "},"":{"ha":1096,"x_min":87,"x_max":1270,"o":"m 1042 1424 q 1058 1444 1050 1433 q 1074 1466 1065 1454 q 1091 1492 1082 1478 q 1125 1524 1105 1514 q 1164 1535 1145 1535 q 1204 1522 1187 1535 q 1221 1485 1221 1509 q 1211 1449 1221 1468 q 1190 1410 1203 1434 q 1158 1363 1177 1385 q 1113 1324 1139 1340 q 1054 1308 1087 1308 q 1016 1313 1033 1308 q 976 1334 998 1319 q 921 1375 954 1349 q 838 1440 889 1400 q 822 1419 830 1430 q 806 1398 814 1410 q 789 1373 797 1386 q 755 1340 775 1351 q 715 1330 735 1330 q 676 1343 692 1330 q 659 1379 659 1356 q 669 1415 659 1396 q 690 1455 677 1431 q 722 1502 703 1479 q 767 1541 741 1525 q 826 1557 793 1557 q 864 1551 847 1557 q 904 1531 882 1546 q 959 1490 926 1516 q 1042 1424 991 1464 m 1270 152 q 1233 118 1255 137 q 1184 80 1211 99 q 1124 42 1156 60 q 1059 9 1093 24 q 992 -13 1026 -5 q 928 -22 959 -22 q 884 -14 906 -22 q 844 13 862 -7 q 814 68 826 33 q 803 160 803 104 q 806 211 803 184 q 815 271 810 239 q 729 124 777 194 q 628 14 682 54 q 516 -46 574 -26 q 401 -66 458 -66 q 281 -44 338 -66 q 181 21 224 -22 q 112 130 138 65 q 87 305 87 195 q 102 443 87 371 q 146 588 117 515 q 217 733 176 661 q 311 870 258 805 q 427 990 364 935 q 561 1085 490 1045 q 711 1149 632 1126 q 874 1172 789 1172 q 911 1168 897 1172 q 932 1159 925 1164 q 941 1147 939 1153 q 943 1136 943 1141 q 943 1130 943 1133 q 943 1126 943 1127 l 943 1122 q 980 1109 961 1112 q 1017 1105 999 1107 q 1052 1098 1036 1103 q 1080 1077 1068 1093 q 1100 1030 1093 1061 q 1107 947 1107 1000 q 1099 856 1107 907 q 1078 749 1091 805 q 1049 637 1065 694 q 1018 526 1034 580 q 987 425 1002 473 q 962 342 972 378 q 958 287 960 313 q 957 233 957 261 q 958 198 957 212 q 962 176 959 184 q 969 164 964 168 q 981 161 974 161 q 1016 169 995 161 q 1060 187 1036 176 q 1108 212 1083 198 q 1157 240 1134 226 q 1201 265 1181 254 q 1235 284 1221 277 l 1270 152 m 949 1029 q 900 1039 925 1036 q 850 1042 874 1042 q 742 1021 795 1042 q 638 963 688 1000 q 542 878 587 927 q 456 772 496 829 q 385 654 416 715 q 330 533 353 593 q 294 415 307 472 q 282 309 282 357 q 320 138 282 191 q 439 85 359 85 q 535 106 490 85 q 618 162 580 127 q 689 251 657 196 q 746 349 722 305 q 785 434 770 393 q 808 505 801 475 l 949 1029 z "},"":{"ha":1096,"x_min":87,"x_max":1270,"o":"m 1197 1426 q 1196 1413 1197 1423 q 1193 1390 1196 1403 q 1183 1362 1190 1377 q 1164 1336 1176 1348 q 1133 1316 1152 1324 q 1087 1308 1114 1308 q 1018 1331 1045 1308 q 991 1408 991 1354 q 998 1452 991 1430 q 1017 1489 1004 1473 q 1050 1516 1030 1506 q 1099 1526 1070 1526 q 1172 1500 1147 1526 q 1197 1426 1197 1474 m 880 1426 q 880 1413 880 1423 q 876 1390 879 1403 q 865 1362 872 1377 q 846 1336 859 1348 q 815 1316 834 1324 q 770 1308 797 1308 q 701 1331 727 1308 q 675 1408 675 1354 q 681 1452 675 1430 q 700 1489 687 1473 q 733 1516 713 1506 q 782 1526 753 1526 q 855 1500 829 1526 q 880 1426 880 1474 m 1270 152 q 1233 118 1255 137 q 1184 80 1211 99 q 1124 42 1156 60 q 1059 9 1093 24 q 992 -13 1026 -5 q 928 -22 959 -22 q 884 -14 906 -22 q 844 13 862 -7 q 814 68 826 33 q 803 160 803 104 q 806 211 803 184 q 815 271 810 239 q 729 124 777 194 q 628 14 682 54 q 516 -46 574 -26 q 401 -66 458 -66 q 281 -44 338 -66 q 181 21 224 -22 q 112 130 138 65 q 87 305 87 195 q 102 443 87 371 q 146 588 117 515 q 217 733 176 661 q 311 870 258 805 q 427 990 364 935 q 561 1085 490 1045 q 711 1149 632 1126 q 874 1172 789 1172 q 911 1168 897 1172 q 932 1159 925 1164 q 941 1147 939 1153 q 943 1136 943 1141 q 943 1130 943 1133 q 943 1126 943 1127 l 943 1122 q 980 1109 961 1112 q 1017 1105 999 1107 q 1052 1098 1036 1103 q 1080 1077 1068 1093 q 1100 1030 1093 1061 q 1107 947 1107 1000 q 1099 856 1107 907 q 1078 749 1091 805 q 1049 637 1065 694 q 1018 526 1034 580 q 987 425 1002 473 q 962 342 972 378 q 958 287 960 313 q 957 233 957 261 q 958 198 957 212 q 962 176 959 184 q 969 164 964 168 q 981 161 974 161 q 1016 169 995 161 q 1060 187 1036 176 q 1108 212 1083 198 q 1157 240 1134 226 q 1201 265 1181 254 q 1235 284 1221 277 l 1270 152 m 949 1029 q 900 1039 925 1036 q 850 1042 874 1042 q 742 1021 795 1042 q 638 963 688 1000 q 542 878 587 927 q 456 772 496 829 q 385 654 416 715 q 330 533 353 593 q 294 415 307 472 q 282 309 282 357 q 320 138 282 191 q 439 85 359 85 q 535 106 490 85 q 618 162 580 127 q 689 251 657 196 q 746 349 722 305 q 785 434 770 393 q 808 505 801 475 l 949 1029 z "},"":{"ha":1096,"x_min":87,"x_max":1270,"o":"m 751 1374 q 761 1432 751 1405 q 789 1479 771 1458 q 829 1517 806 1501 q 877 1545 852 1533 q 929 1561 903 1556 q 979 1567 955 1567 q 1029 1558 1004 1567 q 1074 1532 1055 1550 q 1106 1488 1094 1514 q 1119 1426 1119 1461 q 1099 1332 1119 1372 q 1049 1265 1080 1292 q 981 1226 1019 1239 q 908 1213 943 1213 q 855 1221 883 1213 q 804 1248 827 1230 q 766 1298 781 1267 q 751 1374 751 1329 m 962 1479 q 909 1469 931 1479 q 872 1444 886 1459 q 850 1410 857 1429 q 842 1373 842 1392 q 846 1347 842 1360 q 859 1325 850 1335 q 880 1310 867 1316 q 908 1304 892 1304 q 956 1315 935 1304 q 991 1342 977 1325 q 1013 1378 1005 1358 q 1021 1417 1021 1398 q 1006 1461 1021 1443 q 962 1479 992 1479 m 1270 152 q 1233 118 1255 137 q 1184 80 1211 99 q 1124 42 1156 60 q 1059 9 1093 24 q 992 -13 1026 -5 q 928 -22 959 -22 q 884 -14 906 -22 q 844 13 862 -7 q 814 68 826 33 q 803 160 803 104 q 806 211 803 184 q 815 271 810 239 q 729 124 777 194 q 628 14 682 54 q 516 -46 574 -26 q 401 -66 458 -66 q 281 -44 338 -66 q 181 21 224 -22 q 112 130 138 65 q 87 305 87 195 q 102 443 87 371 q 146 588 117 515 q 217 733 176 661 q 311 870 258 805 q 427 990 364 935 q 561 1085 490 1045 q 711 1149 632 1126 q 874 1172 789 1172 q 911 1168 897 1172 q 932 1159 925 1164 q 941 1147 939 1153 q 943 1136 943 1141 q 943 1130 943 1133 q 943 1126 943 1127 l 943 1122 q 980 1109 961 1112 q 1017 1105 999 1107 q 1052 1098 1036 1103 q 1080 1077 1068 1093 q 1100 1030 1093 1061 q 1107 947 1107 1000 q 1099 856 1107 907 q 1078 749 1091 805 q 1049 637 1065 694 q 1018 526 1034 580 q 987 425 1002 473 q 962 342 972 378 q 958 287 960 313 q 957 233 957 261 q 958 198 957 212 q 962 176 959 184 q 969 164 964 168 q 981 161 974 161 q 1016 169 995 161 q 1060 187 1036 176 q 1108 212 1083 198 q 1157 240 1134 226 q 1201 265 1181 254 q 1235 284 1221 277 l 1270 152 m 949 1029 q 900 1039 925 1036 q 850 1042 874 1042 q 742 1021 795 1042 q 638 963 688 1000 q 542 878 587 927 q 456 772 496 829 q 385 654 416 715 q 330 533 353 593 q 294 415 307 472 q 282 309 282 357 q 320 138 282 191 q 439 85 359 85 q 535 106 490 85 q 618 162 580 127 q 689 251 657 196 q 746 349 722 305 q 785 434 770 393 q 808 505 801 475 l 949 1029 z "},"":{"ha":1563,"x_min":87,"x_max":1742,"o":"m 1742 170 q 1618 67 1687 111 q 1474 -6 1549 24 q 1322 -50 1399 -35 q 1172 -65 1244 -65 q 1037 -47 1101 -65 q 926 7 973 -29 q 850 97 878 43 q 823 223 823 151 q 825 260 823 241 q 735 142 787 197 q 627 45 684 87 q 511 -20 570 4 q 401 -43 452 -43 q 281 -21 338 -43 q 181 44 224 1 q 112 153 138 88 q 87 305 87 218 q 116 488 87 394 q 199 669 145 581 q 327 835 252 757 q 493 971 402 913 q 688 1063 584 1029 q 906 1097 793 1097 q 951 1093 928 1097 q 994 1077 975 1088 q 1026 1049 1013 1066 q 1038 1008 1038 1032 q 1036 989 1038 999 q 1093 1065 1063 1034 q 1155 1115 1122 1097 q 1223 1142 1188 1134 q 1295 1150 1258 1150 q 1396 1138 1344 1150 q 1500 1109 1448 1126 q 1602 1073 1552 1092 q 1700 1040 1653 1054 q 1715 1022 1711 1034 q 1720 996 1720 1010 q 1715 964 1720 981 q 1702 934 1710 947 q 1684 911 1694 920 q 1662 903 1673 903 q 1649 906 1654 903 q 1587 943 1626 923 q 1500 980 1548 963 q 1402 1008 1453 997 q 1305 1020 1352 1020 q 1214 997 1254 1020 q 1145 939 1175 975 q 1096 860 1116 903 q 1064 775 1076 817 q 1047 701 1052 734 q 1042 651 1042 667 q 1172 662 1109 657 q 1226 666 1198 664 q 1280 669 1254 668 q 1328 672 1305 671 q 1367 673 1351 673 q 1413 655 1398 673 q 1428 614 1428 637 q 1423 589 1428 602 q 1408 566 1418 576 q 1382 549 1398 555 q 1345 543 1367 543 q 1315 541 1339 543 q 1258 537 1291 539 q 1186 532 1224 534 q 1113 527 1147 529 q 1053 523 1079 524 q 1020 521 1027 521 q 999 446 1008 487 q 985 365 991 412 q 979 264 979 318 q 993 180 979 214 q 1033 125 1008 146 q 1093 96 1059 104 q 1168 87 1128 87 q 1269 96 1216 87 q 1374 122 1322 106 q 1477 162 1427 139 q 1569 211 1527 184 q 1645 266 1612 237 q 1695 323 1677 294 l 1742 170 m 949 967 q 802 943 879 967 q 651 874 725 918 q 510 768 576 829 q 392 634 443 707 q 312 479 342 562 q 282 309 282 396 q 320 161 282 214 q 439 109 359 109 q 537 137 490 109 q 627 212 585 166 q 705 314 669 258 q 770 427 741 371 q 818 530 798 482 q 846 608 838 578 l 949 967 z "},"":{"ha":1023,"x_min":65,"x_max":1198,"o":"m 1198 229 q 1133 192 1164 215 q 1070 140 1102 168 q 1004 82 1038 113 q 930 21 970 51 q 844 -37 890 -9 q 740 -85 797 -64 q 615 -118 684 -106 q 465 -130 547 -130 q 299 -93 373 -130 q 174 6 226 -56 q 93 152 121 69 q 65 327 65 235 q 79 461 65 389 q 118 607 92 532 q 180 755 143 681 q 263 897 216 829 q 365 1022 309 964 q 484 1123 420 1080 q 616 1191 547 1166 q 762 1215 686 1215 q 861 1198 810 1215 q 951 1145 911 1181 q 1016 1054 991 1109 q 1042 924 1042 999 q 1026 823 1042 874 q 982 725 1010 772 q 917 636 954 677 q 836 565 879 595 q 745 517 792 534 q 652 499 699 499 q 559 516 590 499 q 529 564 529 532 q 529 576 529 569 q 528 592 528 584 q 530 617 528 604 q 535 642 531 631 q 547 659 539 652 q 568 666 555 666 q 583 664 576 666 q 596 659 589 661 q 614 653 604 656 q 641 651 625 651 q 729 670 684 651 q 809 724 773 689 q 867 806 844 758 q 890 911 890 854 q 882 969 890 942 q 855 1018 873 997 q 808 1051 837 1038 q 738 1063 779 1063 q 643 1042 689 1063 q 553 984 596 1021 q 472 897 511 947 q 401 790 434 847 q 343 670 369 732 q 298 547 317 608 q 270 427 280 485 q 260 320 260 369 q 278 198 260 250 q 327 112 295 146 q 405 60 359 77 q 509 43 451 43 q 643 61 581 43 q 761 109 705 79 q 870 174 817 138 q 975 248 922 211 q 1082 318 1027 285 q 1198 375 1137 352 l 1198 229 m 530 -135 q 519 -247 524 -205 q 513 -314 515 -290 q 508 -349 510 -338 q 505 -367 507 -359 q 502 -382 504 -374 q 498 -410 500 -391 q 483 -454 494 -435 q 457 -486 472 -473 q 423 -506 441 -499 q 387 -513 405 -513 q 359 -508 372 -513 q 335 -493 345 -503 q 318 -468 324 -483 q 312 -432 312 -452 q 323 -373 312 -404 q 355 -306 335 -342 q 401 -228 374 -270 q 457 -135 427 -186 q 475 -111 463 -121 q 500 -101 487 -101 q 523 -106 513 -101 q 532 -125 532 -112 q 530 -135 532 -128 z "},"":{"ha":877,"x_min":43,"x_max":1040,"o":"m 686 1385 q 691 1369 689 1377 q 692 1353 692 1360 q 681 1320 692 1333 q 653 1308 669 1308 q 630 1313 642 1308 q 607 1333 618 1319 q 585 1360 598 1343 q 554 1397 571 1377 q 518 1441 537 1418 q 482 1488 500 1464 q 447 1532 464 1511 q 418 1571 431 1554 q 393 1637 393 1607 q 401 1674 393 1657 q 424 1704 410 1691 q 456 1723 438 1716 q 491 1729 473 1729 q 529 1719 511 1729 q 555 1686 547 1709 q 613 1554 587 1615 q 635 1502 624 1529 q 657 1453 647 1476 q 674 1412 667 1430 q 686 1385 682 1394 m 1002 170 q 878 67 947 111 q 734 -6 809 24 q 582 -50 659 -35 q 432 -65 505 -65 q 281 -46 352 -65 q 158 11 211 -28 q 74 107 105 49 q 43 247 43 166 q 68 378 43 315 q 145 490 93 441 q 278 569 197 539 q 472 602 359 599 q 342 623 397 602 q 250 681 286 644 q 195 765 213 717 q 176 868 176 814 q 194 961 176 919 q 242 1037 212 1003 q 315 1095 273 1070 q 407 1137 357 1120 q 510 1162 456 1154 q 618 1171 564 1171 q 774 1153 698 1171 q 909 1101 850 1136 q 1004 1015 968 1067 q 1040 894 1040 963 q 1023 846 1040 869 q 983 803 1006 822 q 935 773 960 785 q 892 762 909 762 q 878 787 878 762 q 885 845 878 810 q 909 933 892 880 q 856 963 891 948 q 776 990 821 978 q 682 1010 732 1002 q 583 1018 631 1018 q 496 1010 537 1018 q 423 983 454 1002 q 373 934 391 964 q 354 859 354 903 q 367 797 354 822 q 402 754 380 772 q 453 725 425 736 q 512 705 481 714 q 572 688 543 696 q 626 670 602 680 q 668 644 651 659 q 690 607 685 629 q 693 578 692 593 q 694 550 694 564 q 680 495 694 512 q 625 477 666 477 q 581 479 607 477 q 531 481 555 481 q 425 468 477 481 q 331 426 372 454 q 264 358 290 399 q 239 264 239 318 q 253 180 239 214 q 293 125 268 146 q 353 96 319 104 q 428 87 388 87 q 529 96 476 87 q 634 122 582 106 q 737 162 687 139 q 829 211 787 184 q 905 266 872 237 q 955 323 937 294 l 1002 170 z "},"":{"ha":877,"x_min":43,"x_max":1040,"o":"m 625 1385 q 637 1412 629 1394 q 654 1453 644 1430 q 675 1502 664 1476 q 698 1554 686 1529 q 755 1686 724 1615 q 782 1719 764 1709 q 820 1729 800 1729 q 855 1723 838 1729 q 887 1704 873 1716 q 909 1674 901 1691 q 918 1637 918 1657 q 893 1571 918 1605 q 864 1532 880 1554 q 829 1488 847 1511 q 792 1441 811 1464 q 757 1397 774 1418 q 726 1360 740 1377 q 704 1333 712 1343 q 681 1313 692 1319 q 658 1308 669 1308 q 630 1320 642 1308 q 618 1353 618 1333 q 620 1369 618 1360 q 625 1385 622 1377 m 1002 170 q 878 67 947 111 q 734 -6 809 24 q 582 -50 659 -35 q 432 -65 505 -65 q 281 -46 352 -65 q 158 11 211 -28 q 74 107 105 49 q 43 247 43 166 q 68 378 43 315 q 145 490 93 441 q 278 569 197 539 q 472 602 359 599 q 342 623 397 602 q 250 681 286 644 q 195 765 213 717 q 176 868 176 814 q 194 961 176 919 q 242 1037 212 1003 q 315 1095 273 1070 q 407 1137 357 1120 q 510 1162 456 1154 q 618 1171 564 1171 q 774 1153 698 1171 q 909 1101 850 1136 q 1004 1015 968 1067 q 1040 894 1040 963 q 1023 846 1040 869 q 983 803 1006 822 q 935 773 960 785 q 892 762 909 762 q 878 787 878 762 q 885 845 878 810 q 909 933 892 880 q 856 963 891 948 q 776 990 821 978 q 682 1010 732 1002 q 583 1018 631 1018 q 496 1010 537 1018 q 423 983 454 1002 q 373 934 391 964 q 354 859 354 903 q 367 797 354 822 q 402 754 380 772 q 453 725 425 736 q 512 705 481 714 q 572 688 543 696 q 626 670 602 680 q 668 644 651 659 q 690 607 685 629 q 693 578 692 593 q 694 550 694 564 q 680 495 694 512 q 625 477 666 477 q 581 479 607 477 q 531 481 555 481 q 425 468 477 481 q 331 426 372 454 q 264 358 290 399 q 239 264 239 318 q 253 180 239 214 q 293 125 268 146 q 353 96 319 104 q 428 87 388 87 q 529 96 476 87 q 634 122 582 106 q 737 162 687 139 q 829 211 787 184 q 905 266 872 237 q 955 323 937 294 l 1002 170 z "},"":{"ha":877,"x_min":43,"x_max":1040,"o":"m 718 1655 q 671 1550 693 1600 q 652 1507 662 1529 q 633 1465 642 1485 q 616 1427 625 1444 q 603 1397 608 1409 q 574 1348 589 1365 q 546 1322 560 1330 q 517 1312 531 1314 q 488 1310 503 1310 q 473 1315 481 1310 q 459 1327 465 1319 q 448 1347 452 1335 q 445 1372 444 1358 q 452 1398 446 1385 l 576 1621 q 613 1683 597 1656 q 646 1729 629 1710 q 684 1756 663 1747 q 735 1766 705 1766 q 785 1755 765 1766 q 817 1722 804 1744 q 839 1669 830 1700 q 855 1596 848 1637 q 865 1559 861 1573 q 872 1534 869 1545 q 877 1514 875 1523 q 883 1491 880 1504 q 891 1458 886 1477 q 904 1408 896 1438 q 905 1384 906 1396 q 883 1330 904 1352 q 823 1308 862 1308 q 799 1312 810 1308 q 777 1326 787 1316 q 761 1353 768 1336 q 752 1397 754 1371 q 738 1516 745 1467 q 727 1596 731 1565 q 718 1655 722 1632 m 1002 170 q 878 67 947 111 q 734 -6 809 24 q 582 -50 659 -35 q 432 -65 505 -65 q 281 -46 352 -65 q 158 11 211 -28 q 74 107 105 49 q 43 247 43 166 q 68 378 43 315 q 145 490 93 441 q 278 569 197 539 q 472 602 359 599 q 342 623 397 602 q 250 681 286 644 q 195 765 213 717 q 176 868 176 814 q 194 961 176 919 q 242 1037 212 1003 q 315 1095 273 1070 q 407 1137 357 1120 q 510 1162 456 1154 q 618 1171 564 1171 q 774 1153 698 1171 q 909 1101 850 1136 q 1004 1015 968 1067 q 1040 894 1040 963 q 1023 846 1040 869 q 983 803 1006 822 q 935 773 960 785 q 892 762 909 762 q 878 787 878 762 q 885 845 878 810 q 909 933 892 880 q 856 963 891 948 q 776 990 821 978 q 682 1010 732 1002 q 583 1018 631 1018 q 496 1010 537 1018 q 423 983 454 1002 q 373 934 391 964 q 354 859 354 903 q 367 797 354 822 q 402 754 380 772 q 453 725 425 736 q 512 705 481 714 q 572 688 543 696 q 626 670 602 680 q 668 644 651 659 q 690 607 685 629 q 693 578 692 593 q 694 550 694 564 q 680 495 694 512 q 625 477 666 477 q 581 479 607 477 q 531 481 555 481 q 425 468 477 481 q 331 426 372 454 q 264 358 290 399 q 239 264 239 318 q 253 180 239 214 q 293 125 268 146 q 353 96 319 104 q 428 87 388 87 q 529 96 476 87 q 634 122 582 106 q 737 162 687 139 q 829 211 787 184 q 905 266 872 237 q 955 323 937 294 l 1002 170 z "},"":{"ha":877,"x_min":43,"x_max":1040,"o":"m 942 1426 q 941 1413 942 1423 q 938 1390 941 1403 q 928 1362 935 1377 q 909 1336 921 1348 q 878 1316 897 1324 q 832 1308 859 1308 q 763 1331 790 1308 q 736 1408 736 1354 q 743 1452 736 1430 q 762 1489 749 1473 q 795 1516 775 1506 q 844 1526 815 1526 q 917 1500 892 1526 q 942 1426 942 1474 m 625 1426 q 625 1413 625 1423 q 621 1390 624 1403 q 610 1362 617 1377 q 591 1336 604 1348 q 561 1316 579 1324 q 515 1308 542 1308 q 446 1331 472 1308 q 420 1408 420 1354 q 426 1452 420 1430 q 445 1489 432 1473 q 478 1516 458 1506 q 527 1526 498 1526 q 600 1500 574 1526 q 625 1426 625 1474 m 1002 170 q 878 67 947 111 q 734 -6 809 24 q 582 -50 659 -35 q 432 -65 505 -65 q 281 -46 352 -65 q 158 11 211 -28 q 74 107 105 49 q 43 247 43 166 q 68 378 43 315 q 145 490 93 441 q 278 569 197 539 q 472 602 359 599 q 342 623 397 602 q 250 681 286 644 q 195 765 213 717 q 176 868 176 814 q 194 961 176 919 q 242 1037 212 1003 q 315 1095 273 1070 q 407 1137 357 1120 q 510 1162 456 1154 q 618 1171 564 1171 q 774 1153 698 1171 q 909 1101 850 1136 q 1004 1015 968 1067 q 1040 894 1040 963 q 1023 846 1040 869 q 983 803 1006 822 q 935 773 960 785 q 892 762 909 762 q 878 787 878 762 q 885 845 878 810 q 909 933 892 880 q 856 963 891 948 q 776 990 821 978 q 682 1010 732 1002 q 583 1018 631 1018 q 496 1010 537 1018 q 423 983 454 1002 q 373 934 391 964 q 354 859 354 903 q 367 797 354 822 q 402 754 380 772 q 453 725 425 736 q 512 705 481 714 q 572 688 543 696 q 626 670 602 680 q 668 644 651 659 q 690 607 685 629 q 693 578 692 593 q 694 550 694 564 q 680 495 694 512 q 625 477 666 477 q 581 479 607 477 q 531 481 555 481 q 425 468 477 481 q 331 426 372 454 q 264 358 290 399 q 239 264 239 318 q 253 180 239 214 q 293 125 268 146 q 353 96 319 104 q 428 87 388 87 q 529 96 476 87 q 634 122 582 106 q 737 162 687 139 q 829 211 787 184 q 905 266 872 237 q 955 323 937 294 l 1002 170 z "},"":{"ha":585,"x_min":-68,"x_max":783,"o":"m 660 1385 q 665 1369 663 1377 q 667 1353 667 1360 q 655 1320 667 1333 q 627 1308 644 1308 q 604 1313 616 1308 q 581 1333 592 1319 q 559 1360 572 1343 q 528 1397 545 1377 q 493 1441 511 1418 q 456 1488 474 1464 q 421 1532 438 1511 q 392 1571 405 1554 q 367 1637 367 1607 q 376 1674 367 1657 q 398 1704 385 1691 q 430 1723 412 1716 q 465 1729 448 1729 q 503 1719 485 1729 q 530 1686 521 1709 q 587 1554 561 1615 q 610 1502 598 1529 q 631 1453 621 1476 q 648 1412 641 1430 q 660 1385 656 1394 m 210 952 q 207 951 210 952 q 203 975 205 951 q 201 1040 201 999 q 209 1061 201 1048 q 234 1089 216 1074 q 280 1119 252 1104 q 353 1146 309 1134 q 456 1166 397 1158 q 593 1173 515 1173 q 698 1167 661 1173 q 755 1150 736 1160 q 778 1125 774 1139 q 783 1097 783 1112 q 779 1068 783 1082 q 762 1043 776 1054 q 719 1025 747 1031 q 641 1018 690 1018 q 596 1020 618 1018 q 563 888 577 946 q 537 780 549 829 q 516 688 526 731 q 497 600 507 644 q 476 508 487 556 q 451 401 465 460 q 419 271 437 343 q 376 106 400 199 q 394 105 380 106 q 428 100 409 104 q 468 92 447 97 q 507 78 490 86 q 536 59 525 70 q 548 34 548 48 q 499 -22 548 5 q 453 -22 485 -22 q 379 -22 422 -22 q 287 -22 336 -22 q 188 -22 237 -22 q 92 -22 138 -22 q 10 -21 45 -22 q -46 -20 -25 -21 q -68 -18 -68 -20 q -61 -12 -68 -16 q -47 0 -55 -7 q -31 20 -39 8 q -22 48 -24 31 q 1 70 -20 60 q 54 89 23 81 q 118 103 84 98 q 179 111 153 109 q 221 288 200 199 q 263 462 243 377 q 304 627 284 547 q 343 777 324 707 q 380 905 362 846 q 413 1006 397 963 q 369 1001 388 1004 q 335 995 350 998 q 307 987 320 991 q 279 978 294 983 q 249 967 265 973 q 210 952 232 960 z "},"":{"ha":585,"x_min":-68,"x_max":892,"o":"m 600 1385 q 611 1412 604 1394 q 628 1453 618 1430 q 649 1502 638 1476 q 672 1554 661 1529 q 730 1686 699 1615 q 756 1719 739 1709 q 794 1729 774 1729 q 829 1723 812 1729 q 861 1704 847 1716 q 884 1674 875 1691 q 892 1637 892 1657 q 867 1571 892 1605 q 838 1532 854 1554 q 803 1488 821 1511 q 767 1441 785 1464 q 731 1397 748 1418 q 700 1360 714 1377 q 678 1333 686 1343 q 655 1313 667 1319 q 632 1308 644 1308 q 604 1320 616 1308 q 593 1353 593 1333 q 594 1369 593 1360 q 600 1385 596 1377 m 210 952 q 207 951 210 952 q 203 975 205 951 q 201 1040 201 999 q 209 1061 201 1048 q 234 1089 216 1074 q 280 1119 252 1104 q 353 1146 309 1134 q 456 1166 397 1158 q 593 1173 515 1173 q 698 1167 661 1173 q 755 1150 736 1160 q 778 1125 774 1139 q 783 1097 783 1112 q 779 1068 783 1082 q 762 1043 776 1054 q 719 1025 747 1031 q 641 1018 690 1018 q 596 1020 618 1018 q 563 888 577 946 q 537 780 549 829 q 516 688 526 731 q 497 600 507 644 q 476 508 487 556 q 451 401 465 460 q 419 271 437 343 q 376 106 400 199 q 394 105 380 106 q 428 100 409 104 q 468 92 447 97 q 507 78 490 86 q 536 59 525 70 q 548 34 548 48 q 499 -22 548 5 q 453 -22 485 -22 q 379 -22 422 -22 q 287 -22 336 -22 q 188 -22 237 -22 q 92 -22 138 -22 q 10 -21 45 -22 q -46 -20 -25 -21 q -68 -18 -68 -20 q -61 -12 -68 -16 q -47 0 -55 -7 q -31 20 -39 8 q -22 48 -24 31 q 1 70 -20 60 q 54 89 23 81 q 118 103 84 98 q 179 111 153 109 q 221 288 200 199 q 263 462 243 377 q 304 627 284 547 q 343 777 324 707 q 380 905 362 846 q 413 1006 397 963 q 369 1001 388 1004 q 335 995 350 998 q 307 987 320 991 q 279 978 294 983 q 249 967 265 973 q 210 952 232 960 z "},"":{"ha":585,"x_min":-68,"x_max":840,"o":"m 651 1655 q 605 1550 627 1600 q 586 1507 595 1529 q 567 1465 576 1485 q 550 1427 558 1444 q 536 1397 542 1409 q 508 1348 522 1365 q 479 1322 494 1330 q 450 1312 465 1314 q 422 1310 436 1310 q 407 1315 414 1310 q 392 1327 399 1319 q 382 1347 386 1335 q 378 1372 378 1358 q 386 1398 380 1385 l 510 1621 q 547 1683 530 1656 q 579 1729 563 1710 q 617 1756 596 1747 q 669 1766 638 1766 q 718 1755 699 1766 q 751 1722 738 1744 q 772 1669 764 1700 q 789 1596 781 1637 q 799 1559 795 1573 q 805 1534 802 1545 q 811 1514 808 1523 q 817 1491 813 1504 q 825 1458 820 1477 q 838 1408 829 1438 q 839 1384 840 1396 q 817 1330 838 1352 q 757 1308 795 1308 q 732 1312 744 1308 q 711 1326 720 1316 q 694 1353 701 1336 q 686 1397 688 1371 q 671 1516 678 1467 q 661 1596 665 1565 q 651 1655 655 1632 m 210 952 q 207 951 210 952 q 203 975 205 951 q 201 1040 201 999 q 209 1061 201 1048 q 234 1089 216 1074 q 280 1119 252 1104 q 353 1146 309 1134 q 456 1166 397 1158 q 593 1173 515 1173 q 698 1167 661 1173 q 755 1150 736 1160 q 778 1125 774 1139 q 783 1097 783 1112 q 779 1068 783 1082 q 762 1043 776 1054 q 719 1025 747 1031 q 641 1018 690 1018 q 596 1020 618 1018 q 563 888 577 946 q 537 780 549 829 q 516 688 526 731 q 497 600 507 644 q 476 508 487 556 q 451 401 465 460 q 419 271 437 343 q 376 106 400 199 q 394 105 380 106 q 428 100 409 104 q 468 92 447 97 q 507 78 490 86 q 536 59 525 70 q 548 34 548 48 q 499 -22 548 5 q 453 -22 485 -22 q 379 -22 422 -22 q 287 -22 336 -22 q 188 -22 237 -22 q 92 -22 138 -22 q 10 -21 45 -22 q -46 -20 -25 -21 q -68 -18 -68 -20 q -61 -12 -68 -16 q -47 0 -55 -7 q -31 20 -39 8 q -22 48 -24 31 q 1 70 -20 60 q 54 89 23 81 q 118 103 84 98 q 179 111 153 109 q 221 288 200 199 q 263 462 243 377 q 304 627 284 547 q 343 777 324 707 q 380 905 362 846 q 413 1006 397 963 q 369 1001 388 1004 q 335 995 350 998 q 307 987 320 991 q 279 978 294 983 q 249 967 265 973 q 210 952 232 960 z "},"":{"ha":585,"x_min":-68,"x_max":916,"o":"m 916 1426 q 916 1413 916 1423 q 912 1390 915 1403 q 902 1362 909 1377 q 883 1336 895 1348 q 852 1316 871 1324 q 806 1308 833 1308 q 738 1331 764 1308 q 711 1408 711 1354 q 717 1452 711 1430 q 736 1489 723 1473 q 769 1516 749 1506 q 818 1526 789 1526 q 891 1500 866 1526 q 916 1426 916 1474 m 600 1426 q 599 1413 600 1423 q 595 1390 598 1403 q 585 1362 591 1377 q 566 1336 578 1348 q 535 1316 553 1324 q 490 1308 516 1308 q 420 1331 446 1308 q 394 1408 394 1354 q 400 1452 394 1430 q 419 1489 406 1473 q 452 1516 432 1506 q 501 1526 473 1526 q 574 1500 549 1526 q 600 1426 600 1474 m 210 952 q 207 951 210 952 q 203 975 205 951 q 201 1040 201 999 q 209 1061 201 1048 q 234 1089 216 1074 q 280 1119 252 1104 q 353 1146 309 1134 q 456 1166 397 1158 q 593 1173 515 1173 q 698 1167 661 1173 q 755 1150 736 1160 q 778 1125 774 1139 q 783 1097 783 1112 q 779 1068 783 1082 q 762 1043 776 1054 q 719 1025 747 1031 q 641 1018 690 1018 q 596 1020 618 1018 q 563 888 577 946 q 537 780 549 829 q 516 688 526 731 q 497 600 507 644 q 476 508 487 556 q 451 401 465 460 q 419 271 437 343 q 376 106 400 199 q 394 105 380 106 q 428 100 409 104 q 468 92 447 97 q 507 78 490 86 q 536 59 525 70 q 548 34 548 48 q 499 -22 548 5 q 453 -22 485 -22 q 379 -22 422 -22 q 287 -22 336 -22 q 188 -22 237 -22 q 92 -22 138 -22 q 10 -21 45 -22 q -46 -20 -25 -21 q -68 -18 -68 -20 q -61 -12 -68 -16 q -47 0 -55 -7 q -31 20 -39 8 q -22 48 -24 31 q 1 70 -20 60 q 54 89 23 81 q 118 103 84 98 q 179 111 153 109 q 221 288 200 199 q 263 462 243 377 q 304 627 284 547 q 343 777 324 707 q 380 905 362 846 q 413 1006 397 963 q 369 1001 388 1004 q 335 995 350 998 q 307 987 320 991 q 279 978 294 983 q 249 967 265 973 q 210 952 232 960 z "},"":{"ha":863,"x_min":22,"x_max":955,"o":"m 149 673 q 205 849 174 766 q 275 999 237 933 q 358 1107 313 1065 q 452 1162 402 1150 q 481 1166 465 1164 q 512 1170 494 1168 q 550 1172 530 1172 q 678 1154 621 1172 q 780 1104 735 1136 q 858 1028 825 1072 q 912 931 891 983 q 944 819 934 878 q 955 697 955 760 q 936 524 955 612 q 881 354 917 436 q 792 200 845 272 q 672 75 740 128 q 523 -10 604 21 q 347 -41 441 -41 q 282 -36 315 -41 q 218 -23 249 -31 q 159 -5 186 -15 q 110 16 131 5 q 93 23 101 19 q 79 32 85 26 q 69 44 73 37 q 65 63 65 52 q 68 173 65 115 q 79 292 72 231 q 95 416 85 353 q 118 543 105 479 l 81 543 q 51 548 62 543 q 33 563 39 554 q 24 583 26 572 q 22 604 22 593 q 23 623 22 612 q 32 646 24 635 q 53 665 39 657 q 94 673 67 673 l 149 673 m 326 87 q 458 115 395 87 q 574 192 521 144 q 669 305 627 241 q 741 440 711 369 q 787 584 771 511 q 803 725 803 657 q 783 849 803 794 q 731 942 764 904 q 656 1000 699 980 q 569 1020 614 1020 q 493 991 528 1020 q 429 915 458 963 q 377 805 400 867 q 335 673 353 742 l 506 673 q 525 671 515 673 q 544 664 535 669 q 559 650 553 659 q 565 628 565 642 q 561 599 565 614 q 547 571 557 584 q 519 551 537 559 q 471 543 500 543 l 305 543 q 285 427 294 484 q 271 322 277 371 q 263 236 266 274 q 260 175 260 197 q 262 133 260 150 q 270 106 264 116 q 290 91 277 96 q 326 87 303 87 z "},"":{"ha":1096,"x_min":-28,"x_max":1318,"o":"m 970 1424 q 986 1444 978 1433 q 1002 1466 994 1454 q 1019 1492 1010 1478 q 1053 1524 1033 1514 q 1093 1535 1073 1535 q 1132 1522 1116 1535 q 1149 1485 1149 1509 q 1139 1449 1149 1468 q 1118 1410 1131 1434 q 1086 1363 1105 1385 q 1041 1324 1067 1340 q 982 1308 1015 1308 q 944 1313 961 1308 q 904 1334 926 1319 q 849 1375 882 1349 q 766 1440 817 1400 q 750 1419 758 1430 q 734 1398 743 1410 q 717 1373 725 1386 q 683 1340 703 1351 q 644 1330 663 1330 q 604 1343 621 1330 q 587 1379 587 1356 q 597 1415 587 1396 q 618 1455 605 1431 q 650 1502 631 1479 q 695 1541 669 1525 q 754 1557 721 1557 q 792 1551 775 1557 q 832 1531 810 1546 q 887 1490 854 1516 q 970 1424 919 1464 m 311 516 q 403 757 357 654 q 492 933 448 860 q 577 1052 536 1006 q 657 1125 618 1099 q 732 1162 696 1152 q 802 1172 768 1172 q 869 1153 842 1172 q 915 1104 897 1134 q 941 1038 933 1074 q 949 968 949 1002 q 943 877 949 927 q 927 772 937 827 q 906 657 918 716 q 885 539 895 597 q 869 424 876 480 q 863 317 863 367 q 864 280 863 300 q 868 240 865 260 q 878 199 871 219 q 896 164 884 180 q 923 139 907 149 q 963 130 940 130 q 1032 146 996 130 q 1103 187 1068 162 q 1170 240 1138 212 q 1225 294 1201 269 q 1263 335 1249 319 q 1277 353 1277 352 l 1318 205 q 1268 148 1296 176 q 1208 93 1240 119 q 1141 45 1177 67 q 1068 7 1105 23 q 993 -19 1031 -9 q 919 -28 956 -28 q 836 -12 871 -28 q 773 33 800 5 q 730 97 747 60 q 702 176 712 134 q 687 260 691 217 q 682 342 682 302 q 691 446 682 395 q 711 546 699 497 q 739 642 724 595 q 766 733 753 689 q 786 820 778 778 q 795 900 795 861 q 793 927 795 910 q 788 960 792 944 q 774 987 783 975 q 748 998 764 998 q 692 973 721 998 q 633 903 663 947 q 572 797 603 858 q 512 664 542 735 q 452 515 481 593 q 395 358 422 437 q 342 202 368 279 q 294 58 316 125 q 250 6 275 21 q 195 -9 225 -9 q 160 -2 177 -9 q 131 20 144 5 q 111 56 118 35 q 103 104 103 77 q 106 156 103 133 q 114 203 109 179 q 145 346 131 280 q 172 471 160 412 q 194 587 184 531 q 212 700 204 643 q 227 816 220 756 q 237 943 233 876 q 237 959 237 949 q 235 977 237 968 q 228 991 233 985 q 213 998 223 998 q 180 985 199 998 q 140 949 161 972 q 98 896 119 926 q 59 830 77 865 q 46 815 55 820 q 26 811 37 811 q 8 817 18 811 q -9 831 -1 823 q -23 848 -18 839 q -28 865 -28 857 q -26 871 -28 869 q 25 1001 -3 948 q 86 1087 54 1055 q 152 1135 119 1120 q 217 1150 185 1150 q 298 1136 265 1150 q 351 1095 331 1121 q 380 1032 372 1069 q 389 951 389 996 q 382 854 389 906 q 361 748 374 803 q 332 635 349 692 q 299 520 316 577 l 311 516 z "},"":{"ha":1096,"x_min":65,"x_max":1107,"o":"m 728 1385 q 733 1369 732 1377 q 735 1353 735 1360 q 724 1320 735 1333 q 696 1308 712 1308 q 672 1313 684 1308 q 650 1333 661 1319 q 627 1360 641 1343 q 597 1397 614 1377 q 561 1441 580 1418 q 525 1488 543 1464 q 490 1532 507 1511 q 460 1571 473 1554 q 435 1637 435 1607 q 444 1674 435 1657 q 467 1704 453 1691 q 498 1723 481 1716 q 534 1729 516 1729 q 571 1719 553 1729 q 598 1686 589 1709 q 656 1554 629 1615 q 678 1502 667 1529 q 700 1453 690 1476 q 717 1412 709 1430 q 728 1385 724 1394 m 503 -130 q 321 -89 402 -130 q 183 27 240 -47 q 96 204 126 101 q 65 429 65 307 q 75 563 65 494 q 103 700 84 631 q 152 833 123 768 q 219 957 180 899 q 304 1064 257 1015 q 409 1149 352 1114 q 533 1205 467 1185 q 675 1225 599 1225 q 857 1188 777 1225 q 992 1086 937 1152 q 1077 929 1048 1020 q 1107 728 1107 838 q 1089 538 1107 637 q 1036 344 1071 439 q 950 163 1002 249 q 831 12 899 77 q 682 -92 764 -54 q 503 -130 600 -130 m 519 35 q 621 56 574 35 q 706 114 667 77 q 778 200 745 151 q 835 305 810 249 q 879 422 860 361 q 909 541 897 482 q 927 655 922 600 q 933 754 933 709 q 919 877 933 819 q 876 976 905 934 q 803 1043 847 1019 q 701 1067 760 1067 q 581 1037 639 1067 q 471 956 522 1007 q 376 837 419 905 q 303 695 334 770 q 256 543 273 621 q 239 395 239 466 q 258 253 239 319 q 314 138 277 186 q 402 63 350 90 q 519 35 454 35 z "},"":{"ha":1096,"x_min":65,"x_max":1107,"o":"m 668 1385 q 680 1412 672 1394 q 697 1453 687 1430 q 718 1502 707 1476 q 741 1554 729 1529 q 798 1686 767 1615 q 825 1719 807 1709 q 863 1729 843 1729 q 898 1723 880 1729 q 929 1704 916 1716 q 952 1674 943 1691 q 961 1637 961 1657 q 936 1571 961 1605 q 906 1532 923 1554 q 872 1488 890 1511 q 835 1441 854 1464 q 800 1397 817 1418 q 769 1360 783 1377 q 747 1333 755 1343 q 724 1313 735 1319 q 701 1308 712 1308 q 673 1320 684 1308 q 661 1353 661 1333 q 663 1369 661 1360 q 668 1385 665 1377 m 503 -130 q 321 -89 402 -130 q 183 27 240 -47 q 96 204 126 101 q 65 429 65 307 q 75 563 65 494 q 103 700 84 631 q 152 833 123 768 q 219 957 180 899 q 304 1064 257 1015 q 409 1149 352 1114 q 533 1205 467 1185 q 675 1225 599 1225 q 857 1188 777 1225 q 992 1086 937 1152 q 1077 929 1048 1020 q 1107 728 1107 838 q 1089 538 1107 637 q 1036 344 1071 439 q 950 163 1002 249 q 831 12 899 77 q 682 -92 764 -54 q 503 -130 600 -130 m 519 35 q 621 56 574 35 q 706 114 667 77 q 778 200 745 151 q 835 305 810 249 q 879 422 860 361 q 909 541 897 482 q 927 655 922 600 q 933 754 933 709 q 919 877 933 819 q 876 976 905 934 q 803 1043 847 1019 q 701 1067 760 1067 q 581 1037 639 1067 q 471 956 522 1007 q 376 837 419 905 q 303 695 334 770 q 256 543 273 621 q 239 395 239 466 q 258 253 239 319 q 314 138 277 186 q 402 63 350 90 q 519 35 454 35 z "},"":{"ha":1096,"x_min":65,"x_max":1107,"o":"m 760 1655 q 714 1550 736 1600 q 695 1507 705 1529 q 676 1465 685 1485 q 659 1427 667 1444 q 646 1397 651 1409 q 617 1348 631 1365 q 588 1322 603 1330 q 559 1312 574 1314 q 531 1310 545 1310 q 516 1315 524 1310 q 502 1327 508 1319 q 491 1347 495 1335 q 488 1372 487 1358 q 495 1398 489 1385 l 619 1621 q 656 1683 640 1656 q 689 1729 672 1710 q 726 1756 705 1747 q 778 1766 747 1766 q 827 1755 808 1766 q 860 1722 847 1744 q 882 1669 873 1700 q 898 1596 890 1637 q 908 1559 904 1573 q 915 1534 911 1545 q 920 1514 918 1523 q 926 1491 922 1504 q 934 1458 929 1477 q 947 1408 939 1438 q 948 1384 949 1396 q 926 1330 947 1352 q 866 1308 905 1308 q 841 1312 853 1308 q 820 1326 829 1316 q 804 1353 810 1336 q 795 1397 797 1371 q 781 1516 787 1467 q 770 1596 774 1565 q 760 1655 764 1632 m 503 -130 q 321 -89 402 -130 q 183 27 240 -47 q 96 204 126 101 q 65 429 65 307 q 75 563 65 494 q 103 700 84 631 q 152 833 123 768 q 219 957 180 899 q 304 1064 257 1015 q 409 1149 352 1114 q 533 1205 467 1185 q 675 1225 599 1225 q 857 1188 777 1225 q 992 1086 937 1152 q 1077 929 1048 1020 q 1107 728 1107 838 q 1089 538 1107 637 q 1036 344 1071 439 q 950 163 1002 249 q 831 12 899 77 q 682 -92 764 -54 q 503 -130 600 -130 m 519 35 q 621 56 574 35 q 706 114 667 77 q 778 200 745 151 q 835 305 810 249 q 879 422 860 361 q 909 541 897 482 q 927 655 922 600 q 933 754 933 709 q 919 877 933 819 q 876 976 905 934 q 803 1043 847 1019 q 701 1067 760 1067 q 581 1037 639 1067 q 471 956 522 1007 q 376 837 419 905 q 303 695 334 770 q 256 543 273 621 q 239 395 239 466 q 258 253 239 319 q 314 138 277 186 q 402 63 350 90 q 519 35 454 35 z "},"":{"ha":1096,"x_min":65,"x_max":1107,"o":"m 829 1424 q 845 1444 837 1433 q 861 1466 852 1454 q 878 1492 869 1478 q 912 1524 892 1514 q 951 1535 932 1535 q 991 1522 975 1535 q 1008 1485 1008 1509 q 998 1449 1008 1468 q 977 1410 990 1434 q 945 1363 964 1385 q 900 1324 926 1340 q 841 1308 874 1308 q 803 1313 820 1308 q 763 1334 785 1319 q 708 1375 741 1349 q 625 1440 676 1400 q 609 1419 617 1430 q 593 1398 602 1410 q 576 1373 584 1386 q 542 1340 562 1351 q 503 1330 522 1330 q 463 1343 479 1330 q 446 1379 446 1356 q 456 1415 446 1396 q 477 1455 464 1431 q 509 1502 490 1479 q 554 1541 528 1525 q 613 1557 580 1557 q 651 1551 634 1557 q 691 1531 669 1546 q 746 1490 713 1516 q 829 1424 778 1464 m 503 -130 q 321 -89 402 -130 q 183 27 240 -47 q 96 204 126 101 q 65 429 65 307 q 75 563 65 494 q 103 700 84 631 q 152 833 123 768 q 219 957 180 899 q 304 1064 257 1015 q 409 1149 352 1114 q 533 1205 467 1185 q 675 1225 599 1225 q 857 1188 777 1225 q 992 1086 937 1152 q 1077 929 1048 1020 q 1107 728 1107 838 q 1089 538 1107 637 q 1036 344 1071 439 q 950 163 1002 249 q 831 12 899 77 q 682 -92 764 -54 q 503 -130 600 -130 m 519 35 q 621 56 574 35 q 706 114 667 77 q 778 200 745 151 q 835 305 810 249 q 879 422 860 361 q 909 541 897 482 q 927 655 922 600 q 933 754 933 709 q 919 877 933 819 q 876 976 905 934 q 803 1043 847 1019 q 701 1067 760 1067 q 581 1037 639 1067 q 471 956 522 1007 q 376 837 419 905 q 303 695 334 770 q 256 543 273 621 q 239 395 239 466 q 258 253 239 319 q 314 138 277 186 q 402 63 350 90 q 519 35 454 35 z "},"":{"ha":1096,"x_min":65,"x_max":1107,"o":"m 985 1426 q 984 1413 985 1423 q 980 1390 983 1403 q 970 1362 977 1377 q 951 1336 964 1348 q 921 1316 939 1324 q 875 1308 902 1308 q 806 1331 833 1308 q 779 1408 779 1354 q 785 1452 779 1430 q 805 1489 791 1473 q 838 1516 818 1506 q 886 1526 858 1526 q 960 1500 935 1526 q 985 1426 985 1474 m 668 1426 q 667 1413 668 1423 q 663 1390 667 1403 q 653 1362 660 1377 q 634 1336 646 1348 q 603 1316 622 1324 q 558 1308 585 1308 q 489 1331 515 1308 q 463 1408 463 1354 q 469 1452 463 1430 q 488 1489 475 1473 q 521 1516 500 1506 q 570 1526 541 1526 q 643 1500 617 1526 q 668 1426 668 1474 m 503 -130 q 321 -89 402 -130 q 183 27 240 -47 q 96 204 126 101 q 65 429 65 307 q 75 563 65 494 q 103 700 84 631 q 152 833 123 768 q 219 957 180 899 q 304 1064 257 1015 q 409 1149 352 1114 q 533 1205 467 1185 q 675 1225 599 1225 q 857 1188 777 1225 q 992 1086 937 1152 q 1077 929 1048 1020 q 1107 728 1107 838 q 1089 538 1107 637 q 1036 344 1071 439 q 950 163 1002 249 q 831 12 899 77 q 682 -92 764 -54 q 503 -130 600 -130 m 519 35 q 621 56 574 35 q 706 114 667 77 q 778 200 745 151 q 835 305 810 249 q 879 422 860 361 q 909 541 897 482 q 927 655 922 600 q 933 754 933 709 q 919 877 933 819 q 876 976 905 934 q 803 1043 847 1019 q 701 1067 760 1067 q 581 1037 639 1067 q 471 956 522 1007 q 376 837 419 905 q 303 695 334 770 q 256 543 273 621 q 239 395 239 466 q 258 253 239 319 q 314 138 277 186 q 402 63 350 90 q 519 35 454 35 z "},"":{"ha":868,"x_min":239,"x_max":694,"o":"m 469 262 l 362 148 q 328 123 345 130 q 296 115 311 115 q 255 132 271 115 q 239 172 239 148 q 247 206 239 188 q 273 241 255 224 l 378 347 l 269 456 q 249 485 255 470 q 243 515 243 500 q 248 541 243 528 q 260 562 252 553 q 278 576 268 571 q 301 582 289 582 q 351 557 326 582 l 469 433 l 582 559 q 608 577 595 572 q 632 583 621 583 q 655 578 645 583 q 673 563 666 572 q 685 541 681 553 q 690 516 690 529 q 684 486 690 500 q 665 458 678 471 l 561 347 l 661 240 q 686 204 678 222 q 694 171 694 186 q 678 130 694 146 q 637 114 662 114 q 605 121 622 114 q 570 146 588 129 l 469 262 z "},"":{"ha":1025,"x_min":65,"x_max":1107,"o":"m 503 -130 q 480 -130 492 -130 q 458 -127 469 -129 l 431 -222 q 413 -262 422 -248 q 395 -286 404 -277 q 377 -296 386 -294 q 361 -299 369 -299 q 342 -297 351 -299 q 327 -289 334 -296 q 317 -270 321 -283 q 313 -233 313 -256 q 319 -176 313 -211 q 338 -96 324 -142 q 223 -18 273 -68 q 137 100 172 32 q 84 251 102 168 q 65 429 65 334 q 82 616 65 519 q 134 804 100 712 q 219 979 168 897 q 337 1123 270 1061 q 489 1222 405 1185 q 675 1259 574 1259 q 719 1257 697 1259 l 736 1319 q 752 1361 743 1341 q 775 1397 762 1381 q 805 1422 789 1413 q 840 1431 821 1431 q 862 1418 857 1431 q 867 1386 867 1406 q 867 1376 867 1381 q 867 1366 867 1371 q 862 1335 866 1356 q 852 1294 857 1315 q 841 1254 846 1272 q 834 1230 836 1236 q 950 1156 899 1203 q 1036 1044 1001 1109 q 1088 899 1070 979 q 1107 728 1107 819 q 1089 538 1107 637 q 1036 344 1071 439 q 950 163 1002 249 q 831 12 899 77 q 682 -92 764 -54 q 503 -130 600 -130 m 519 22 q 621 44 574 22 q 706 105 667 66 q 778 196 745 144 q 835 308 810 248 q 879 431 860 367 q 909 557 897 495 q 927 677 922 619 q 933 781 933 734 q 925 886 933 836 q 900 978 917 937 q 859 1052 884 1020 q 800 1103 833 1084 q 762 960 783 1038 q 717 795 741 882 q 667 613 693 708 q 614 420 641 519 q 558 221 587 321 q 502 22 530 121 q 510 22 506 22 q 519 22 515 22 m 382 62 q 424 212 401 129 q 474 389 448 296 q 528 580 500 481 q 583 774 556 678 q 636 961 610 871 q 683 1128 661 1051 q 566 1087 623 1123 q 461 996 510 1052 q 371 866 412 939 q 300 714 330 793 q 255 552 271 634 q 239 395 239 470 q 248 289 239 339 q 276 195 258 238 q 321 119 294 153 q 382 62 348 85 z "},"":{"ha":950,"x_min":65,"x_max":1042,"o":"m 1032 1385 q 1037 1369 1036 1377 q 1039 1353 1039 1360 q 1027 1320 1039 1333 q 1000 1308 1016 1308 q 976 1313 988 1308 q 954 1333 964 1319 q 931 1360 945 1343 q 901 1397 918 1377 q 865 1441 884 1418 q 828 1488 846 1464 q 794 1532 810 1511 q 764 1571 777 1554 q 739 1637 739 1607 q 748 1674 739 1657 q 771 1704 757 1691 q 802 1723 785 1716 q 838 1729 820 1729 q 875 1719 857 1729 q 902 1686 893 1709 q 960 1554 933 1615 q 982 1502 970 1529 q 1003 1453 994 1476 q 1021 1412 1013 1430 q 1032 1385 1028 1394 m 846 1063 q 859 1119 848 1098 q 887 1152 870 1140 q 924 1168 903 1164 q 965 1172 945 1172 q 998 1168 983 1172 q 1022 1153 1012 1164 q 1037 1125 1031 1143 q 1042 1080 1042 1107 q 1019 731 1042 892 q 956 438 997 570 q 859 204 916 306 q 733 33 802 102 q 585 -73 664 -37 q 420 -109 505 -109 q 250 -67 319 -109 q 141 43 182 -26 q 82 205 100 113 q 65 399 65 297 q 76 562 65 479 q 102 723 86 645 q 139 872 119 802 q 180 998 160 942 q 207 1059 193 1038 q 233 1092 220 1081 q 258 1104 245 1102 q 285 1107 271 1107 q 331 1104 311 1107 q 364 1095 351 1102 q 385 1076 378 1088 q 391 1042 391 1063 l 391 1037 q 389 1019 390 1029 q 385 998 389 1010 q 363 931 377 973 q 333 834 349 888 q 300 716 317 779 q 269 587 283 653 q 247 455 256 521 q 239 331 239 390 q 249 217 239 270 q 283 126 259 165 q 346 65 307 87 q 441 43 385 43 q 525 67 486 43 q 600 135 565 92 q 666 240 635 179 q 722 374 696 301 q 769 531 748 448 q 805 702 789 614 q 831 882 821 791 q 846 1063 842 974 z "},"":{"ha":950,"x_min":65,"x_max":1042,"o":"m 613 1385 q 625 1412 617 1394 q 642 1453 632 1430 q 663 1502 652 1476 q 686 1554 674 1529 q 743 1686 712 1615 q 770 1719 752 1709 q 808 1729 788 1729 q 843 1723 825 1729 q 874 1704 861 1716 q 897 1674 888 1691 q 906 1637 906 1657 q 881 1571 906 1605 q 851 1532 868 1554 q 817 1488 835 1511 q 780 1441 799 1464 q 745 1397 762 1418 q 714 1360 728 1377 q 692 1333 700 1343 q 669 1313 680 1319 q 646 1308 657 1308 q 618 1320 629 1308 q 606 1353 606 1333 q 608 1369 606 1360 q 613 1385 610 1377 m 846 1063 q 859 1119 848 1098 q 887 1152 870 1140 q 924 1168 903 1164 q 965 1172 945 1172 q 998 1168 983 1172 q 1022 1153 1012 1164 q 1037 1125 1031 1143 q 1042 1080 1042 1107 q 1019 731 1042 892 q 956 438 997 570 q 859 204 916 306 q 733 33 802 102 q 585 -73 664 -37 q 420 -109 505 -109 q 250 -67 319 -109 q 141 43 182 -26 q 82 205 100 113 q 65 399 65 297 q 76 562 65 479 q 102 723 86 645 q 139 872 119 802 q 180 998 160 942 q 207 1059 193 1038 q 233 1092 220 1081 q 258 1104 245 1102 q 285 1107 271 1107 q 331 1104 311 1107 q 364 1095 351 1102 q 385 1076 378 1088 q 391 1042 391 1063 l 391 1037 q 389 1019 390 1029 q 385 998 389 1010 q 363 931 377 973 q 333 834 349 888 q 300 716 317 779 q 269 587 283 653 q 247 455 256 521 q 239 331 239 390 q 249 217 239 270 q 283 126 259 165 q 346 65 307 87 q 441 43 385 43 q 525 67 486 43 q 600 135 565 92 q 666 240 635 179 q 722 374 696 301 q 769 531 748 448 q 805 702 789 614 q 831 882 821 791 q 846 1063 842 974 z "},"":{"ha":950,"x_min":65,"x_max":1042,"o":"m 768 1655 q 722 1550 743 1600 q 702 1507 712 1529 q 684 1465 692 1485 q 667 1427 675 1444 q 653 1397 659 1409 q 625 1348 639 1365 q 596 1322 610 1330 q 567 1312 581 1314 q 538 1310 553 1310 q 523 1315 531 1310 q 509 1327 515 1319 q 498 1347 503 1335 q 495 1372 494 1358 q 503 1398 496 1385 l 627 1621 q 663 1683 647 1656 q 696 1729 680 1710 q 734 1756 713 1747 q 785 1766 755 1766 q 835 1755 815 1766 q 867 1722 854 1744 q 889 1669 880 1700 q 905 1596 898 1637 q 915 1559 911 1573 q 922 1534 919 1545 q 927 1514 925 1523 q 933 1491 930 1504 q 941 1458 937 1477 q 954 1408 946 1438 q 956 1384 956 1396 q 933 1330 954 1352 q 873 1308 912 1308 q 849 1312 861 1308 q 827 1326 837 1316 q 811 1353 818 1336 q 802 1397 804 1371 q 788 1516 795 1467 q 777 1596 781 1565 q 768 1655 772 1632 m 846 1063 q 859 1119 848 1098 q 887 1152 870 1140 q 924 1168 903 1164 q 965 1172 945 1172 q 998 1168 983 1172 q 1022 1153 1012 1164 q 1037 1125 1031 1143 q 1042 1080 1042 1107 q 1019 731 1042 892 q 956 438 997 570 q 859 204 916 306 q 733 33 802 102 q 585 -73 664 -37 q 420 -109 505 -109 q 250 -67 319 -109 q 141 43 182 -26 q 82 205 100 113 q 65 399 65 297 q 76 562 65 479 q 102 723 86 645 q 139 872 119 802 q 180 998 160 942 q 207 1059 193 1038 q 233 1092 220 1081 q 258 1104 245 1102 q 285 1107 271 1107 q 331 1104 311 1107 q 364 1095 351 1102 q 385 1076 378 1088 q 391 1042 391 1063 l 391 1037 q 389 1019 390 1029 q 385 998 389 1010 q 363 931 377 973 q 333 834 349 888 q 300 716 317 779 q 269 587 283 653 q 247 455 256 521 q 239 331 239 390 q 249 217 239 270 q 283 126 259 165 q 346 65 307 87 q 441 43 385 43 q 525 67 486 43 q 600 135 565 92 q 666 240 635 179 q 722 374 696 301 q 769 531 748 448 q 805 702 789 614 q 831 882 821 791 q 846 1063 842 974 z "}}}
